<?xml version="1.0" encoding="utf-8"?>
<!-- Generator: Adobe Illustrator 25.1.0, SVG Export Plug-In . SVG Version: 6.00 Build 0)  -->
<svg version="1.1" id="Layer_1" xmlns="http://www.w3.org/2000/svg" xmlns:xlink="http://www.w3.org/1999/xlink" x="0px" y="0px"
	 viewBox="0 0 235.3 350.4" style="enable-background:new 0 0 235.3 350.4;" xml:space="preserve">
<style type="text/css">
	.st0{fill:#FFFFFF;}
	.st1{opacity:0.25;}
	.st2{fill:#09811F;}
	.st3{opacity:0.25;fill:#09811F;enable-background:new    ;}
</style>
<path class="st0" d="M113,5.5l-7.8,2.8l-2.2,9.9l-19,1.5L62.3,21l-4.3,6.1l-9.3-1.4l-36.3,1.4l-6.3,7.5l-0.9,7.1v295.1l0.3,9H11
	l10.6,2.2h198.8c0,0,11-7.8,11-14.7c0-6.9,0-30.7,0-30.7l3.9-158.3v-91l-4.5-20.7l-9.5-5.5l-8.7-3.5h-37.8l-9.4-2.4l-26.6-1.7
	l-3.7-2.4l-6.3-8.4l-7.1-3.2H113z"/>
<g>
	<g class="st1">
		<path class="st2" d="M42.8,127.3c1.4,0,2.8-0.6,3.8-1.6l21.8-21.8c1-1,1.6-2.4,1.6-3.8s-0.6-2.8-1.6-3.8L65,92.7
			c-1-1-2.4-1.6-3.8-1.6c-1.4,0-2.8,0.6-3.8,1.6l-14.5,14.5l-5.3-5.4c-1-1-2.4-1.6-3.8-1.6s-2.8,0.6-3.8,1.6l-3.4,3.4
			c-1,1-1.6,2.4-1.6,3.8s0.6,2.8,1.6,3.8L39,125.7C40,126.7,41.4,127.3,42.8,127.3z"/>
		<path class="st2" d="M72.5,191.7l-3.4-3.4c-1-1-2.4-1.6-3.8-1.6c-1.4,0-2.8,0.6-3.8,1.6l-14.5,14.5l-5.3-5.4c-1-1-2.4-1.6-3.8-1.6
			s-2.8,0.6-3.8,1.6l-3.4,3.4c-1,1-1.6,2.4-1.6,3.8c0,1.4,0.6,2.8,1.6,3.8L43,221.2c1,1,2.4,1.6,3.8,1.6c1.4,0,2.8-0.6,3.8-1.6
			l21.8-21.8c1-1,1.6-2.4,1.6-3.8S73.5,192.7,72.5,191.7z"/>
		<path class="st2" d="M67,277.4c-1-1-2.4-1.6-3.8-1.6c-1.4,0-2.8,0.6-3.8,1.6l-14.5,14.5l-5.3-5.4c-1-1-2.4-1.6-3.8-1.6
			s-2.8,0.6-3.8,1.6l-3.5,3.5c-1,1-1.6,2.4-1.6,3.8s0.6,2.8,1.6,3.8L41,310.4c1,1,2.4,1.6,3.8,1.6c1.4,0,2.8-0.6,3.8-1.6l21.8-21.8
			c1-1,1.6-2.4,1.6-3.8s-0.6-2.8-1.6-3.8L67,277.4z"/>
	</g>
	<path class="st3" d="M177.6,29.2h-35.8c0-9-7.3-16.3-16.3-16.3s-16.3,7.3-16.3,16.3H73.4c-4.7,0-8.5,3.8-8.5,8.5v14
		c0,4.7,3.8,8.5,8.5,8.5h104.2c4.7,0,8.5-3.8,8.5-8.5v-14C186.1,33.1,182.2,29.2,177.6,29.2z"/>
	<g>
		<path class="st2" d="M69.5,93.2l-3.2-3.2c-0.8-0.8-1.9-1.3-3-1.3c-1.1,0-2.2,0.5-3,1.3l-14.3,14.3l-5.6-5.6
			c-0.8-0.8-1.9-1.3-3-1.3c-1.1,0-2.2,0.5-3,1.3l-3.2,3.3c-0.8,0.8-1.3,1.9-1.3,3c0,1.1,0.5,2.2,1.3,3l11.9,11.9
			c0.8,0.8,1.9,1.3,3,1.3c1.1,0,2.2-0.5,3-1.3l20.6-20.6c0.8-0.8,1.3-1.9,1.3-3C70.8,95.1,70.3,94,69.5,93.2z M66.7,96.4L46.1,117
			c-0.1,0.1-0.3,0.1-0.4,0l-11.9-11.9c0,0-0.1-0.1-0.1-0.2s0-0.2,0.1-0.2l3.2-3.2c0,0,0.1-0.1,0.2-0.1s0.2,0,0.2,0.1l7,7.1
			c0.4,0.4,0.9,0.6,1.4,0.6h0c0.5,0,1-0.2,1.4-0.6L63,92.8c0.1-0.1,0.3-0.1,0.4,0l3.3,3.3c0,0,0.1,0.1,0.1,0.2
			C66.8,96.3,66.8,96.4,66.7,96.4z"/>
		<path class="st2" d="M69.5,186.7l-3.2-3.3c-0.8-0.8-1.9-1.3-3-1.3s-2.2,0.5-3,1.3l-14.3,14.3l-5.6-5.6c-0.8-0.8-1.9-1.3-3-1.3
			c-1.1,0-2.2,0.5-3,1.3l-3.3,3.3c-0.8,0.8-1.3,1.9-1.3,3c0,1.1,0.5,2.2,1.3,3l11.9,11.9c0.8,0.8,1.9,1.3,3,1.3c1.1,0,2.2-0.5,3-1.3
			l20.6-20.6c0.8-0.8,1.3-1.9,1.3-3C70.8,188.6,70.3,187.5,69.5,186.7z M66.7,190l-20.6,20.6c-0.1,0.1-0.3,0.1-0.4,0l-11.9-11.9
			c0,0-0.1-0.1-0.1-0.2s0-0.2,0.1-0.2l3.2-3.2c0,0,0.1-0.1,0.2-0.1s0.2,0,0.2,0.1l7,7c0.4,0.4,0.9,0.6,1.4,0.6h0
			c0.5,0,1-0.2,1.4-0.6L63,186.3c0.1-0.1,0.3-0.1,0.4,0l3.3,3.3c0,0,0.1,0.1,0.1,0.2S66.7,189.9,66.7,190z"/>
		<path class="st2" d="M66.3,272.6c-0.8-0.8-1.9-1.3-3-1.3s-2.2,0.5-3,1.3l-14.3,14.3l-5.6-5.6c-0.8-0.8-1.9-1.3-3-1.3
			c-1.1,0-2.2,0.5-3,1.3l-3.3,3.3c-0.8,0.8-1.3,1.9-1.3,3c0,1.1,0.5,2.2,1.3,3l11.9,11.9c0.8,0.8,1.9,1.3,3,1.3c1.1,0,2.2-0.5,3-1.3
			l20.6-20.6c0.8-0.8,1.3-1.9,1.3-3c0-1.1-0.5-2.2-1.3-3L66.3,272.6z M66.7,279.1l-20.6,20.6c-0.1,0.1-0.3,0.1-0.4,0l-11.9-11.9
			c0,0-0.1-0.1-0.1-0.2s0-0.2,0.1-0.2l3.2-3.2c0,0,0.1-0.1,0.2-0.1s0.2,0,0.2,0.1l7,7c0.4,0.4,0.9,0.6,1.4,0.6h0
			c0.5,0,1-0.2,1.4-0.6L63,275.4c0.1-0.1,0.3-0.1,0.4,0l3.2,3.2c0,0,0.1,0.1,0.1,0.2C66.8,279,66.7,279.1,66.7,279.1z"/>
		<path class="st2" d="M231.8,106.2c-1.9,0-3.5,1.6-3.5,3.5v11c0,1.9,1.6,3.5,3.5,3.5s3.5-1.6,3.5-3.5v-11
			C235.3,107.8,233.7,106.2,231.8,106.2z"/>
		<path class="st2" d="M163,97.1c0,1.9,1.6,3.5,3.5,3.5h21.1c1.9,0,3.5-1.6,3.5-3.5s-1.6-3.5-3.5-3.5h-21.1
			C164.6,93.6,163,95.2,163,97.1z"/>
		<path class="st2" d="M149.5,93.6h-33c-1.9,0-3.5,1.6-3.5,3.5s1.6,3.5,3.5,3.5h33c1.9,0,3.5-1.6,3.5-3.5S151.5,93.6,149.5,93.6z"/>
		<path class="st2" d="M87.5,100.6h10c1.9,0,3.5-1.6,3.5-3.5s-1.6-3.5-3.5-3.5h-10c-1.9,0-3.5,1.6-3.5,3.5S85.6,100.6,87.5,100.6z"
			/>
		<path class="st2" d="M171.5,118c1.9,0,3.5-1.6,3.5-3.5s-1.6-3.5-3.5-3.5h-5c-1.9,0-3.5,1.6-3.5,3.5s1.6,3.5,3.5,3.5H171.5z"/>
		<path class="st2" d="M87.5,118h57c1.9,0,3.5-1.6,3.5-3.5s-1.6-3.5-3.5-3.5h-57c-1.9,0-3.5,1.6-3.5,3.5S85.6,118,87.5,118z"/>
		<path class="st2" d="M87.5,183.6h2c1.9,0,3.5-1.6,3.5-3.5s-1.6-3.5-3.5-3.5h-2c-1.9,0-3.5,1.6-3.5,3.5S85.6,183.6,87.5,183.6z"/>
		<circle class="st2" cx="187.5" cy="180.1" r="3.5"/>
		<path class="st2" d="M109.5,176.6c-0.3,0-0.7,0-1,0.2c-0.3-0.1-0.7-0.2-1-0.2c-1.9,0-3.5,1.6-3.5,3.5s1.6,3.5,3.5,3.5
			c0.3,0,0.7,0,1-0.1c0.3,0.1,0.7,0.1,1,0.1h20c1.9,0,3.5-1.6,3.5-3.5s-1.6-3.5-3.5-3.5H109.5z"/>
		<path class="st2" d="M148.5,176.8c-0.3-0.1-0.7-0.2-1-0.2c-1.9,0-3.5,1.6-3.5,3.5s1.6,3.5,3.5,3.5c0.3,0,0.7,0,1-0.1
			c0.3,0.1,0.7,0.1,1,0.1h20c1.9,0,3.5-1.6,3.5-3.5s-1.6-3.5-3.5-3.5h-20C149.2,176.6,148.9,176.7,148.5,176.8z"/>
		<path class="st2" d="M175.8,197.5c0-1.9-1.6-3.5-3.5-3.5H87.5c-1.9,0-3.5,1.6-3.5,3.5s1.6,3.5,3.5,3.5h84.8
			C174.3,201,175.8,199.5,175.8,197.5z"/>
		<path class="st2" d="M101,214.3c0-1.9-1.6-3.5-3.5-3.5h-10c-1.9,0-3.5,1.6-3.5,3.5s1.6,3.5,3.5,3.5h10
			C99.5,217.8,101,216.2,101,214.3z"/>
		<path class="st2" d="M149.5,210.8h-33c-1.9,0-3.5,1.6-3.5,3.5s1.6,3.5,3.5,3.5h33c1.9,0,3.5-1.6,3.5-3.5S151.5,210.8,149.5,210.8z
			"/>
		<path class="st2" d="M143,279.9c0-1.9-1.6-3.5-3.5-3.5h-18c-0.3,0-0.7,0.1-1,0.1c-0.3-0.1-0.7-0.1-1-0.1h-12
			c-1.9,0-3.5,1.6-3.5,3.5s1.6,3.5,3.5,3.5h12c0.3,0,0.7-0.1,1-0.1c0.3,0.1,0.7,0.1,1,0.1h18C141.5,283.4,143,281.8,143,279.9z"/>
		<path class="st2" d="M148,279.9c0,1.9,1.6,3.5,3.5,3.5h2c1.9,0,3.5-1.6,3.5-3.5s-1.6-3.5-3.5-3.5h-2
			C149.6,276.4,148,277.9,148,279.9z"/>
		<path class="st2" d="M87.5,276.4c-1.9,0-3.5,1.6-3.5,3.5s1.6,3.5,3.5,3.5h2c1.9,0,3.5-1.6,3.5-3.5s-1.6-3.5-3.5-3.5H87.5z"/>
		<path class="st2" d="M171.5,276.4c-1.9,0-3.5,1.6-3.5,3.5s1.6,3.5,3.5,3.5h3.3c1.9,0,3.5-1.6,3.5-3.5s-1.6-3.5-3.5-3.5H171.5z"/>
		<path class="st2" d="M87.5,300.7H116c1.9,0,3.5-1.6,3.5-3.5s-1.6-3.5-3.5-3.5H87.5c-1.9,0-3.5,1.6-3.5,3.5S85.6,300.7,87.5,300.7z
			"/>
		<path class="st2" d="M129.7,293.7c-1.9,0-3.5,1.6-3.5,3.5s1.6,3.5,3.5,3.5h3.1c1.9,0,3.5-1.6,3.5-3.5s-1.6-3.5-3.5-3.5H129.7z"/>
		<path class="st2" d="M144.7,300.7h10c1.9,0,3.5-1.6,3.5-3.5s-1.6-3.5-3.5-3.5h-10c-1.9,0-3.5,1.6-3.5,3.5S142.7,300.7,144.7,300.7
			z"/>
		<path class="st2" d="M162.3,297.2c0,1.9,1.6,3.5,3.5,3.5h28.5c1.9,0,3.5-1.6,3.5-3.5s-1.6-3.5-3.5-3.5h-28.5
			C163.9,293.7,162.3,295.3,162.3,297.2z"/>
		<path class="st2" d="M218.3,23.7h-5.8c-1.9,0-3.5,1.6-3.5,3.5s1.6,3.5,3.5,3.5h5.8c5.5,0,10,4.5,10,10v55.1c0,1.9,1.6,3.5,3.5,3.5
			s3.5-1.6,3.5-3.5V40.6C235.3,31.3,227.7,23.7,218.3,23.7z"/>
		<path class="st2" d="M231.8,141c-1.9,0-3.5,1.6-3.5,3.5v11.2v71v31v75.7c0,0.4,0,0.7-0.1,1.1c0,0.1,0,0.2-0.1,0.4
			c0,0.2-0.1,0.5-0.1,0.7c0,0.1-0.1,0.2-0.1,0.4c-0.1,0.2-0.1,0.5-0.2,0.7c0,0.1-0.1,0.2-0.1,0.3c-0.1,0.3-0.2,0.6-0.4,0.8
			c-1.6,3.3-5,5.6-8.9,5.6h-82h-14h-11h-35H17c-0.4,0-0.7,0-1.1-0.1c-0.1,0-0.1,0-0.2,0c-0.3,0-0.6-0.1-0.9-0.1c-0.1,0-0.1,0-0.2,0
			c-0.3-0.1-0.6-0.1-0.9-0.2c0,0-0.1,0-0.1,0c-0.3-0.1-0.6-0.2-0.9-0.3c0,0-0.1,0-0.1,0c-0.3-0.1-0.6-0.3-0.8-0.5c0,0,0,0-0.1,0
			c-0.3-0.2-0.6-0.4-0.8-0.6c0,0,0,0,0,0c-0.6-0.4-1.1-0.9-1.6-1.5c0,0,0,0,0,0c-1.5-1.7-2.3-4-2.3-6.4v-21.5v-82v-14v-11v-35v-71
			v-31V40.6c0-5.5,4.5-10,10-10h30.4h3.1c1.3,0,2.4-0.7,3-1.8v13.4c0,6.6,5.4,12,12,12h104.2c6.6,0,12-5.4,12-12v-14
			c0-6.6-5.4-12-12-12h-32.6C135.5,7,127.4,0,117.6,0c-9.7,0-17.8,7-19.5,16.3H65.6c-5.8,0-10.7,4.1-11.8,9.6
			c-0.5-1.3-1.8-2.3-3.3-2.3h-3.1H17c-9.4,0-17,7.6-17,17v27.3v31v71v35v11v14v82v21.5c0,4.2,1.5,8,4,11c0,0,0,0,0,0
			c0,0,0.1,0.1,0.1,0.1c0.4,0.4,0.7,0.8,1.1,1.2c0.1,0.1,0.2,0.2,0.3,0.2c0.3,0.3,0.7,0.6,1.1,0.9c0.1,0.1,0.2,0.2,0.4,0.3
			c0.4,0.3,0.7,0.5,1.1,0.7c0.1,0.1,0.3,0.2,0.4,0.3c0.4,0.2,0.8,0.4,1.1,0.6c0.1,0.1,0.3,0.1,0.4,0.2c0.4,0.2,0.8,0.3,1.2,0.5
			c0.1,0.1,0.3,0.1,0.4,0.2c0.4,0.1,0.9,0.3,1.3,0.4c0.1,0,0.3,0.1,0.4,0.1c0.5,0.1,0.9,0.2,1.4,0.2c0.1,0,0.3,0,0.4,0.1
			c0.6,0.1,1.2,0.1,1.8,0.1h59.3h35h11h14h82h0c0.4,0,0.7,0,1.1,0c0.1,0,0.1,0,0.2,0c6-0.5,11.2-4.1,13.8-9.2c0,0,0-0.1,0.1-0.1
			c0.1-0.3,0.3-0.6,0.4-0.9c0.1-0.2,0.1-0.3,0.2-0.5c0.1-0.3,0.2-0.6,0.3-0.9c0.1-0.2,0.1-0.3,0.2-0.5c0.1-0.4,0.2-0.8,0.3-1.2
			c0-0.2,0.1-0.3,0.1-0.5c0.1-0.4,0.2-0.9,0.2-1.3c0-0.1,0-0.2,0-0.3c0-0.5,0.1-1,0.1-1.5v-75.7v-31v-71v-11.2
			C235.3,142.5,233.7,141,231.8,141z M60.6,28.3c0-2.8,2.2-5,5-5h35.8c1.9,0,3.5-1.6,3.5-3.5c0-7.1,5.7-12.8,12.8-12.8
			s12.8,5.7,12.8,12.8c0,1.9,1.6,3.5,3.5,3.5h35.8c2.8,0,5,2.2,5,5v14c0,2.8-2.2,5-5,5H65.6c-2.8,0-5-2.2-5-5V28.3z"/>
	</g>
</g>
</svg>
