<?xml version="1.0" encoding="utf-8"?>
<!-- Generator: Adobe Illustrator 23.0.2, SVG Export Plug-In . SVG Version: 6.00 Build 0)  -->
<svg version="1.1" id="Layer_1" xmlns="http://www.w3.org/2000/svg" xmlns:xlink="http://www.w3.org/1999/xlink" x="0px" y="0px"
	 viewBox="0 0 184.2400665 184.0185699" style="enable-background:new 0 0 184.2400665 184.0185699;" xml:space="preserve">
<style type="text/css">
	.st0{fill:#09811F;}
</style>
<g>
	<path class="st0" d="M39.5516853,43.1516876H3.6000001C1.6117749,43.1516876,0,41.5399094,0,39.5516853V3.5999999
		C0,1.6117749,1.6117749,0,3.5999999,0h35.9516869c1.988224,0,3.6000023,1.6117749,3.6000023,3.5999999v35.9516869
		C43.1516876,41.5399094,41.5399094,43.1516876,39.5516853,43.1516876z"/>
	<path class="st0" d="M110.095871,43.1516876h-35.951683c-1.9882278,0-3.5999985-1.6117783-3.5999985-3.6000023V3.5999999
		C70.5441895,1.6117749,72.1559601,0,74.1441879,0h35.951683c1.9882278,0,3.6000061,1.6117749,3.6000061,3.5999999v35.9516869
		C113.6958771,41.5399094,112.0840988,43.1516876,110.095871,43.1516876z"/>
	<path class="st0" d="M180.6400604,43.1516876h-35.9516907c-1.9882202,0-3.5999908-1.6117783-3.5999908-3.6000023V3.5999999
		C141.0883789,1.6117749,142.7001495,0,144.6883698,0h35.9516907c1.9882202,0,3.6000061,1.6117749,3.6000061,3.5999999v35.9516869
		C184.2400665,41.5399094,182.6282806,43.1516876,180.6400604,43.1516876z"/>
	<path class="st0" d="M39.5516853,113.5851288H3.6000001C1.6117749,113.5851288,0,111.9733505,0,109.9851227v-35.951683
		c0-1.9882278,1.6117749-3.5999985,3.5999999-3.5999985h35.9516869c1.988224,0,3.6000023,1.6117706,3.6000023,3.5999985v35.951683
		C43.1516876,111.9733505,41.5399094,113.5851288,39.5516853,113.5851288z"/>
	<path class="st0" d="M110.095871,113.5851288h-35.951683c-1.9882278,0-3.5999985-1.6117783-3.5999985-3.6000061v-35.951683
		c0-1.9882278,1.6117706-3.5999985,3.5999985-3.5999985h35.951683c1.9882278,0,3.6000061,1.6117706,3.6000061,3.5999985v35.951683
		C113.6958771,111.9733505,112.0840988,113.5851288,110.095871,113.5851288z"/>
	<path class="st0" d="M180.6400604,113.5851288h-35.9516907c-1.9882202,0-3.5999908-1.6117783-3.5999908-3.6000061v-35.951683
		c0-1.9882278,1.6117706-3.5999985,3.5999908-3.5999985h35.9516907c1.9882202,0,3.6000061,1.6117706,3.6000061,3.5999985v35.951683
		C184.2400665,111.9733505,182.6282806,113.5851288,180.6400604,113.5851288z"/>
	<path class="st0" d="M39.5516853,184.0185699H3.6000001C1.6117749,184.0185699,0,182.4067841,0,180.4185638v-35.9516907
		c0-1.9882202,1.6117749-3.5999908,3.5999999-3.5999908h35.9516869c1.988224,0,3.6000023,1.6117706,3.6000023,3.5999908v35.9516907
		C43.1516876,182.4067841,41.5399094,184.0185699,39.5516853,184.0185699z"/>
	<path class="st0" d="M110.095871,184.0185699h-35.951683c-1.9882278,0-3.5999985-1.6117859-3.5999985-3.6000061v-35.9516907
		c0-1.9882202,1.6117706-3.5999908,3.5999985-3.5999908h35.951683c1.9882278,0,3.6000061,1.6117706,3.6000061,3.5999908v35.9516907
		C113.6958771,182.4067841,112.0840988,184.0185699,110.095871,184.0185699z"/>
	<path class="st0" d="M180.6400604,184.0185699h-35.9516907c-1.9882202,0-3.5999908-1.6117859-3.5999908-3.6000061v-35.9516907
		c0-1.9882202,1.6117706-3.5999908,3.5999908-3.5999908h35.9516907c1.9882202,0,3.6000061,1.6117706,3.6000061,3.5999908v35.9516907
		C184.2400665,182.4067841,182.6282806,184.0185699,180.6400604,184.0185699z"/>
</g>
</svg>
