<?xml version="1.0" encoding="utf-8"?>
<!-- Generator: Adobe Illustrator 23.0.2, SVG Export Plug-In . SVG Version: 6.00 Build 0)  -->
<svg version="1.1" id="Layer_1" xmlns="http://www.w3.org/2000/svg" xmlns:xlink="http://www.w3.org/1999/xlink" x="0px" y="0px"
	 viewBox="0 0 139.4434814 136.6269531" style="enable-background:new 0 0 139.4434814 136.6269531;" xml:space="preserve">
<style type="text/css">
	.st0{fill:#09811F;}
	.st1{opacity:0.25;}
	.st2{fill-rule:evenodd;clip-rule:evenodd;fill:#09811F;}
</style>
<g>
	<path class="st0" d="M137.2469482,123.8237305L93.0721436,79.6489258
		c14.4199219-19.5537109,12.7866211-47.3129883-4.9042969-65.0048828c0,0,0,0-0.0009766,0
		C78.7235107,5.2006836,66.1678467,0,52.8133545,0S26.9031982,5.2006836,17.4598389,14.644043
		C8.0164804,24.0869141,2.8162849,36.6425781,2.8162849,49.9975586s5.2001953,25.9106445,14.6435537,35.3535156
		c9.4433594,9.4433594,21.9990234,14.6445312,35.3535156,14.6445312c10.8212891,0,21.1152344-3.4162598,29.65625-9.7351074
		l44.1699219,44.1696777c1.4648438,1.4643555,3.3847656,2.1967773,5.3037109,2.1967773s3.8388672-0.7324219,5.3037109-2.1967773
		C140.1756592,131.5014648,140.1756592,126.7524414,137.2469482,123.8237305z M28.0662842,74.7446289
		c-6.609375-6.6103516-10.25-15.3989258-10.25-24.7470703s3.640625-18.1367188,10.2509766-24.7470703
		C34.6766357,18.640625,43.4656982,15,52.8133545,15c9.3486328,0,18.1367188,3.640625,24.7470703,10.2504883
		c13.6455078,13.6455078,13.6455078,35.8486328,0,49.4941406c-6.6103516,6.6103516-15.3984375,10.2509766-24.7470703,10.2509766
		C43.4656982,84.9956055,34.6766357,81.3549805,28.0662842,74.7446289z"/>
	<g class="st1">
		<g>
			<circle class="st2" cx="42.4975739" cy="72.2452698" r="42.4975739"/>
		</g>
	</g>
</g>
</svg>
