<?xml version="1.0" encoding="utf-8"?>
<!-- Generator: Adobe Illustrator 23.0.3, SVG Export Plug-In . SVG Version: 6.00 Build 0)  -->
<svg version="1.1" id="Layer_1" xmlns="http://www.w3.org/2000/svg" xmlns:xlink="http://www.w3.org/1999/xlink" x="0px" y="0px"
	 viewBox="0 0 297.7653809 326.0385132" style="enable-background:new 0 0 297.7653809 326.0385132;" xml:space="preserve">
<style type="text/css">
	.st0{opacity:0.25;fill:#1B459B;}
	.st1{fill:#1B459B;}
</style>
<g>
	<path class="st0" d="M50.3727417,149.1394958H38.8383446c-4.9705658,0-9.0000019,4.0294342-9.0000019,9v95.918396
		c0,4.9705505,4.0294361,9,9.0000019,9h11.5343971c4.970562,0,9-4.0294495,9-9v-95.918396
		C59.3727417,153.1689301,55.3433037,149.1394958,50.3727417,149.1394958z"/>
	<path class="st0" d="M118.5115356,149.1394958h-11.5344009c-4.9705658,0-9,4.0294342-9,9v95.918396c0,4.9705505,4.0294342,9,9,9
		h11.5344009c4.9705582,0,9-4.0294495,9-9v-95.918396C127.5115356,153.1689301,123.4820938,149.1394958,118.5115356,149.1394958z"/>
	<path class="st0" d="M186.4382935,149.1394958h-11.5344086c-4.9705658,0-9,4.0294342-9,9v95.918396c0,4.9705505,4.0294342,9,9,9
		h11.5344086c4.9705505,0,9-4.0294495,9-9v-95.918396C195.4382935,153.1689301,191.408844,149.1394958,186.4382935,149.1394958z"/>
	<path class="st0" d="M248.7702789,149.1394958h-11.5344086c-4.9705658,0-9,4.0294342-9,9v95.918396c0,4.9705505,4.0294342,9,9,9
		h11.5344086c4.9705658,0,8.9999847-4.0294495,8.9999847-9v-95.918396
		C257.7702637,153.1689301,253.7408447,149.1394958,248.7702789,149.1394958z"/>
	<path class="st0" d="M13.3852596,132.3760986v8.4384003c0,3.9764404,3.2235508,7.1999969,7.2000008,7.1999969h247.2059631
		c3.9764709,0,7.2000122-3.2235565,7.2000122-7.1999969v-8.4384003c0-3.9764557-3.2235413-7.2000046-7.2000122-7.2000046H20.5852604
		C16.6088104,125.1760941,13.3852596,128.3996429,13.3852596,132.3760986z"/>
	<path class="st0" d="M39.9649277,109.1625595v8.6368942c0,3.4526901,2.798954,6.2516479,6.2516441,6.2516479h200.5695496
		c3.4526825,0,6.2516479-2.7989578,6.2516479-6.2516479v-8.6368942c0-3.4526901-2.7989655-6.2516479-6.2516479-6.2516479H46.2165718
		C42.7638817,102.9109116,39.9649277,105.7098694,39.9649277,109.1625595z"/>
	<path class="st0" d="M271.5808105,288.1481323h-1.5407715c0.8527832-1.1831055,1.3608398-2.6311035,1.3608398-4.2009277v-8.4384766
		c0-3.9763184-3.2236328-7.1999512-7.2000732-7.1999512H16.994873c-3.9764404,0-7.1999512,3.2236328-7.1999512,7.1999512v8.4384766
		c0,1.5698242,0.5080566,3.0178223,1.3607178,4.2009277H9.6149902C4.3046875,288.1481323,0,292.4528198,0,297.7631226v18.6604004
		c0,5.3100586,4.3046875,9.6149902,9.6149902,9.6149902h261.9658203c5.3100586,0,9.6147461-4.3049316,9.6147461-9.6149902
		v-18.6604004C281.1955566,292.4528198,276.8908691,288.1481323,271.5808105,288.1481323z"/>
	<path class="st0" d="M144.2907715,17.4688721c-36.6171875,0-66.4072266,29.7900391-66.4072266,66.4072266
		c0,1.8056641,1.4638672,3.2695312,3.2695312,3.2695312h126.2744141c1.8056641,0,3.2695312-1.4638672,3.2695312-3.2695312
		C210.6970215,47.2589111,180.9069824,17.4688721,144.2907715,17.4688721z"/>
	<g>
		<path class="st1" d="M189.2966309,116.0499268c-1.9326172,0-3.5,1.5673828-3.5,3.5s1.5673828,3.5,3.5,3.5h5
			c1.9326172,0,3.5-1.5673828,3.5-3.5s-1.5673828-3.5-3.5-3.5H189.2966309z"/>
		<path class="st1" d="M189.4763184,313.538208h-4.5371094c-1.9326172,0-3.5,1.5673828-3.5,3.5s1.5673828,3.5,3.5,3.5h4.5371094
			c1.9326172,0,3.5-1.5673828,3.5-3.5S191.4089355,313.538208,189.4763184,313.538208z"/>
		<path class="st1" d="M221.2399902,313.538208h-14.5205078c-1.9326172,0-3.5,1.5673828-3.5,3.5s1.5673828,3.5,3.5,3.5h14.5205078
			c1.9326172,0,3.5-1.5673828,3.5-3.5S223.1726074,313.538208,221.2399902,313.538208z"/>
		<path class="st1" d="M106.619873,213.2130127c1.9326172,0,3.5-1.5673828,3.5-3.5v-5c0-1.9326172-1.5673828-3.5-3.5-3.5
			s-3.5,1.5673828-3.5,3.5v5C103.119873,211.6456299,104.6872559,213.2130127,106.619873,213.2130127z"/>
		<path class="st1" d="M85.9450684,99.5284424h14.4199219h30.2363281h14.8847656h3.9179688h17.2353516h44.65625h14.8857422
			h3.9169922h17.2353516h9.6757812c1.1875,0,2.5107422,1.5195312,2.5107422,3.7001953v8.4384766c0,1.9326172,1.5673828,3.5,3.5,3.5
			s3.5-1.5673828,3.5-3.5v-8.4384766c0-5.9003906-4.2666016-10.7001953-9.5107422-10.7001953h-9.6757812h-17.2353516h-3.9169922
			h-14.8857422h-44.65625h-17.2353516h-3.9179688h-14.8847656h-30.2363281H85.9450684c-1.9326172,0-3.5,1.5673828-3.5,3.5
			S84.0124512,99.5284424,85.9450684,99.5284424z"/>
		<path class="st1" d="M64.791748,99.5284424h3.9169922c1.9326172,0,3.5-1.5673828,3.5-3.5s-1.5673828-3.5-3.5-3.5H64.791748
			c-1.9326172,0-3.5,1.5673828-3.5,3.5S62.8591309,99.5284424,64.791748,99.5284424z"/>
		<path class="st1" d="M288.1403809,276.1343994c-0.0507812-0.0158691-0.0957031-0.0415039-0.1474609-0.0551758
			c-0.090332-0.0236816-0.184082-0.0317383-0.2744141-0.0535889c-0.171875-0.0413818-0.340332-0.0889893-0.5146484-0.1234131
			c0.4897461-1.2250977,0.7666016-2.5571289,0.7666016-3.954834v-8.4384766c0-5.9003906-4.7998047-10.7001953-10.6992188-10.7001953
			h-4.7441406c0.0791016-0.161499,0.1542969-0.324707,0.2270508-0.4897461
			c0.0449219-0.1027832,0.0883789-0.2058105,0.1308594-0.3098145c0.105957-0.2612305,0.2026367-0.526123,0.2915039-0.7946777
			c0.0283203-0.0854492,0.0600586-0.1687012,0.0864258-0.2548828c0.1040039-0.3400879,0.1923828-0.6859131,0.2670898-1.0360107
			c0.0229492-0.1063232,0.0400391-0.2142334,0.0595703-0.3216553c0.0507812-0.2697754,0.0927734-0.5415039,0.125-0.81604
			c0.0136719-0.1143799,0.027832-0.2281494,0.0380859-0.3433838c0.0341797-0.3753662,0.0576172-0.7529297,0.0576172-1.1347656
			v-46.5839844v-22v-5v-19v-3.3339844c0-1.9755859-0.4731445-3.8383789-1.2924805-5.5009766h4.753418
			c5.8994141,0,10.6992188-4.7998047,10.6992188-10.7001953v-5.7275391v-2.7109375
			c0-5.9003906-4.7998047-10.7001953-10.6992188-10.7001953c-0.7392578,0-1.4223633,0.2319336-1.9873047,0.6230469
			c-0.5649414-0.3911133-1.2480469-0.6230469-1.9873047-0.6230469h-57c-1.9326172,0-3.5,1.5673828-3.5,3.5s1.5673828,3.5,3.5,3.5h57
			c0.7392578,0,1.4223633-0.2319336,1.9873047-0.6230469c0.5649414,0.3911133,1.2480469,0.6230469,1.9873047,0.6230469
			c2.0400391,0,3.6992188,1.6601562,3.6992188,3.7001953v2.7109375v5.7275391c0,2.0400391-1.6591797,3.7001953-3.6992188,3.7001953
			h-12.9589844h-19h-5h-22h-57h-18h-30h-19h-5h-22H30.0651855c-2.0400391,0-3.7001953-1.6601562-3.7001953-3.7001953v-8.4384766
			c0-2.0400391,1.6601562-3.7001953,3.7001953-3.7001953h8.2314453h5h22h57h18h21.9589844h8.0410156
			c1.9326172,0,3.5-1.5673828,3.5-3.5s-1.5673828-3.5-3.5-3.5h-8.0410156h-21.9589844h-18h-57H52.6765137
			c-0.5791016-0.4241943-1.2871094-0.6826172-2.0595703-0.6826172c-1.1884766,0-2.5117188-1.5195312-2.5117188-3.7001953v-8.4384766
			c0-0.2675781,0.0209961-0.5246582,0.0581055-0.770752c0.0087891-0.0592041,0.0263672-0.1116943,0.0371094-0.1695557
			c0.034668-0.1837158,0.0717773-0.3657227,0.125-0.5349121c0.0170898-0.055542,0.0410156-0.104248,0.0600586-0.1580811
			c0.0576172-0.1621094,0.1176758-0.3217773,0.1899414-0.4677734c0.0229492-0.0469971,0.0507812-0.0875244,0.0751953-0.1326904
			c0.0771484-0.1419678,0.1572266-0.2799072,0.2460938-0.4035645c0.0273438-0.0380859,0.0576172-0.0704346,0.0859375-0.1066895
			c0.0927734-0.1185303,0.1884766-0.2312012,0.2900391-0.3292236c0.0307617-0.0300293,0.0634766-0.0551758,0.0952148-0.0831299
			c0.1025391-0.0904541,0.2070312-0.1730957,0.3154297-0.2418213c0.0366211-0.0231934,0.0732422-0.0419922,0.1103516-0.0626221
			c0.1025391-0.057251,0.206543-0.1051025,0.3115234-0.1414795c0.0488281-0.0166016,0.097168-0.029541,0.1459961-0.0412598
			c0.1220703-0.0305176,0.2446289-0.0566406,0.3657227-0.0566406c1.9326172,0,3.5-1.5673828,3.5-3.5s-1.5673828-3.5-3.5-3.5
			c-0.3798828,0-0.7529297,0.0322266-1.1210938,0.0811768c-0.0234375,0.0028076-0.0463867-0.0006104-0.0703125,0.0028076
			c-0.1474609,0.0206299-0.2900391,0.0561523-0.4355469,0.0842285c-0.1171875,0.0228271-0.2353516,0.0402832-0.3515625,0.0679932
			c-0.2426758,0.0576172-0.4799805,0.1295166-0.7148438,0.2073975c-0.0493164,0.0163574-0.0996094,0.027832-0.1484375,0.0450439
			c-1.1811523,0.4144287-2.2558594,1.081665-3.184082,1.9400635c-0.0292969,0.0270996-0.0571289,0.0565186-0.0859375,0.0839844
			c-0.1953125,0.1849365-0.3842773,0.376709-0.5654297,0.578125c-0.0483398,0.0534668-0.0932617,0.1098633-0.140625,0.1643066
			c-0.1552734,0.1804199-0.3061523,0.3648682-0.4501953,0.5570068c-0.0581055,0.0777588-0.1137695,0.1577148-0.1699219,0.2371826
			c-0.1240234,0.1755371-0.2441406,0.354248-0.3579102,0.5383301c-0.0620117,0.0997314-0.121582,0.2009277-0.1806641,0.3029785
			c-0.0986328,0.171875-0.1933594,0.3465576-0.2836914,0.5249023c-0.0600586,0.1181641-0.1186523,0.2370605-0.1748047,0.3581543
			c-0.0786133,0.1704102-0.1518555,0.3438721-0.2226562,0.5194092c-0.0537109,0.1330566-0.1069336,0.2657471-0.15625,0.4016113
			c-0.0625,0.1737061-0.1176758,0.3509521-0.1723633,0.5288086c-0.043457,0.1414795-0.0878906,0.2816162-0.1264648,0.4256592
			c-0.0488281,0.1855469-0.0888672,0.375-0.1289062,0.5644531c-0.0302734,0.140625-0.0634766,0.279541-0.0883789,0.4222412
			c-0.0375977,0.2147217-0.0629883,0.4334717-0.0888672,0.6520996c-0.0146484,0.1221924-0.0351562,0.2421875-0.0458984,0.3657227
			c-0.0297852,0.3448486-0.046875,0.6937256-0.046875,1.0465088v8.4384766c0,1.5625,0.3061523,3.043335,0.84375,4.3828125
			h-3.6523438h-8.2314453c-5.5981445,0-10.1977539,4.322998-10.6547852,9.8051758
			c-0.0029297,0.0289307-0.0131836,0.0552979-0.0151367,0.0844727c-0.0195312,0.2675781-0.0302734,0.5371094-0.0302734,0.8105469
			v8.4384766c0,5.9003906,4.7998047,10.7001953,10.7001953,10.7001953h7.6918945
			c-0.8193359,1.6625977-1.2924805,3.5253906-1.2924805,5.5009766v31.3222656v22v21v19v2.5957031
			c0,1.9755859,0.4731445,3.8383789,1.2924805,5.5009766h-7.6918945c-5.9003906,0-10.7001953,4.7998047-10.7001953,10.7001953
			v8.4384766c0,1.3977051,0.2768555,2.7298584,0.7666016,3.954834c-6.0126953,1.1920166-10.5615234,6.5031738-10.5615234,12.8605957
			v18.6611328c0,7.2314453,5.8837891,13.1142578,13.1152344,13.1142578h17.9580078h19.9658203h4.5371094h17.2431641h14.5205078
			h16.3349609h51.7285156h9.1455078c1.9326172,0,3.5-1.5673828,3.5-3.5s-1.5673828-3.5-3.5-3.5h-9.1455078H113.244873H96.9099121
			H82.3894043H65.1462402h-4.5371094H40.6433105H22.6853027c-3.3720703,0-6.1152344-2.7431641-6.1152344-6.1142578v-18.6611328
			c0-3.3710938,2.7431641-6.1142578,6.1152344-6.1142578h1.2646484H38.470459h16.2617188
			c0.003418,0,0.0063477-0.0009766,0.0097656-0.0009766h0.9609375c0.003418,0,0.0063477,0.0009766,0.0097656,0.0009766h4.5380859
			c0.003418,0,0.0063477-0.0009766,0.0097656-0.0009766h19.9453125c0.003418,0,0.0063477,0.0009766,0.0097656,0.0009766h51.7285156
			c0.003418,0,0.0063477-0.0009766,0.0097656-0.0009766h16.3164062c0.003418,0,0.0063477,0.0009766,0.0097656,0.0009766h14.5195312
			c0.003418,0,0.0063477-0.0009766,0.0097656-0.0009766h17.2236328c0.003418,0,0.0063477,0.0009766,0.0097656,0.0009766h4.5371094
			c0.003418,0,0.0063477-0.0009766,0.0097656-0.0009766h8.7226562c1.9326172,0,3.5-1.5673828,3.5-3.5s-1.5673828-3.5-3.5-3.5h-69
			c-0.003418,0-0.0063477,0.0009766-0.0097656,0.0009766h-21.9804688c-0.003418,0-0.0063477-0.0009766-0.0097656-0.0009766
			H30.0651855c-2.0400391,0-3.7001953-1.6601562-3.7001953-3.7001953v-8.4384766
			c0-2.0400391,1.6601562-3.7001953,3.7001953-3.7001953h35.2314453h23h30h19h69h22h48.9746094
			c2.0400391,0,3.6992188,1.6601562,3.6992188,3.7001953v8.4384766c0,2.0400391-1.6591797,3.7001953-3.6992188,3.7001953
			h-11.9589844c-0.003418,0-0.0063477,0.0009766-0.0097656,0.0009766h-9.0283203h-13.9521484
			c-0.003418,0-0.0063477-0.0009766-0.0097656-0.0009766h-30c-0.003418,0-0.0063477,0.0009766-0.0097656,0.0009766h-0.4921875
			h-7.2646484c-1.9326172,0-3.5,1.5673828-3.5,3.5s1.5673828,3.5,3.5,3.5h7.2646484h44.4638672h16.3349609h12.0419922
			c0.2402344,0,0.4790039,0.0180664,0.7158203,0.0456543c0.0776367,0.0090332,0.1538086,0.0231934,0.230957,0.0354004
			c0.1586914,0.0246582,0.3164062,0.0548096,0.4716797,0.0917969c2.6884766,0.642334,4.6958008,3.0593262,4.6958008,5.9414062
			v4.6132812v4.5380859v9.5097656c0,2.4338379-1.4335938,4.5341797-3.4970703,5.517334
			c-0.1083984,0.0516357-0.2167969,0.1030273-0.3276367,0.1478271c-0.1015625,0.0411377-0.2050781,0.0776367-0.309082,0.1134033
			c-0.109375,0.0374756-0.2192383,0.0720215-0.3300781,0.1030273c-0.1035156,0.0290527-0.2075195,0.0571289-0.3134766,0.0808105
			c-0.1274414,0.0283203-0.2563477,0.0500488-0.3857422,0.0701904c-0.090332,0.0141602-0.1791992,0.03125-0.2705078,0.0413818
			c-0.2246094,0.0246582-0.4511719,0.0402832-0.6806641,0.0402832h-35.7158203h-11.3603516c-1.9326172,0-3.5,1.5673828-3.5,3.5
			s1.5673828,3.5,3.5,3.5h11.3603516h35.7158203c0.5043945,0,1-0.0351562,1.4892578-0.0908203
			c0.1289062-0.0147705,0.2558594-0.0401611,0.3837891-0.0588379c0.3662109-0.0526123,0.7280273-0.1165771,1.0839844-0.1989746
			c0.1503906-0.0349121,0.2988281-0.0754395,0.4477539-0.1154785c0.3276367-0.0881348,0.6489258-0.1881104,0.965332-0.3005371
			c0.1606445-0.0566406,0.3203125-0.1125488,0.4785156-0.175293c0.3061523-0.1224365,0.6035156-0.2597656,0.8979492-0.4040527
			c0.1166992-0.0570068,0.2397461-0.0993652,0.3549805-0.1599121c0.0234375-0.012207,0.0415039-0.0297852,0.0644531-0.0424805
			c4.1303711-2.2104492,6.9482422-6.5646973,6.9482422-11.5678711v-9.5097656v-4.5380859v-4.6132812
			C297.7653809,282.7410889,293.6809082,277.6678467,288.1403809,276.1343994z M266.8103027,151.3897705v3.3339844v19v5v22
			v46.5839844c0,0.2446289-0.0214844,0.4855957-0.0532227,0.723999c-0.0078125,0.0592041-0.0175781,0.1177979-0.0268555,0.1763916
			c-0.0356445,0.2139893-0.0810547,0.4250488-0.1411133,0.6313477c-0.0063477,0.0219727-0.0107422,0.0449219-0.0170898,0.0666504
			c-0.0683594,0.2250977-0.1542969,0.4432373-0.2504883,0.6563721c-0.0239258,0.0533447-0.050293,0.1053467-0.0761719,0.1578369
			c-0.0830078,0.170166-0.175293,0.3354492-0.2753906,0.4960938c-0.027832,0.0439453-0.0522461,0.0900879-0.0810547,0.1331787
			c-0.1206055,0.1811523-0.253418,0.3536377-0.3950195,0.5196533c-0.050293,0.059082-0.1035156,0.1154785-0.1567383,0.1726074
			c-0.1108398,0.1195068-0.2270508,0.2338867-0.3486328,0.3435059c-0.0532227,0.0480957-0.1040039,0.098877-0.159668,0.1450195
			c-0.1640625,0.137207-0.3388672,0.263916-0.5200195,0.3820801c-0.0629883,0.0411377-0.1279297,0.0787354-0.1923828,0.1173096
			c-0.1577148,0.0938721-0.3203125,0.180542-0.4887695,0.2591553c-0.7055664,0.3293457-1.4887695,0.5187988-2.3173828,0.5187988
			h-11.5351562c-0.5981445,0-1.1728516-0.0991211-1.7128906-0.2766113c-0.2163086-0.0708008-0.4228516-0.1577148-0.625-0.2521973
			c-0.0761719-0.0358887-0.1533203-0.0703125-0.2270508-0.1094971c-0.1884766-0.0987549-0.3686523-0.2091064-0.5419922-0.3273926
			c-0.0981445-0.0675049-0.1923828-0.1403809-0.2861328-0.2139893c-0.0908203-0.0712891-0.1777344-0.1464844-0.2636719-0.2230225
			c-0.1523438-0.1361084-0.296875-0.2803955-0.4331055-0.4324951c-0.0698242-0.0780029-0.1396484-0.1558838-0.2050781-0.237793
			c-0.081543-0.1018066-0.1601562-0.2059326-0.234375-0.3134766c-0.1098633-0.1600342-0.2143555-0.3236084-0.3066406-0.494873
			c-0.0478516-0.0883789-0.0883789-0.1816406-0.1313477-0.2730713c-0.0693359-0.1473389-0.1333008-0.2972412-0.1894531-0.4509277
			c-0.0273438-0.0743408-0.0576172-0.1470947-0.081543-0.2229004c-0.0717773-0.2264404-0.1279297-0.4591064-0.1699219-0.6962891
			c-0.0112305-0.0631104-0.0200195-0.1270752-0.0292969-0.1907959c-0.0366211-0.2575684-0.0625-0.5183105-0.0625-0.784668
			v-18.5957031v-19v-5v-22v-31.3222656c0-2.6531982,1.8886719-4.8742676,4.3925781-5.3880615
			c0.3579102-0.0733643,0.7285156-0.1119385,1.1074219-0.1119385h11.5351562c0.3789062,0,0.7495117,0.0385742,1.1074219,0.1119385
			C264.9216309,146.5155029,266.8103027,148.7365723,266.8103027,151.3897705z M200.1540527,153.4630127v26.9648438v17.0771484
			v4.4941406v19.7734375v25.5351562c0,3.0322266-2.4677734,5.5-5.5,5.5h-11.5351562c-3.0332031,0-5.5-2.4667969-5.5-5.5v-2.0546875
			v-26.9638672v-17.0771484v-4.4941406v-19.7744141v-25.5537109c0-3.0322266,2.4677734-5.5,5.5-5.5h11.5351562
			c3.0332031,0,5.5,2.4667969,5.5,5.5V153.4630127z M161.3122559,145.8887939h10.5991211
			c-0.8193359,1.6625977-1.2924805,3.5253906-1.2924805,5.5009766v25.5537109v19.7744141v4.4941406v17.0771484v26.9638672v2.0546875
			c0,1.9755859,0.4731445,3.8383789,1.2924805,5.5009766h-33.5297852c0.1010742-0.208252,0.1962891-0.4197998,0.2861328-0.6348877
			c0.0024414-0.0061035,0.0048828-0.0123291,0.0073242-0.0184326c0.1381836-0.331543,0.2626953-0.6702881,0.3730469-1.0168457
			c0.0332031-0.1032715,0.0625-0.2077637,0.0932617-0.3122559c0.0737305-0.2542725,0.140625-0.5112305,0.1992188-0.7727051
			c0.0356445-0.1580811,0.0673828-0.3171387,0.097168-0.477417c0.019043-0.105957,0.0473633-0.208374,0.0639648-0.3153076
			c0.0087891-0.0551758,0.0029297-0.1085205,0.0092773-0.1633301c0.0844727-0.5861816,0.1430664-1.1806641,0.1430664-1.7897949
			v-20.5849609v-5v-19v-51.3330078c0-0.3920898-0.0234375-0.7805176-0.059082-1.166626
			c-0.0097656-0.1070557-0.0249023-0.2122803-0.0375977-0.3186035c-0.0341797-0.2904053-0.078125-0.5782471-0.1323242-0.8640137
			c-0.019043-0.0987549-0.0375977-0.1973877-0.0585938-0.2955322c-0.0712891-0.331543-0.1552734-0.6594238-0.253418-0.9831543
			c-0.0112305-0.036377-0.0195312-0.0737305-0.03125-0.1098633c-0.1889648-0.6043701-0.4257812-1.1928711-0.706543-1.7631836
			h4.9370117H161.3122559z M61.4870605,252.7142334c-0.3222656,0.0585938-0.6533203,0.0935059-0.9873047,0.0935059H48.9645996
			c-3.0332031,0-5.5-2.4667969-5.5-5.5v-2.5957031v-19v-21v-22v-31.3222656c0-3.0332031,2.4667969-5.5,5.5-5.5h11.5351562
			c0.9956055,0,1.9277344,0.2698975,2.734375,0.734375c0.1445312,0.083252,0.2851562,0.1721191,0.4199219,0.2669678
			c0.0751953,0.0526123,0.1474609,0.1080322,0.2197266,0.1641846c0.1049805,0.0817871,0.2055664,0.1677246,0.3037109,0.2563477
			c0.0634766,0.0576172,0.1298828,0.112793,0.1904297,0.1733398c0.140625,0.1391602,0.2729492,0.2854004,0.3969727,0.4379883
			c0.050293,0.0621338,0.0961914,0.1282959,0.144043,0.192627c0.0844727,0.1137695,0.1655273,0.2299805,0.2407227,0.3497314
			c0.0419922,0.0665283,0.0834961,0.1331787,0.1225586,0.2015381c0.0922852,0.1617432,0.1777344,0.3273926,0.253418,0.4978027
			c0.0112305,0.0255127,0.0249023,0.0494385,0.0361328,0.0750732c0.0849609,0.2005615,0.1557617,0.4075928,0.2167969,0.6179199
			c0.0161133,0.0563965,0.0292969,0.1141357,0.0439453,0.1712646c0.0419922,0.1643066,0.0761719,0.3308105,0.1030273,0.4995117
			c0.0097656,0.0615234,0.0205078,0.1228027,0.0283203,0.1849365c0.0273438,0.2230225,0.0458984,0.4481201,0.0458984,0.6763916
			v11.3349609v22v57v5.5830078C65.9997559,250.003418,64.0495605,252.2471924,61.4870605,252.7142334z M71.7072754,252.8087158
			c0.8193359-1.6625977,1.2924805-3.5253906,1.2924805-5.5009766v-5.5830078v-57v-22v-11.3349609
			c0-0.3796387-0.0234375-0.755127-0.0571289-1.1286621c-0.0092773-0.0998535-0.019043-0.1990967-0.0307617-0.2983398
			c-0.0395508-0.3450928-0.0893555-0.6877441-0.1567383-1.0256348c-0.0053711-0.0270996-0.0087891-0.0549316-0.0146484-0.0820312
			c-0.0727539-0.3527832-0.1660156-0.6990967-0.2685547-1.0422363c-0.0283203-0.09375-0.0576172-0.1867676-0.0878906-0.2796631
			c-0.1054688-0.3256836-0.2211914-0.647583-0.3525391-0.9622803c-0.0073242-0.0170898-0.0131836-0.0349121-0.0200195-0.052002
			c-0.090332-0.2132568-0.1894531-0.4223633-0.2915039-0.630127h17.5922852h5h10.1000977
			c-0.8193359,1.6625977-1.2924805,3.5253906-1.2924805,5.5009766v31.3232422c0,1.9326172,1.5673828,3.5,3.5,3.5
			s3.5-1.5673828,3.5-3.5v-31.3232422c0-3.0332031,2.4667969-5.5,5.5-5.5h11.5341797
			c1.8588867,0,3.5019531,0.9290771,4.4980469,2.3448486c0.1347656,0.1914062,0.2573242,0.3890381,0.3652344,0.5933838
			c0.0327148,0.0621338,0.0615234,0.1268311,0.0917969,0.1903076c0.0869141,0.1807861,0.1640625,0.3656006,0.2299805,0.5543213
			c0.0185547,0.0522461,0.0405273,0.1027832,0.0571289,0.1555176c0.0727539,0.2297363,0.1269531,0.465332,0.1689453,0.7041016
			c0.0112305,0.0635986,0.0200195,0.1279297,0.0292969,0.1922607c0.034668,0.2520752,0.0595703,0.5065918,0.0595703,0.7652588
			v51.3330078v19v5v20.5849609c0,0.3244629-0.0336914,0.640625-0.0878906,0.949707
			c-0.0478516,0.2763672-0.1157227,0.5456543-0.2041016,0.8056641c-0.0170898,0.0507812-0.0366211,0.1005859-0.0556641,0.1506348
			c-0.1010742,0.2709961-0.2177734,0.5344238-0.359375,0.782959c-0.0078125,0.0141602-0.0170898,0.0275879-0.0253906,0.041748
			c-0.6386719,1.1015625-1.6479492,1.9613037-2.840332,2.4141846c-0.0043945,0.0014648-0.0083008,0.0029297-0.012207,0.0045166
			c-0.2924805,0.1101074-0.5961914,0.1948242-0.9077148,0.2539062c-0.0214844,0.0039062-0.043457,0.0062256-0.0649414,0.0100098
			c-0.3076172,0.0544434-0.6220703,0.0866699-0.9423828,0.0866699H115.619873c-3.0332031,0-5.5-2.4667969-5.5-5.5v-18.5947266
			c0-1.9326172-1.5673828-3.5-3.5-3.5s-3.5,1.5673828-3.5,3.5v18.5947266c0,1.9755859,0.4731445,3.8383789,1.2924805,5.5009766
			H88.2966309H71.7072754z M206.2966309,252.8087158h-0.4350586c0.8193359-1.6625977,1.2924805-3.5253906,1.2924805-5.5009766
			V221.772583v-19.7734375v-4.4941406v-17.0771484v-26.9648438v-2.0732422c0-1.9755859-0.4731445-3.8383789-1.2924805-5.5009766
			h12.4506836h20.2553711c-0.8193359,1.6625977-1.2924805,3.5253906-1.2924805,5.5009766v31.3222656v22v5v19v18.5957031
			c0,0.3969727,0.0234375,0.7888184,0.0595703,1.1774902c0.0097656,0.1046143,0.0253906,0.2072754,0.0375977,0.3110352
			c0.0351562,0.2980957,0.0795898,0.5932617,0.1352539,0.8852539c0.0175781,0.0900879,0.0351562,0.1796875,0.0546875,0.269043
			c0.0751953,0.352417,0.1640625,0.6998291,0.2685547,1.0413818c0.0039062,0.0129395,0.0068359,0.0262451,0.0112305,0.0391846
			c0.1894531,0.6132812,0.425293,1.206665,0.7041016,1.7775879h-10.2495117H206.2966309z"/>
		<path class="st1" d="M86.5876465,69.5303955c0.2177734,0.0410156,0.4335938,0.0605469,0.6474609,0.0605469
			c1.6513672,0,3.1210938-1.1748047,3.4365234-2.8574219c1.7617188-9.4111328,5.5283203-18.1201172,11.1962891-25.8837891
			c1.1396484-1.5615234,0.7978516-3.7509766-0.7636719-4.890625c-1.5595703-1.1386719-3.75-0.7958984-4.890625,0.7636719
			c-6.2880859,8.6132812-10.4677734,18.2773438-12.4228516,28.7236328
			C83.4353027,67.3458252,84.6872559,69.1749268,86.5876465,69.5303955z"/>
		<path class="st1" d="M92.4880371,75.100708c-1.9326172,0-3.5,1.5673828-3.5,3.5s1.5673828,3.5,3.5,3.5h5
			c1.9326172,0,3.5-1.5673828,3.5-3.5s-1.5673828-3.5-3.5-3.5H92.4880371z"/>
		<path class="st1" d="M113.6296387,28.5489502c11.4667969-9.1855469,25.3085938-14.0410156,40.0341797-14.0410156
			c0.0009766,0,0.0029297,0,0.0039062,0c18.2548828,0,35.6962891,7.8203125,47.8525391,21.4550781
			c0.0380859,0.0424805,0.0844727,0.0717773,0.1240234,0.1120605c4.5854492,5.1662598,8.2983398,11.0324707,10.9980469,17.3762207
			c0.0043945,0.0114746,0.0058594,0.0235596,0.0107422,0.0351562c0.3041992,0.713623,0.5966797,1.4384766,0.8769531,2.1690674
			c0.0092773,0.0236816,0.0175781,0.0474854,0.0268555,0.071167c0.2504883,0.6556396,0.4882812,1.3162842,0.7163086,1.9775391
			c1.9038086,5.5407715,3.0581055,11.3850098,3.3828125,17.3964844h-23.1679688c-1.9326172,0-3.5,1.5673828-3.5,3.5
			s1.5673828,3.5,3.5,3.5h26.7714844c1.9326172,0,3.5-1.5673828,3.5-3.5c0-1.0115967-0.0283203-2.0183105-0.0703125-3.0224609
			c-0.0053711-0.1223145-0.0029297-0.2451172-0.0087891-0.3671875c-0.0019531-0.0375977-0.0131836-0.0721436-0.0161133-0.109375
			c-0.3261719-6.7119141-1.5859375-13.2385254-3.6865234-19.4272461c-0.003418-0.0102539-0.0039062-0.0205078-0.0073242-0.0307617
			c-0.0146484-0.0423584-0.03125-0.0842285-0.0458984-0.1265869c-5.7973633-16.949707-17.8911133-31.3410645-34.3505859-39.9505615
			c-0.0869141-0.0454102-0.1787109-0.0695801-0.2675781-0.1071777c-8.2446289-4.2607422-17.3017578-6.8820801-26.6616211-7.6745605
			V3.0601807C159.6447754,1.3699951,158.2746582,0,156.5847168,0h-5.8334961c-1.6899414,0-3.0600586,1.3699951-3.0600586,3.0601807
			v4.7023926c-13.9912109,1.1888428-27.4555664,6.524292-38.4384766,15.3234863
			c-1.5087891,1.2080078-1.7519531,3.4111328-0.5429688,4.9199219
			C109.9187012,29.5137939,112.1208496,29.7579346,113.6296387,28.5489502z"/>
		<path class="st1" d="M111.0759277,82.100708h8.4121094h27.1484375h29.8515625c1.9326172,0,3.5-1.5673828,3.5-3.5
			s-1.5673828-3.5-3.5-3.5h-29.8515625h-27.1484375h-8.4121094c-1.9326172,0-3.5,1.5673828-3.5,3.5
			S109.1433105,82.100708,111.0759277,82.100708z"/>
		<path class="st1" d="M200.6589355,52.9112549c0.4599609,0,0.9003906-0.0898438,1.3203125-0.2607422
			c0.8701172-0.3496094,1.5498047-1.0195312,1.9101562-1.8798828c0.359375-0.859375,0.3701172-1.8095703,0.0195312-2.6699219
			c0-0.0097656,0-0.0097656-0.0097656-0.0097656c-0.2802734-0.7001953-0.6201172-1.4296875-1.0097656-2.1503906
			c-0.6103516-1.1298828-1.7900391-1.8398438-3.0800781-1.8398438c-0.5800781,0-1.1503906,0.140625-1.6601562,0.4199219
			c-0.8203125,0.4404297-1.4199219,1.1806641-1.6904297,2.0703125c-0.2695312,0.9003906-0.1796875,1.8496094,0.2705078,2.6699219
			c0.2695312,0.5,0.5,1,0.6894531,1.4697266C197.9587402,52.0509033,199.229248,52.9112549,200.6589355,52.9112549z"/>
		<path class="st1" d="M188.0095215,31.741333c-0.2304688-0.2705078-0.5-0.5-0.8105469-0.6806641
			c-5.2099609-3.1494141-11.2802734-5.9101562-16.6699219-7.5800781c-0.3398438-0.0996094-0.6904297-0.1591797-1.0400391-0.1591797
			c-1.5400391,0-2.8798828,0.9892578-3.3398438,2.4697266c-0.2705078,0.8896484-0.1904297,1.8398438,0.25,2.6699219
			c0.4394531,0.8203125,1.1699219,1.4296875,2.0595703,1.7099609c4.7900391,1.4697266,10.4404297,4.0400391,15.1201172,6.8798828
			c0.2802734,0.1601562,0.5800781,0.2900391,0.8798828,0.3798828c0.2099609,0.2304688,0.4599609,0.4501953,0.7304688,0.6201172
			c0.5703125,0.3701172,1.2197266,0.5605469,1.8994141,0.5605469c1.1904297,0,2.2900391-0.6005859,2.9404297-1.6005859
			c1.0498047-1.6201172,0.5800781-3.7900391-1.0400391-4.8398438
			C188.689209,31.9805908,188.3591309,31.8311768,188.0095215,31.741333z"/>
	</g>
</g>
</svg>
