<?xml version="1.0" encoding="utf-8"?>
<!-- Generator: Adobe Illustrator 23.0.2, SVG Export Plug-In . SVG Version: 6.00 Build 0)  -->
<svg version="1.1" id="Layer_1" xmlns="http://www.w3.org/2000/svg" xmlns:xlink="http://www.w3.org/1999/xlink" x="0px" y="0px"
	 viewBox="0 0 145.6958008 87" style="enable-background:new 0 0 145.6958008 87;" xml:space="preserve">
<style type="text/css">
	.st0{fill:#09811F;}
</style>
<g>
	<g>
		<path class="st0" d="M138.1958008,15H7.5C3.3579102,15,0,11.6425781,0,7.5S3.3579102,0,7.5,0h130.6958008
			c4.1420898,0,7.5,3.3574219,7.5,7.5S142.3378906,15,138.1958008,15z"/>
	</g>
	<g>
		<path class="st0" d="M116.2827148,51.390625H29.4130859c-4.1420898,0-7.5-3.3574219-7.5-7.5s3.3579102-7.5,7.5-7.5h86.8696289
			c4.1420898,0,7.5,3.3574219,7.5,7.5S120.4248047,51.390625,116.2827148,51.390625z"/>
	</g>
	<g>
		<path class="st0" d="M86.0090332,87H58.3696289c-4.1420898,0-7.5-3.3574219-7.5-7.5s3.3579102-7.5,7.5-7.5h27.6394043
			c4.1420898,0,7.5,3.3574219,7.5,7.5S90.151123,87,86.0090332,87z"/>
	</g>
</g>
</svg>
