<?xml version="1.0" encoding="utf-8"?>
<!-- Generator: Adobe Illustrator 23.0.2, SVG Export Plug-In . SVG Version: 6.00 Build 0)  -->
<svg version="1.1" id="Layer_1" xmlns="http://www.w3.org/2000/svg" xmlns:xlink="http://www.w3.org/1999/xlink" x="0px" y="0px"
	 viewBox="0 0 218.2494049 221.0327759" style="enable-background:new 0 0 218.2494049 221.0327759;" xml:space="preserve">
<style type="text/css">
	.st0{opacity:0.25;fill:#1B459B;}
	.st1{fill:none;stroke:#1B459B;stroke-width:15;stroke-linecap:round;stroke-linejoin:round;stroke-miterlimit:10;}
	.st2{fill:#1B459B;}
</style>
<g>
	<path class="st0" d="M188.1108856,48.3206825c-40.1847534-39.5102539-105.3369827-39.5102539-145.5217285,0
		c-40.1847534,39.5105019-40.1847534,103.5690918,0,143.0795898c40.1847534,39.5100098,105.3369827,39.5100098,145.5217285,0
		C228.295578,151.8897705,228.295578,87.8311844,188.1108856,48.3206825z M143.0603485,147.1055908
		c-15.3040237,15.0471191-40.1167068,15.0471191-55.4206619,0c-15.3040161-15.0471191-15.3040161-39.4433517,0-54.4904709
		c15.3039551-15.0471191,40.1166382-15.0471191,55.4206619,0
		C158.3643036,107.6622391,158.3643036,132.0584717,143.0603485,147.1055908z"/>
	<circle class="st1" cx="105.4179611" cy="105.4179916" r="37.3100243"/>
	<path class="st2" d="M200.2895508,151.4946289c19.0463867-39.305542,12.2856445-88.0727539-20.2944336-120.6538086
		c-41.1230469-41.1210938-108.03125-41.1210938-149.1542969,0c-41.1210938,41.1220703-41.1210938,108.0322266,0,149.1542969
		c20.5615234,20.5605469,47.5693359,30.8408203,74.5771484,30.8408203c15.7890625,0,31.5756836-3.5197754,46.0766602-10.5466309
		l0.3666992,0.7841797l1.9345703-1.9346924c9.4404297-4.8649902,18.2973633-11.2420654,26.1992188-19.1436768
		c7.9018555-7.9020996,14.2788086-16.758667,19.144043-26.1992188l1.9345703-1.9345703L200.2895508,151.4946289z
		 M145.3232422,125.7880859c6.0097656-11.7944336,6.4604492-25.7075195,1.3554688-37.8217773l41.362793-19.3447266
		c10.8061523,24.3391113,10.3510742,52.4902344-1.3603516,76.5087891L145.3232422,125.7880859z M24.8212891,146.4799805
		c-12.5908203-24.7575684-13.0776367-54.1358643-1.4248047-79.2380371l41.3457031,19.3365479
		c-2.7041016,5.8284912-4.1347656,12.2232666-4.1347656,18.8394775c0,7.7209473,1.9501953,15.1386719,5.5991211,21.7069092
		L24.8212891,146.4799805z M84.3388672,126.4960938c-5.6298828-5.6298828-8.7314453-13.1162109-8.7314453-21.078125
		s3.1015625-15.4482422,8.7324219-21.078125c5.8105469-5.8115234,13.4443359-8.7177734,21.078125-8.7177734
		s15.2675781,2.90625,21.078125,8.7177734c11.6230469,11.6220703,11.6230469,30.5341797,0,42.15625v0.0009766
		c-5.6298828,5.6298828-13.1162109,8.7314453-21.078125,8.7314453S89.9697266,132.1269531,84.3388672,126.4960938z
		 M146.4799805,24.8209229l-19.362793,41.4017334c-12.512207-6.9199219-27.6518555-7.4162598-40.5322266-1.4664307
		L67.2416992,23.3964844c12.065918-5.6010742,25.1206055-8.4033203,38.1762695-8.4033203
		C119.5239258,14.9931641,133.6225586,18.2822266,146.4799805,24.8209229z M68.621582,188.041748l19.3330078-41.3377686
		c5.453125,2.3076172,11.3637695,3.5245361,17.4633789,3.5245361c7.2041016,0,14.1435547-1.6999512,20.3769531-4.8903809
		l19.3354492,41.3430176C121.1123047,198.3924561,92.9604492,198.8474121,68.621582,188.041748z"/>
</g>
</svg>
