<?xml version="1.0" encoding="utf-8"?>
<!-- Svg Vector Icons : http://www.onlinewebfonts.com/icon -->
<!DOCTYPE svg PUBLIC "-//W3C//DTD SVG 1.1//EN" "http://www.w3.org/Graphics/SVG/1.1/DTD/svg11.dtd">
<svg version="1.1" xmlns="http://www.w3.org/2000/svg" xmlns:xlink="http://www.w3.org/1999/xlink" x="0px" y="0px" viewBox="0 0 1000 1000" enable-background="new 0 0 1000 1000" xml:space="preserve">
<metadata> Svg Vector Icons : http://www.onlinewebfonts.com/icon </metadata>
<g><path d="M190.2,511.6c0-22.9-8.6-43.8-22.7-59.7l150.8-147.8c16.2,15.8,38.3,25.5,62.7,25.5c21.5,0,41.3-7.6,56.8-20.2l113.6,138.9C543,462,538,478.2,538,495.5c0,49.7,40.4,90.1,90.1,90.1c49.7,0,90.1-40.4,90.1-90.1c0-18.5-5.6-35.7-15.2-50l157.6-174.2c9.8,3.7,20.5,5.7,31.6,5.7c49.7,0,90.1-40.4,90.1-90.1c0-49.7-40.4-90.1-90.1-90.1c-49.7,0-90.1,40.4-90.1,90.1c0,25.6,10.7,48.7,27.9,65.1L677.6,420.3c-14.2-9.4-31.2-14.9-49.5-14.9c-19.4,0-37.3,6.2-52,16.6L460.9,281.2c6.5-12.5,10.3-26.6,10.3-41.7c0-49.7-40.4-90.1-90.1-90.1c-49.7,0-90.1,40.4-90.1,90.1c0,12.3,2.5,24,6.9,34.7l-159.2,156c-11.7-5.6-24.8-8.7-38.6-8.7c-49.7,0-90.1,40.4-90.1,90.1c0,49.7,40.4,90.1,90.1,90.1C149.8,601.7,190.2,561.3,190.2,511.6z M892.1,132.5c30,0,54.4,24.4,54.4,54.4s-24.4,54.4-54.4,54.4c-30,0-54.4-24.4-54.4-54.4S862.1,132.5,892.1,132.5z M628.1,441.1c30,0,54.4,24.4,54.4,54.4c0,30-24.4,54.4-54.4,54.4c-30,0-54.4-24.4-54.4-54.4C573.7,465.5,598.1,441.1,628.1,441.1z M381,185.1c30,0,54.4,24.4,54.4,54.4c0,30-24.4,54.4-54.4,54.4c-30,0-54.4-24.4-54.4-54.4C326.6,209.6,351,185.1,381,185.1z M45.7,511.6c0-30,24.4-54.4,54.4-54.4c30,0,54.4,24.4,54.4,54.4c0,30-24.4,54.4-54.4,54.4C70.1,566,45.7,541.6,45.7,511.6z"  fill="#09811F"/><path d="M990,348.8l-93.4-50.4v-3.7c-1.5,0.1-3,0.1-4.5,0.1c-8.9,0-17.6-1.1-25.9-3.2L724.9,447.8c7.1,14.4,11.1,30.6,11.1,47.7c0,59.5-48.4,107.9-107.9,107.9c-59.5,0-107.9-48.4-107.9-107.9c0-16.1,3.6-31.4,9.9-45.2l-95.7-117c-15.7,9-34,14.1-53.3,14.1c-22.9,0-44.2-7.2-61.6-19.4L191.2,453.7c10.7,16.7,16.9,36.6,16.9,57.9c0,59.5-48.4,107.9-107.9,107.9c-1.5,0-3,0-4.5-0.1v283.7h801v-3.9l93.4-50.4L990,348.8z M860.9,867.5H131.3V651.8c64.2-14.3,112.4-71.7,112.4-140.2c0-17.3-3.1-34.4-9.1-50.4l91-89.2c17.4,7.3,36.2,11.1,55.5,11.1c14.5,0,28.9-2.2,42.7-6.5l65.9,80.6c-3.4,12.4-5.2,25.2-5.2,38.3c0,79.2,64.4,143.6,143.6,143.6c79.2,0,143.6-64.4,143.6-143.6c0-13.7-1.9-27.1-5.7-40l94.8-104.8L860.9,867.5L860.9,867.5z M954.3,827.5l-57.7,31.2V339l57.7,31.2V827.5z"  fill="#09811F"/></g>
</svg>