<?xml version="1.0" encoding="utf-8"?>
<!-- Generator: Adobe Illustrator 23.0.3, SVG Export Plug-In . SVG Version: 6.00 Build 0)  -->
<svg version="1.1" id="Layer_1" xmlns="http://www.w3.org/2000/svg" xmlns:xlink="http://www.w3.org/1999/xlink" x="0px" y="0px"
	 viewBox="0 0 276.4338379 300.045105" style="enable-background:new 0 0 276.4338379 300.045105;" xml:space="preserve">
<style type="text/css">
	.st0{opacity:0.25;fill:#1B4899;}
	.st1{fill:#1B459B;}
</style>
<g>
	<path class="st0" d="M264.3441467,161.1295929L146.333374,42.444191
		c-3.3717499-3.3711853-8.0921783-6.0688896-13.4870148-6.0688896L21.5791798,30.3056564
		C10.1152582,29.6314182,0.674426,38.3980141,0,49.188076c0,0.6742363,0,1.3484726,0,2.696949l6.7435055,110.5930328
		c0,4.7204132,2.6973267,9.4408417,6.0690794,12.8127747l117.3364487,118.6846313
		c4.0460815,4.0461731,8.7664948,6.0696411,14.1612549,6.0696411c5.3948364,0,10.7895813-2.023468,14.1613312-6.0696411
		l105.1982117-104.5233765C271.7619019,181.359726,271.7619019,169.2211914,264.3441467,161.1295929z M107.3314362,123.917305
		c-13.1111069,13.1104965-33.5972061,13.1104965-46.7082443,0c-13.1110382-13.1115799-13.1110382-33.5971375,0-46.7087173
		c13.1110382-13.1110382,33.5971375-13.1110382,46.7082443,0
		C120.4424744,90.3201675,120.4424744,111.6255341,107.3314362,123.917305z"/>
	<g>
		<path class="st1" d="M20.9171867,146.0529175c-0.0014648-0.001709-0.0024414-0.0039062-0.0043945-0.0056152
			c-0.0175781-0.0175781-0.0322266-0.036377-0.0498047-0.0539551c-0.4199219-0.4234619-0.8188477-0.864502-1.1977539-1.3188477
			c-0.0917969-0.1099854-0.1738281-0.2231445-0.2631836-0.3342285c-0.3022461-0.3789062-0.59375-0.7644043-0.8647461-1.1599121
			c-1.6953125-2.4675293-2.668457-5.1074219-2.668457-7.4709473c0-0.0712891-0.0019531-0.1425781-0.0068359-0.2128906
			l-3.2553711-53.3876877L12.1208,74.1420364c0-0.0002441,0-0.0004883,0-0.0007324l-2.0419922-33.4841309l-0.1308594-2.1499023
			c0-0.0004883,0-0.0009766,0-0.0014648L9.1247063,25.009222v-2.5908203c0-1.9326172-1.5673828-3.5-3.5-3.5
			s-3.5000002,1.5673828-3.5000002,3.5v2.6972656c0,0.0712891,0.0019531,0.1425781,0.0068359,0.2128906l6.7373047,110.494133
			c0.0327148,4.4213867,1.9272461,9.0974121,5.2695312,13.1586914c0.0219727,0.0263672,0.0429688,0.0531006,0.0644531,0.0794678
			c0.2329102,0.2803955,0.4726562,0.5574951,0.7192383,0.831665c0.0512695,0.0576172,0.1010742,0.1166992,0.1533203,0.1738281
			c0.2587891,0.2834473,0.5253906,0.5632324,0.7988281,0.8391113c0.0249023,0.0253906,0.0483398,0.0522461,0.0737305,0.0773926
			l56.3808556,57.0283203c0.6845703,0.6923828,1.5869141,1.0390625,2.4892578,1.0390625
			c0.8886719,0,1.7783203-0.3369141,2.4609375-1.0107422c1.3740234-1.359375,1.3867188-3.5751953,0.0283203-4.9501953
			L20.9171867,146.0529175z"/>
		<path class="st1" d="M116.7042923,72.044136c-0.5488281-0.37146-1.105957-0.7229004-1.6704102-1.0549316
			c-0.0493164-0.0289307-0.1000977-0.055542-0.1494141-0.0842285c-0.5224609-0.3032227-1.0517578-0.5878906-1.5864258-0.8575439
			c-0.0883789-0.0445557-0.1762695-0.0894775-0.2651367-0.1331787c-11.4345703-5.6298828-25.3945312-3.6347656-35.0302734,6.0002441
			c-0.1958008,0.1958008-0.3793945,0.3983154-0.5693359,0.5976562c-0.0253906,0.0256348-0.0556641,0.0437012-0.0810547,0.0703125
			c-0.0874023,0.0925293-0.168457,0.189209-0.2548828,0.2825928c-0.1474609,0.1602783-0.2924805,0.3220215-0.4365234,0.484375
			c-0.1894531,0.2142334-0.3759766,0.4300537-0.559082,0.6483154c-0.1557617,0.1853027-0.3085938,0.3718262-0.4594727,0.5598145
			c-0.1552734,0.194458-0.3081055,0.390625-0.4589844,0.5881348c-0.1655273,0.217041-0.3291016,0.4348145-0.4882812,0.6549072
			c-0.121582,0.168335-0.2397461,0.338501-0.3579102,0.5089111c-0.175293,0.2526855-0.3481445,0.5062256-0.5151367,0.7625732
			c-0.0893555,0.1374512-0.175293,0.2763672-0.262207,0.414917c-0.1831055,0.2910156-0.3632812,0.5827637-0.5351562,0.8779297
			c-0.0610352,0.1043701-0.1186523,0.2099609-0.1782227,0.3149414c-0.1875,0.3305664-0.3710938,0.6623535-0.5454102,0.9975586
			c-0.0351562,0.0678711-0.0678711,0.1365967-0.1030273,0.2045898c-0.1904297,0.3742676-0.3759766,0.7502441-0.550293,1.1298828
			c-0.0102539,0.0224609-0.0200195,0.045166-0.0297852,0.0675049c-2.6704102,5.8493652-3.3867188,12.3033447-2.1411133,18.4766846
			c0.0244141,0.1221924,0.0551758,0.2427979,0.0810547,0.3647461c0.0761719,0.354126,0.1533203,0.7081299,0.2421875,1.0601807
			c0.0498047,0.1968994,0.1079102,0.3912354,0.1616211,0.5870361c0.0756836,0.2757568,0.1484375,0.5522461,0.2324219,0.826416
			c0.0717773,0.236084,0.1533203,0.4691162,0.230957,0.7033691c0.0776367,0.2338867,0.1518555,0.4686279,0.2353516,0.7011719
			c0.090332,0.2507324,0.1899414,0.4980469,0.2866211,0.746582c0.0830078,0.2137451,0.1625977,0.4284668,0.2509766,0.6408691
			c0.105957,0.2553711,0.2216797,0.5068359,0.3349609,0.7595215c0.0913086,0.203125,0.1782227,0.4072266,0.2739258,0.6088867
			c0.1196289,0.2514648,0.2485352,0.4989014,0.375,0.7473145c0.1015625,0.199585,0.1992188,0.4005127,0.3051758,0.5983887
			c0.1293945,0.2412109,0.2685547,0.4777832,0.4042969,0.7158203c0.1152344,0.2016602,0.2265625,0.4047852,0.3466797,0.6044922
			c0.1381836,0.2293701,0.2856445,0.4538574,0.4301758,0.6801758c0.1293945,0.2028809,0.2543945,0.4074707,0.3886719,0.6079102
			c0.1499023,0.2233887,0.3095703,0.4416504,0.4658203,0.6616211c0.1396484,0.1975098,0.2753906,0.3969727,0.4204102,0.592041
			c0.168457,0.2265625,0.347168,0.4472656,0.5224609,0.6700439c0.1435547,0.1824951,0.2822266,0.3675537,0.4306641,0.5477295
			c0.2041016,0.248291,0.4194336,0.4898682,0.6318359,0.7330322c0.1303711,0.1485596,0.2543945,0.300415,0.3876953,0.4472656
			c0.3515625,0.3875732,0.7138672,0.7683105,1.0869141,1.1414795c0.3730469,0.3729248,0.753418,0.7347412,1.140625,1.0863037
			c0.1538086,0.1392822,0.3120117,0.269043,0.4672852,0.4046631c0.2363281,0.206543,0.4711914,0.4160156,0.7124023,0.614624
			c0.1904297,0.1566162,0.3857422,0.3028564,0.5786133,0.4543457c0.2119141,0.1663818,0.421875,0.336792,0.637207,0.4971924
			c0.2080078,0.1547852,0.4204102,0.2993164,0.6308594,0.447998c0.2070312,0.1464844,0.4121094,0.296875,0.6220703,0.4379883
			c0.2148438,0.144043,0.4335938,0.2780762,0.6503906,0.4160156c0.2119141,0.1346436,0.421875,0.2729492,0.6362305,0.4020996
			c0.2163086,0.1303711,0.4365234,0.2509766,0.6552734,0.3754883c0.2207031,0.1258545,0.4399414,0.2550049,0.6635742,0.375
			c0.2167969,0.1166992,0.4375,0.223877,0.65625,0.3348389c0.2290039,0.1159668,0.456543,0.2351074,0.6879883,0.3450928
			c0.2226562,0.1057129,0.4477539,0.2021484,0.6723633,0.302124c0.2314453,0.1033936,0.4619141,0.2099609,0.6958008,0.307373
			c0.2338867,0.09729,0.4702148,0.1850586,0.7060547,0.2762451c0.2270508,0.0878906,0.4526367,0.1794434,0.6816406,0.2617188
			c0.2553711,0.092041,0.5131836,0.1738281,0.7705078,0.258667c0.2114258,0.0695801,0.4208984,0.1431885,0.6337891,0.2081299
			c0.2993164,0.0914307,0.6010742,0.171875,0.9023438,0.2537842c0.1708984,0.0463867,0.340332,0.0975342,0.512207,0.1407471
			c0.378418,0.0959473,0.7587891,0.1795654,1.1401367,0.260498c0.0952148,0.0201416,0.1899414,0.0443115,0.2856445,0.0635986
			c1.9658203,0.3970871,3.9594727,0.5985031,5.9541016,0.5985031c1.9873047,0,3.9736328-0.199707,5.9326172-0.5939865
			c0.1318359-0.0263672,0.2617188-0.0593262,0.3930664-0.0874023c0.3432617-0.0739746,0.6860352-0.1480713,1.0273438-0.2340088
			c0.2070312-0.052124,0.4116211-0.1130371,0.6171875-0.1694336c0.2651367-0.072876,0.5307617-0.1427002,0.7944336-0.2230225
			c0.2475586-0.0751953,0.4916992-0.1599121,0.7373047-0.2414551c0.2202148-0.0733643,0.4418945-0.1427002,0.6611328-0.2211914
			c0.2666016-0.0955811,0.5292969-0.2009277,0.793457-0.3040771c0.1972656-0.0770264,0.3955078-0.1497803,0.5917969-0.2310791
			c0.2695312-0.1116943,0.534668-0.2332764,0.8012695-0.3529053c0.1884766-0.0845947,0.3779297-0.164917,0.5654297-0.253418
			c0.2631836-0.1246338,0.5219727-0.2591553,0.7822266-0.3914795c0.1875-0.0953369,0.3759766-0.1865234,0.5625-0.2860107
			c0.2524414-0.1351318,0.5-0.2799072,0.7490234-0.4223633c0.1894531-0.1082764,0.3803711-0.2121582,0.5683594-0.3248291
			c0.2407227-0.1445312,0.4765625-0.2988281,0.7138672-0.4501953c0.1914062-0.1218262,0.3842773-0.2392578,0.5737305-0.3657227
			c0.2275391-0.1525879,0.4501953-0.3145752,0.6748047-0.4733887c0.1938477-0.1369629,0.3891602-0.2692871,0.5805664-0.411377
			c0.2158203-0.1601562,0.4262695-0.3300781,0.6386719-0.4963379c0.1933594-0.1516113,0.3896484-0.2980957,0.5805664-0.454834
			c0.2075195-0.1704102,0.4086914-0.3508301,0.612793-0.5270996c0.1899414-0.1638184,0.3823242-0.3222656,0.5693359-0.4914551
			c0.1923828-0.1743164,0.378418-0.3588867,0.5673828-0.5385742c0.1889648-0.1791992,0.3808594-0.3525391,0.5664062-0.5373535
			c0.5957031-0.560791,1.1577148-1.1479492,1.6992188-1.7502441c0.0380859-0.0427246,0.0776367-0.0839844,0.1157227-0.1269531
			c4.6313477-5.2141113,7.221199-11.901123,7.33741-19.1081543c0.1347656-8.3359375-3.1875076-16.5166016-9.1132889-22.4423828
			c-0.9135742-0.9135742-1.8701172-1.75-2.855957-2.5263672c-0.0229492-0.0192871-0.0400391-0.0428467-0.0639648-0.0615234
			c-0.0742188-0.0581055-0.1533203-0.1090088-0.2280273-0.1665039c-0.4277344-0.3286133-0.8603516-0.6450195-1.2998047-0.9482422
			C116.8629837,72.1566849,116.7848587,72.0984573,116.7042923,72.044136z M123.5045853,98.2435989
			c-0.0239258,1.489502-0.1933594,2.9467773-0.4848633,4.3625488c-0.0854492,0.4104004-0.1977539,0.8122559-0.3051758,1.2155762
			c-0.0668945,0.2524414-0.1264648,0.5073242-0.2016602,0.7563477c-0.1367188,0.4492188-0.2954102,0.8897705-0.4589844,1.3278809
			c-0.0712891,0.1923828-0.1401367,0.3857422-0.2167969,0.5756836c-0.1796875,0.4434814-0.3764648,0.8786621-0.5834961,1.3085938
			c-0.0878906,0.1824951-0.1777344,0.3640137-0.2705078,0.5440674c-0.2124023,0.4119873-0.4365234,0.8172607-0.6738281,1.2144775
			c-0.1235352,0.2060547-0.2539062,0.4078369-0.3847656,0.6098633c-0.2280273,0.3554688-0.4604492,0.708252-0.7089844,1.0498047
			c-0.1987305,0.2719727-0.4125977,0.5336914-0.6245117,0.7967529c-0.2084961,0.2607422-0.4111328,0.5262451-0.6318359,0.7773438
			c-0.4555664,0.5151367-0.9301758,1.0161133-1.4370117,1.491333c-0.0273438,0.0263672-0.0546875,0.0527344-0.0810547,0.0791016
			c-8.7993164,8.7956543-22.2705078,9.3505859-31.6572266,1.6589355c-0.0053711-0.0043945-0.0107422-0.0083008-0.0161133-0.0125732
			c-0.6240234-0.5123291-1.2304688-1.0609131-1.815918-1.6463623c-0.5854492-0.5855713-1.1342773-1.1920166-1.6469727-1.8164062
			c-0.003418-0.0046387-0.0073242-0.0095215-0.0112305-0.0142822c-6.1357422-7.4871826-7.0229492-17.5718994-2.6669922-25.8131104
			c0.0888672-0.1669922,0.1923828-0.3269043,0.2851562-0.4921875c0.2744141-0.4902344,0.5571289-0.9772949,0.8691406-1.4525146
			c0.1621094-0.2460938,0.3427734-0.4818115,0.5141602-0.7227783c0.2739258-0.385498,0.5483398-0.7705078,0.8481445-1.144043
			c0.2124023-0.2644043,0.4423828-0.5178223,0.6669922-0.7749023c0.3710938-0.4249268,0.7358398-0.8531494,1.1416016-1.2590332
			c4.6953125-4.6943359,10.71875-7.0410156,16.7451172-7.0410156c3.7392578,0,7.4780273,0.9082031,10.8999023,2.7169189
			c0.0532227,0.0283203,0.105957,0.057373,0.1591797,0.0860596c0.6450195,0.3474121,1.2792969,0.7243652,1.8994141,1.1362305
			c0.015625,0.010376,0.0317383,0.0195312,0.0473633,0.0299072c1.3149414,0.878418,2.5683594,1.9019775,3.7382812,3.0718994
			C121.0338821,85.4574661,123.6081009,91.7924271,123.5045853,98.2435989z"/>
		<path class="st1" d="M12.8952141,11.7260199c0.7890625,0,1.5830078-0.265625,2.2373047-0.8095703
			c3.0332031-2.5253906,6.8808594-3.9160156,10.8339844-3.9160156c0.3417969,0,0.6855469,0.0097656,1.046875,0.03125
			L96.27314,10.8100042c1.9111328,0.0732422,3.5791016-1.3740234,3.6855469-3.3046875
			c0.1044922-1.9296875-1.3740234-3.5800784-3.3046875-3.6855471L27.408886,0.042426
			c-6.1210938-0.3632812-12.0986328,1.6181641-16.7548828,5.4931641c-1.4853516,1.2373047-1.6875,3.4433594-0.4511719,4.9296875
			C10.8952141,11.2963324,11.8913078,11.7260199,12.8952141,11.7260199z"/>
		<path class="st1" d="M100.3151321,226.3617554c-1.359375-1.375-3.5751953-1.3857422-4.9501953-0.0283203
			c-1.3740234,1.359375-1.3867188,3.5751953-0.0283203,4.9501953l5.2294922,5.2890625
			c0.6845703,0.6923828,1.5869141,1.0390625,2.4892578,1.0390625c0.8896484,0,1.7783203-0.3369141,2.4609375-1.0107422
			c1.3740234-1.359375,1.3867188-3.5751953,0.0283203-4.9501953L100.3151321,226.3617554z"/>
		<path class="st1" d="M265.4381714,161.5805054l-5.2763672,5.2431641
			c-1.3701172,1.3623047-1.3769531,3.5791016-0.0146484,4.9492188c0.6835938,0.6884766,1.5830078,1.0332031,2.4824219,1.0332031
			c0.8925781,0,1.7841797-0.3388672,2.4677734-1.0175781l5.2744141-5.2431641
			c1.3710938-1.3623047,1.3779297-3.5791016,0.015625-4.9492188
			C269.026062,160.2240601,266.8092651,160.2182007,265.4381714,161.5805054z"/>
		<path class="st1" d="M275.9996948,136.7914429c-0.9433594-1.7138672-2.1035156-3.3271484-3.4492188-4.7958984
			c-0.0322266-0.0351562-0.0654297-0.0693359-0.0996094-0.1035156l-59.7841644-60.1259689
			c-0.0009766-0.0007324-0.0014648-0.0012207-0.0024414-0.0019531l-23.0693359-23.2012939
			c-0.0009766-0.0008545-0.0014648-0.0019531-0.0024414-0.0028076l-5.2441406-5.2744141
			c-0.0014648-0.0014648-0.0029297-0.0023193-0.0048828-0.0037842l-19.9223633-20.0362568
			c-0.0004883-0.0007324-0.0009766-0.0013428-0.0014648-0.0019531l-8.9609375-9.0119619l-1.0185547-1.0241699
			c0,0,0-0.0001221,0-0.0002441l-0.0068359-0.0065918c-4.5478516-4.5488281-10.1767578-7.0654297-15.8613281-7.0947266
			l-15.1826248-0.828125c-1.9072266-0.0966797-3.5810547,1.375-3.6855469,3.3046875s1.3740234,3.5800781,3.3046875,3.6855469
			l15.2724686,0.8330078c0.0634766,0.0029297,0.1269531,0.0048828,0.1904297,0.0048828
			c5.1923828,0,9.1289062,3.1601553,11.0058594,5.0371084l29.9013672,30.0720234
			c0.0019531,0.0019531,0.0029297,0.0041504,0.0048828,0.0061035l5.2441406,5.2744141
			c0.0024414,0.0024414,0.0053711,0.0039062,0.0078125,0.0063477l58.3964844,58.7298584l24.4033051,24.5430832
			c0.9501953,1.0449219,1.7675781,2.1855469,2.4316406,3.3916016c0.6376953,1.1582031,1.8349609,1.8134766,3.0693359,1.8134766
			c0.5703125,0,1.1494141-0.140625,1.6845703-0.4345703C276.3141479,140.6127319,276.9313354,138.4848022,275.9996948,136.7914429z"
			/>
		<path class="st1" d="M236.9479523,189.8890991l-60.1484375,59.7626953
			c-1.3710938,1.3623047-1.3789062,3.578125-0.015625,4.9492188c0.6835938,0.6884766,1.5830078,1.0332031,2.4824219,1.0332031
			c0.8916016,0,1.7841797-0.3388672,2.4667969-1.0175781l60.1484375-59.7626953
			c1.3710938-1.3623047,1.3789062-3.578125,0.015625-4.9492188
			C240.5348663,188.5326538,238.3180695,188.5248413,236.9479523,189.8890991z"/>
		<path class="st1" d="M161.4079132,264.9662476c-0.9316406,1.1179199-2.1103516,2.0667725-3.4609375,2.8203125
			c-0.0356445,0.0197754-0.0722656,0.0384521-0.1079102,0.0579834c-0.418457,0.2286377-0.8525391,0.4390869-1.3012695,0.6293945
			c-0.0263672,0.0111084-0.0507812,0.0238037-0.0771484,0.0345459c-0.4375,0.1826172-0.8916016,0.3413086-1.3535156,0.486084
			c-0.1230469,0.0380859-0.2470703,0.0732422-0.371582,0.1086426c-0.3852539,0.1105957-0.7773438,0.2081299-1.1762695,0.291748
			c-0.0932617,0.0195312-0.1845703,0.0444336-0.2783203,0.0625c-0.465332,0.0893555-0.9399414,0.1551514-1.4194336,0.2069092
			c-0.1357422,0.0147705-0.2719727,0.0269775-0.4082031,0.0385742c-0.5009766,0.0423584-1.0058594,0.072876-1.5180664,0.072876
			c-4.4697266,0-8.2919922-1.6503906-11.671875-5.0302734l-12.8486404-12.9960938
			c-1.3583984-1.375-3.5742188-1.3867188-4.9501953-0.0283203c-1.3740234,1.359375-1.3867188,3.5751953-0.0283203,4.9501953
			l12.8632889,13.0097656c4.7070312,4.7080078,10.3046875,7.0947266,16.6357422,7.0947266
			c0.496582,0,0.987793-0.0183105,1.4765625-0.0462646c0.1230469-0.0072021,0.2451172-0.0183105,0.3681641-0.0272217
			c0.3896484-0.0280762,0.7758789-0.0644531,1.1591797-0.1098633c0.1025391-0.0123291,0.2045898-0.0246582,0.3061523-0.0380859
			c5.4780273-0.7197266,10.2993164-3.217041,13.5395508-7.107666c1.2382812-1.484375,1.0371094-3.6914062-0.4482422-4.9287109
			C164.8512726,263.2787476,162.6432648,263.480896,161.4079132,264.9662476z"/>
	</g>
</g>
</svg>
