<?xml version="1.0" encoding="utf-8"?>
<!-- Generator: Adobe Illustrator 23.0.3, SVG Export Plug-In . SVG Version: 6.00 Build 0)  -->
<svg version="1.1" id="Layer_1" xmlns="http://www.w3.org/2000/svg" xmlns:xlink="http://www.w3.org/1999/xlink" x="0px" y="0px"
	 viewBox="0 0 406.729187 331.5050964" style="enable-background:new 0 0 406.729187 331.5050964;" xml:space="preserve">
<style type="text/css">
	.st0{opacity:0.25;fill:#1B459B;}
	.st1{fill:#1B459B;}
</style>
<g>
	<path class="st0" d="M364.4433899,91.7915421H125.0239792c0,0-7.7472229-19.7643509-27.3860245-19.7643509h-68.825592
		c-4.8697548,0-8.8539677,3.9842148-8.8539677,8.8539734v21.8211212c0,0.3530655,0.0268402,0.7000046,0.0675507,1.042984
		c-0.0437737,0.4366455-0.0675507,0.8794098-0.0675507,1.3272247v213.1516571
		c0,7.3044434,5.9765015,13.2809448,13.2809525,13.2809448h331.2040405c7.3044434,0,13.2809448-5.9765015,13.2809448-13.2809448
		V105.0724945C377.7243347,97.7680435,371.7478333,91.7915421,364.4433899,91.7915421z"/>
	<g>
		<path class="st1" d="M324.7783203,51.6245689c1.9326172,0,3.5-1.5668945,3.5-3.5s-1.5673828-3.5-3.5-3.5H302.109375
			c-1.9326172,0-3.5,1.5668945-3.5,3.5s1.5673828,3.5,3.5,3.5H324.7783203z"/>
		<path class="st1" d="M395.4101562,110.5479126c-1.9326172,0-3.5,1.5668945-3.5,3.5v56.078125c0,1.9331055,1.5673828,3.5,3.5,3.5
			s3.5-1.5668945,3.5-3.5v-56.078125C398.9101562,112.1148071,397.3427734,110.5479126,395.4101562,110.5479126z"/>
		<path class="st1" d="M395.4101562,83.984436c-1.9326172,0-3.5,1.5673828-3.5,3.5v4.9189453c0,1.9331055,1.5673828,3.5,3.5,3.5
			s3.5-1.5668945,3.5-3.5V87.484436C398.9101562,85.5518188,397.3427734,83.984436,395.4101562,83.984436z"/>
		<path class="st1" d="M395.4101562,198.9243774c-1.9326172,0-3.5,1.5668945-3.5,3.5v23.7800293v29.5148926v18.6928711v0.1452637
			c0,0.3171387-0.0179443,0.6298828-0.0476074,0.939209c-0.0114746,0.119873-0.0324707,0.237793-0.048584,0.3569336
			c-0.0244141,0.1843262-0.0493164,0.3686523-0.0839844,0.5493164c-0.0302734,0.1560059-0.0690918,0.3100586-0.1069336,0.4643555
			c-0.0327148,0.1345215-0.0651855,0.269043-0.1032715,0.401123c-0.0534668,0.1828613-0.1140137,0.3637695-0.1782227,0.5439453
			c-1.345459,3.795166-4.9615479,6.5258789-9.2126465,6.5258789h-5.5605469H364.765625v-18.5849609v-34.1877441v-20.5124512
			v-64.9562988v-25.0712891v-5.6972656V95.8486938c0-0.8579102-0.0852051-1.6943359-0.2099609-2.5180664
			c-0.0073242-0.0722656-0.001709-0.1430664-0.0136719-0.215332c-0.0185547-0.1123047-0.0490723-0.21875-0.0698242-0.3300781
			c-0.0444336-0.2402344-0.0961914-0.4770508-0.151001-0.7138672c-0.0684814-0.2973633-0.1439209-0.5913086-0.227417-0.8818359
			c-0.0578613-0.199707-0.1173096-0.3974609-0.182373-0.5942383c-0.1154785-0.3525391-0.2438965-0.6977539-0.3811035-1.0390625
			c-0.0487061-0.1201172-0.0949707-0.2407227-0.1464844-0.3598633c-0.1962891-0.4570312-0.4108887-0.9023438-0.6445312-1.3359375
			c-0.0009766-0.0019531-0.0019531-0.0039062-0.0029297-0.0053711c-1.8066406-3.3496094-4.6945801-5.9658203-8.1762695-7.4423828
			c-0.03479-0.0151367-0.0695801-0.0292969-0.1044922-0.0439453c-0.4346924-0.1811523-0.8776855-0.3432617-1.3295898-0.487793
			c-0.0888672-0.0288086-0.1767578-0.0585938-0.2662354-0.0859375c-0.4049072-0.121582-0.8162842-0.2255859-1.2329102-0.3173828
			c-0.1256104-0.0283203-0.2491455-0.0600586-0.3758545-0.0854492c-0.4025879-0.0786133-0.8115234-0.137207-1.2236328-0.1870117
			c-0.1342773-0.0166016-0.2658691-0.0410156-0.401123-0.0541992c-0.5410156-0.0522461-1.0878906-0.0834961-1.6418457-0.0834961
			h-15.5039062c-1.9326172,0-3.5,1.5668945-3.5,3.5s1.5673828,3.5,3.5,3.5h15.5014648c0.0008545,0,0.0015869,0,0.0024414,0
			c0.3125,0,0.6206055,0.0185547,0.9255371,0.046875c0.1779785,0.0175781,0.3532715,0.0463867,0.5288086,0.0737305
			c0.112793,0.0170898,0.2263184,0.0307617,0.3376465,0.0517578c0.248291,0.0473633,0.4937744,0.1044922,0.7359619,0.1708984
			c0.0238037,0.0063477,0.0478516,0.012207,0.0715332,0.0185547c2.7373047,0.7734375,5.0465088,2.7299805,6.2611084,5.3032227
			c0.0087891,0.0185547,0.0183105,0.0371094,0.0269775,0.0556641c0.0959473,0.2070312,0.180542,0.4194336,0.262085,0.6337891
			c0.032959,0.0878906,0.0665283,0.1757812,0.097168,0.2646484c0.0593262,0.1713867,0.1120605,0.3452148,0.1619873,0.5205078
			c0.0386963,0.1381836,0.074585,0.2768555,0.1074219,0.4169922c0.03479,0.1469727,0.0670166,0.2949219,0.0948486,0.4448242
			c0.1069336,0.5776367,0.170166,1.1708984,0.170166,1.7797852v19.4794922v5.6972656v25.0712891v64.9562988v20.5124512v34.1877441
			v21.6520996v5.6977539v15.8972168c0,2.3364258-0.8258057,4.4821777-2.1977539,6.1662598
			c-0.0166016,0.019043-0.0369873,0.032959-0.0532227,0.0524902c-0.4677734,0.564209-0.989502,1.0678711-1.5541992,1.5070801
			c-0.0053711,0.0041504-0.0112305,0.0080566-0.0166016,0.012207c-0.2641602,0.2045898-0.5388184,0.3928223-0.8205566,0.5683594
			c-0.0372314,0.0231934-0.074707,0.0456543-0.1120605,0.0681152c-0.25354,0.1533203-0.513916,0.2932129-0.779541,0.4223633
			c-0.0570068,0.0275879-0.1135254,0.0561523-0.1711426,0.0827637c-0.2515869,0.1162109-0.5090332,0.2192383-0.7696533,0.3134766
			c-0.0704346,0.0256348-0.1397705,0.0537109-0.2109375,0.0773926c-0.2537842,0.0854492-0.5128174,0.1557617-0.7735596,0.2199707
			c-0.0793457,0.0195312-0.1568604,0.0439453-0.2370605,0.0612793c-0.2631836,0.0578613-0.5307617,0.0986328-0.7993164,0.1345215
			c-0.0791016,0.010498-0.15625,0.0273438-0.2359619,0.0361328c-0.3468018,0.0375977-0.6968994,0.0583496-1.0496826,0.0583496
			h-53.2734375c-1.9326172,0-3.5,1.5668945-3.5,3.5s1.5673828,3.5,3.5,3.5h53.2734375
			c0.6074219,0,1.2061768-0.036377,1.7971191-0.0996094c0.1602783-0.017334,0.3166504-0.0510254,0.4760742-0.072998
			c0.4318848-0.0588379,0.8615723-0.1235352,1.2824707-0.2148438c0.1826172-0.0395508,0.3603516-0.09375,0.5412598-0.1394043
			c0.392334-0.0991211,0.7816162-0.2033691,1.1625977-0.3295898c0.1865234-0.0617676,0.3684082-0.1342773,0.5526123-0.2026367
			c0.3677979-0.1364746,0.730835-0.2805176,1.0859375-0.4414062c0.1807861-0.0820312,0.3577881-0.1699219,0.5356445-0.2583008
			c0.3531494-0.1755371,0.6988525-0.3615723,1.0375977-0.560791c0.1629639-0.0959473,0.324585-0.1931152,0.4844971-0.2946777
			c0.3544922-0.2248535,0.6972656-0.4641113,1.0332031-0.7141113c0.1282959-0.0959473,0.2583008-0.1879883,0.3841553-0.2875977
			c0.3918457-0.3093262,0.7670898-0.6369629,1.1296387-0.9794922c0.05896-0.0556641,0.1213379-0.1064453,0.1795654-0.1630859
			c3.1391602-3.0510254,5.098877-7.3093262,5.098877-12.0222168v-15.8972168v-1.7648926h11.8027344h5.5605469
			c7.1152344,0,13.1951904-4.4587402,15.6318359-10.7229004c0.0220947-0.0507812,0.0505371-0.0969238,0.0703125-0.1491699
			c0.0498047-0.1313477,0.0844727-0.2666016,0.1307373-0.3989258c0.0943604-0.2702637,0.1871338-0.5407715,0.2679443-0.8171387
			c0.0749512-0.2563477,0.1367188-0.5151367,0.1994629-0.7739258c0.0588379-0.2446289,0.1213379-0.4873047,0.1691895-0.7358398
			c0.0627441-0.3237305,0.1062012-0.6506348,0.1496582-0.9777832c0.026123-0.1967773,0.0611572-0.3903809,0.0803223-0.5893555
			c0.0515137-0.5351562,0.0817871-1.0734863,0.0817871-1.6157227v-0.1452637v-18.6928711v-29.5148926v-23.7800293
			C398.9101562,200.491272,397.3427734,198.9243774,395.4101562,198.9243774z"/>
		<path class="st1" d="M398.9101562,61.4053307c0-2.8911133-0.7351074-5.6142578-2.0284424-7.9916992
			c-0.258667-0.4755859-0.5396729-0.9375-0.8414307-1.3837891c-0.8859863-1.3100586-1.9550781-2.4858398-3.1652832-3.4975586
			v-3.2714844c0-9.2529297-7.5273438-16.7812481-16.7802734-16.7812481H359.578125
			c-3.4921875-5.2441406-14.1035156-19.7641602-24.5009766-19.7641602h-73.6171875
			c-10.5820312,0-19.0133057,10.7573242-23.0830078,17.1337891c-0.0820312-0.0317383-0.1645508-0.0585938-0.2468262-0.0888672
			c-0.138916-0.0517578-0.277832-0.0991211-0.4171143-0.1464844c-0.2132568-0.0722656-0.4267578-0.1401367-0.6407471-0.2026367
			c-0.1403809-0.0415039-0.2805176-0.0810547-0.4211426-0.1176758c-0.2175293-0.0571289-0.4353027-0.1064453-0.6533203-0.1523438
			c-0.1357422-0.0288086-0.2712402-0.059082-0.4069824-0.0830078c-0.2368164-0.0424805-0.4736328-0.0737305-0.7104492-0.1020508
			c-0.1157227-0.0141602-0.2312012-0.0332031-0.3469238-0.0439453c-0.3520508-0.0322266-0.7041016-0.0517578-1.0559082-0.0517578
			h-0.328125h-7.7197266h-1.7548828h-6.6669922h-10.5263672h-20.0009766h-7.7197266h-1.7539062h-1.7548828h-6.6669922h-3.5078125
			h-5.2177734c-0.0112305,0-0.0224609,0.0009766-0.0336914,0.0009766c-0.0041504,0-0.0080566-0.0009766-0.012207-0.0009766
			c-0.0039062,0-0.0087891,0-0.0126953,0c-0.1947021,0.0009766-0.3864746,0.0151367-0.579834,0.0234375
			c-0.1760254,0.0068359-0.3535156,0.0078125-0.5283203,0.0209961c-0.2012939,0.0151367-0.3999023,0.0424805-0.5996094,0.0649414
			c-0.1737061,0.0195312-0.348877,0.0332031-0.5212402,0.0585938c-0.1982422,0.0288086-0.3935547,0.0693359-0.59021,0.1054688
			c-0.1708984,0.03125-0.3432617,0.0571289-0.5128174,0.0932617c-0.1945801,0.0419922-0.3859863,0.0952148-0.5788574,0.1435547
			c-0.168457,0.0424805-0.3382568,0.0795898-0.5053711,0.1269531c-0.1955566,0.0556641-0.3879395,0.121582-0.581665,0.1835938
			c-0.1605225,0.0512695-0.3227539,0.0976562-0.4820557,0.1533203c-0.1966553,0.0688477-0.3900146,0.1479492-0.5845947,0.2236328
			c-0.1531982,0.059082-0.3082275,0.1137695-0.460083,0.1767578c-0.1947021,0.0810547-0.3858643,0.1713867-0.5783691,0.2583008
			c-0.1484375,0.0668945-0.2984619,0.1293945-0.4455566,0.2001953c-0.1970215,0.0947266-0.3905029,0.1982422-0.585083,0.2988281
			c-0.1387939,0.0712891-0.2794189,0.1386719-0.4171143,0.2138672c-0.1983643,0.1074219-0.3930664,0.2236328-0.5888672,0.3369141
			c-0.1303711,0.0756836-0.2626953,0.1474609-0.3918457,0.2255859c-0.2053223,0.1240234-0.4067383,0.2558594-0.6088867,0.3857422
			c-0.1157227,0.0742188-0.2335205,0.1450195-0.3482666,0.2211914c-0.0509033,0.0341797-0.100708,0.0698242-0.1513672,0.1040039
			H44.890625c-9.2529297,0-16.78125,7.5283184-16.78125,16.7812481v14.0424805H12.3535156
			c-0.4123535,0-0.8203125,0.0219727-1.2231445,0.0620117c-0.2036133,0.0200195-0.4016113,0.0581055-0.6022949,0.0883789
			c-0.1928711,0.0288086-0.3879395,0.050293-0.5778809,0.0883789c-0.2597656,0.0512695-0.5124512,0.1210938-0.7661133,0.1884766
			c-0.1225586,0.0332031-0.2475586,0.0585938-0.3686523,0.0952148c-0.2841797,0.0854492-0.5605469,0.1875-0.8359375,0.2924805
			c-0.0839844,0.0317383-0.170166,0.0585938-0.2532959,0.0927734c-0.2907715,0.1181641-0.5727539,0.2514648-0.8521729,0.390625
			c-0.0626221,0.03125-0.1271973,0.059082-0.189209,0.0913086C6.4001465,60.8408775,6.125,61.0024986,5.8537598,61.1714439
			c-0.0529785,0.0327148-0.1072998,0.0634766-0.159668,0.097168c-0.2692871,0.1728516-0.5285645,0.3588867-0.7832031,0.5517578
			c-0.0505371,0.0385742-0.1022949,0.0751953-0.1523438,0.1142578c-0.2468262,0.1933594-0.4833984,0.3969727-0.7145996,0.6079102
			c-0.0534668,0.0488281-0.1077881,0.0961914-0.1604004,0.1459961c-0.2194824,0.2070312-0.4291992,0.4233398-0.6329346,0.6464844
			c-0.0584717,0.0634766-0.1173096,0.1264648-0.1744385,0.1914062c-0.1893311,0.2158203-0.3696289,0.4389648-0.5438232,0.6674843
			c-0.0633545,0.0830078-0.1263428,0.1660156-0.1875,0.2504883c-0.1583252,0.2192383-0.3087158,0.4433594-0.4526367,0.6728516
			c-0.0662842,0.1054688-0.1309814,0.2119141-0.1942139,0.3193359c-0.1280518,0.21875-0.2493896,0.4404297-0.3641357,0.6669922
			c-0.0655518,0.1293945-0.1275635,0.2597656-0.1885986,0.3916016c-0.0996094,0.2148438-0.1942139,0.4326172-0.2814941,0.6542969
			c-0.0604248,0.152832-0.1154785,0.3076172-0.1699219,0.4628906c-0.0732422,0.2109375-0.1431885,0.421875-0.2050781,0.6376953
			c-0.0506592,0.175293-0.0939941,0.3530273-0.1369629,0.5317383c-0.0493164,0.2050781-0.0969238,0.4106445-0.1357422,0.6196289
			c-0.0362549,0.1953125-0.0634766,0.3930664-0.0904541,0.5913086c-0.0272217,0.2006836-0.0545654,0.4013672-0.0718994,0.6049805
			c-0.0057373,0.0664062-0.0187988,0.1303711-0.0234375,0.1972656c-0.0039062,0.0556641,0.0063477,0.1088867,0.005127,0.1645508
			C0.0222168,71.1919556,0,71.421936,0,71.6572876v19.9023438v1.9189453v2.3701172v60.6621094v11.5759277
			c0,1.9331055,1.5673828,3.5,3.5,3.5s3.5-1.5668945,3.5-3.5v-11.5759277V95.8486938
			c0-0.3291016,0.0175781-0.6552734,0.0498047-0.9765625c0.0253906-0.2548828,0.0234375-0.5117188-0.0068359-0.765625
			C7.0175781,93.8994751,7,93.690979,7,93.4785767v-1.9189453V71.6572876c0-0.2568359,0.0407715-0.503418,0.0759277-0.7509766
			c0.0231934-0.1611328,0.043457-0.3232422,0.0806885-0.4799805c0.0419922-0.1767578,0.1014404-0.3461914,0.1605225-0.5161133
			c0.0544434-0.1557617,0.1051025-0.3129883,0.1730957-0.4619141c0.0699463-0.1533203,0.1564941-0.2963867,0.2401123-0.4418945
			c0.0861816-0.1489258,0.1680908-0.3012695,0.2678223-0.440918c0.0899658-0.1259766,0.1950684-0.2397461,0.2952881-0.3574219
			c0.1181641-0.1386719,0.2321777-0.28125,0.3636475-0.4072266c0.1051025-0.1005859,0.2236328-0.1855469,0.3365479-0.2773438
			c0.1469727-0.1196289,0.2897949-0.2441406,0.4487305-0.3481445c0.1241455-0.0805664,0.2607422-0.1420898,0.3916016-0.2128906
			c0.1643066-0.0883789,0.3239746-0.1850586,0.4978027-0.2563477c0.1662598-0.0683594,0.3447266-0.1103516,0.5189209-0.1616211
			c0.1520996-0.0449219,0.2987061-0.1040039,0.4559326-0.1352539c0.3388672-0.0673828,0.6883545-0.105957,1.046875-0.105957
			h20.9033203h21.6513672h5.6982422h20.5732422c1.491333,0,2.9003906,0.1367188,4.2385254,0.3745117
			c0.2053223,0.0371094,0.4084473,0.0766602,0.6102295,0.1186523c0.2271729,0.046875,0.4517822,0.0966797,0.6744385,0.1499023
			c0.2536621,0.0605469,0.5058594,0.1235352,0.7537842,0.1923828c0.1322021,0.0361328,0.2625732,0.074707,0.3931885,0.1132812
			c12.0079346,3.5683594,17.276123,16.1503906,17.4487305,16.5732422c0.0019531,0.0048828,0.0065918,0.0161133,0.0080566,0.0195312
			c0.5253906,1.3408203,1.8183594,2.2226562,3.2587891,2.2226562h56.8564453c0.0008545,0,0.0015869,0,0.0024414,0h29.1665039
			c1.9326172,0,3.5-1.5668945,3.5-3.5s-1.5673828-3.5-3.5-3.5h-34.1875c-0.0008545,0-0.0015869,0-0.0024414,0h-20.5527344
			c-0.0008545,0-0.0015869,0-0.0024414,0h-29.0430908c-2.8438721-5.6113281-11.7843018-19.764164-29.6229248-19.764164H60.6064453
			h-5.6982422H41.3846436c0.0218506-0.0986328,0.0443115-0.1967773,0.0692139-0.2944336
			c0.0290527-0.1142578,0.0554199-0.2299805,0.088501-0.3427734c0.064209-0.2177734,0.1383057-0.4306641,0.2169189-0.6411133
			c0.0246582-0.0664062,0.0472412-0.1337891,0.0732422-0.199707c0.0987549-0.2475586,0.2072754-0.4902344,0.3251953-0.7275391
			c0.0107422-0.0219727,0.020752-0.0439453,0.0317383-0.065918c1.2180176-2.402832,3.3996582-4.2397461,6.0009766-5.0102539
			c0.010498-0.003418,0.0214844-0.0053711,0.0319824-0.0083008c0.2739258-0.0805664,0.5522461-0.1489258,0.8347168-0.2045898
			c0.1027832-0.0200195,0.2084961-0.03125,0.3125-0.0478516c0.1982422-0.0327148,0.3959961-0.0673828,0.5976562-0.0874023
			c0.3151855-0.0307617,0.6342773-0.0483398,0.9575195-0.0483398h86.3408203c0.3083496,0,0.609375-0.0449219,0.8991699-0.1220703
			c0.7794189-0.2075195,1.4665527-0.6787109,1.9405518-1.3393555c0.0125732-0.0170898,0.02771-0.0322266,0.039917-0.0498047
			c0.0244141-0.0356445,0.0432129-0.0756836,0.0666504-0.112793c0.0643311-0.1005859,0.1291504-0.2011719,0.1835938-0.3095703
			c2.3322754-4.6484375,9.810791-16.2470703,17.8447266-17.684082c0.059082-0.010252,0.1186523-0.0151348,0.1779785-0.0244122
			c0.2060547-0.0332031,0.4121094-0.0644531,0.6186523-0.0834961c0.1226807-0.0112305,0.2456055-0.0117188,0.3684082-0.0180664
			c0.1513672-0.0078125,0.3024902-0.0209961,0.4541016-0.0209961h5.2177734h3.5078125h6.6669922h1.7548828h1.7539062h7.7197266
			h20.0009766h10.5263672h6.6669922h1.7548828h7.7197266h0.328125c0.7637939,0,1.5754395,0.1733379,2.4191895,0.4907207
			c5.9073486,2.2216797,13.3999023,11.4912109,17.1989746,17.6171875c0.0007324,0.0009766,0.001709,0.0019531,0.0024414,0.0029297
			c0.1109619,0.1787109,0.2412109,0.340332,0.3793945,0.4931641c0.0341797,0.0380859,0.0678711,0.0756836,0.1035156,0.1118164
			c0.138916,0.140625,0.286377,0.2714844,0.4455566,0.3862305c0.0288086,0.0205078,0.0593262,0.0371094,0.088623,0.0566406
			c0.1437988,0.097168,0.2944336,0.1826172,0.4509277,0.2573242c0.0388184,0.0185547,0.0766602,0.0385742,0.1162109,0.0556641
			c0.1821289,0.0786133,0.3701172,0.1430664,0.5643311,0.1904297c0.0289307,0.0068359,0.0582275,0.0107422,0.0872803,0.0170898
			c0.1728516,0.0371094,0.3491211,0.0605469,0.5281982,0.0712891c0.0401611,0.0024414,0.0794678,0.0068359,0.119751,0.0078125
			c0.0300293,0.0009766,0.0592041,0.0058594,0.0893555,0.0058594h31.2802734c1.9326172,0,3.5-1.5668945,3.5-3.5
			s-1.5673828-3.5-3.5-3.5h-29.3740234c-0.0716553-0.1074219-0.1508789-0.2250977-0.2285156-0.3398438
			c-0.0361328-0.0537109-0.0686035-0.1030273-0.1060791-0.1582031c-0.1314697-0.1938477-0.2705078-0.3979492-0.4171143-0.6103516
			c-0.0378418-0.0546875-0.0793457-0.1132812-0.118042-0.1694336c-0.1131592-0.1625977-0.2281494-0.328125-0.3496094-0.5004883
			c-0.0587158-0.0830078-0.1207275-0.1699219-0.1812744-0.2553711c-0.1064453-0.1494141-0.2139893-0.300293-0.3261719-0.4560547
			c-0.0716553-0.0996094-0.1452637-0.2006836-0.2192383-0.3027344c-0.111084-0.152832-0.2242432-0.3076172-0.340332-0.4648438
			c-0.0767822-0.1044922-0.1540527-0.2084961-0.2329102-0.3144531c-0.1223145-0.1645508-0.2478027-0.331543-0.3752441-0.5
			c-0.0787354-0.1044922-0.1563721-0.2075195-0.2368164-0.3129883c-0.140625-0.184082-0.2854004-0.3710938-0.4315186-0.5595703
			c-0.0731201-0.0942383-0.1442871-0.1870117-0.2188721-0.2817383c-0.2067871-0.2641602-0.4187012-0.53125-0.6357422-0.8007812
			c-0.0164795-0.0205078-0.0319824-0.0405273-0.048584-0.0610352c-0.2333984-0.2895508-0.4733887-0.5825195-0.7181396-0.8774414
			c-0.0758057-0.0913086-0.1544189-0.1831055-0.2313232-0.2749023c-0.1710205-0.2041016-0.3430176-0.4082031-0.519043-0.6132812
			c-0.0986328-0.1152344-0.1992188-0.2299805-0.2993164-0.3452148c-0.159668-0.184082-0.3203125-0.3671875-0.4837646-0.5517578
			c-0.109375-0.1230469-0.2198486-0.2460938-0.3308105-0.3691406c-0.161377-0.1791992-0.3243408-0.3579102-0.4891357-0.5366211
			c-0.1140137-0.1240234-0.2280273-0.2470703-0.34375-0.3706055c-0.1708984-0.1826172-0.3442383-0.3642578-0.5185547-0.5454102
			c-0.1115723-0.1162109-0.222168-0.2324219-0.3349609-0.3481445c-0.1971436-0.2016602-0.3973389-0.4018555-0.5983887-0.6015625
			c-0.0938721-0.0932617-0.1860352-0.1875-0.2807617-0.2797852c-0.2940674-0.2880859-0.5916748-0.5732422-0.8933105-0.8544903
			c-0.0615234-0.0571289-0.1245117-0.1123047-0.1862793-0.1694336c-0.2436523-0.2246094-0.4888916-0.4482422-0.7370605-0.6669922
			c-0.111084-0.0981445-0.2236328-0.1933594-0.3354492-0.2900391c-0.2015381-0.1743164-0.4034424-0.3476562-0.607666-0.5175781
			c-0.1270752-0.105957-0.255249-0.2089844-0.3833008-0.3129883c-0.1936035-0.1572266-0.3878174-0.3120117-0.5834961-0.4643555
			c-0.074707-0.0581055-0.1481934-0.1191406-0.2233887-0.1767578c3.7382812-5.8012695,10.3061523-13.6547852,17.0463867-13.6547852
			h73.6171875c6.1113281,0,15.2773438,11.1069336,19.6191406,18.1079082c0.6386719,1.0292969,1.7646484,1.65625,2.9755859,1.65625
			h18.4228516c5.3243408,0,9.6608887,4.2797852,9.7700195,9.5791016c-1.2033691-0.2753906-2.4503174-0.434082-3.7358398-0.434082
			h-1.2724609c-0.0008545,0-0.0015869,0.0004883-0.0024414,0.0004883h-38.2143555c-1.9326172,0-3.5,1.5664062-3.5,3.5
			c0,1.9326172,1.5673828,3.5,3.5,3.5h39.4892578c3.3709717,0,6.348999,1.7138672,8.1085205,4.315918
			c1.0556641,1.5610352,1.6727295,3.4423828,1.6727295,5.4648438v7.385746c0,1.9331055,1.5673828,3.5,3.5,3.5s3.5-1.5668945,3.5-3.5
			v-7.385746l0,0V61.4053307z M44.890625,35.4795494h96.6696777c-2.9703369,3.4985352-5.1689453,7.0302734-6.376709,9.1450195
			h-29.1982422c-0.0008545,0-0.0015869,0.0004883-0.0024414,0.0004883H84.3432617
			c-0.0008545,0-0.0015869-0.0004883-0.0024414-0.0004883H79.421875c-0.0008545,0-0.0015869,0.0004883-0.0024414,0.0004883
			H60.730957c-0.0008545,0-0.0015869-0.0004883-0.0024414-0.0004883h-9.8037109
			c-0.5527344,0-1.0996094,0.0292969-1.6402588,0.0834961c-0.362915,0.0351562-0.7169189,0.0986328-1.0726318,0.1567383
			c-0.1621094,0.0268555-0.3271484,0.0424805-0.4876709,0.074707c-0.4986572,0.0966797-0.9871826,0.2197266-1.4689941,0.3598633
			c-0.0056152,0.0014648-0.0114746,0.0024414-0.0170898,0.0043945c-4.5098877,1.3149414-8.2297363,4.4736328-10.3041992,8.6044922
			c-0.0155029,0.0307617-0.0294189,0.0625-0.0447998,0.0927734c-0.2045898,0.4140625-0.3952637,0.8339844-0.5657959,1.2661133
			c-0.043335,0.1083984-0.0799561,0.2202148-0.1209717,0.3295898c-0.03125,0.0844727-0.0629883,0.1689453-0.0930176,0.2539062
			V45.2607994C35.109375,39.8672447,39.4970703,35.4795494,44.890625,35.4795494z"/>
		<path class="st1" d="M3.5,246.6194458c1.9326172,0,3.5-1.5671387,3.5-3.5v-34.1875c0-1.9331055-1.5673828-3.5-3.5-3.5
			s-3.5,1.5668945-3.5,3.5v34.1875C0,245.0523071,1.5673828,246.6194458,3.5,246.6194458z"/>
		<path class="st1" d="M3.5,190.7798462c1.9326172,0,3.5-1.5671387,3.5-3.5v-5.697998c0-1.9331055-1.5673828-3.5-3.5-3.5
			s-3.5,1.5668945-3.5,3.5v5.697998C0,189.2127075,1.5673828,190.7798462,3.5,190.7798462z"/>
		<path class="st1" d="M243.5117188,82.5674438c0,1.9331055,1.5673828,3.5,3.5,3.5h64.9560547c1.9326172,0,3.5-1.5668945,3.5-3.5
			s-1.5673828-3.5-3.5-3.5h-64.9560547C245.0791016,79.0674438,243.5117188,80.6343384,243.5117188,82.5674438z"/>
		<path class="st1" d="M218.3583984,318.7810669h-5.6972656c-1.9326172,0-3.5,1.5668945-3.5,3.5s1.5673828,3.5,3.5,3.5h5.6972656
			c1.9326172,0,3.5-1.5668945,3.5-3.5S220.2910156,318.7810669,218.3583984,318.7810669z"/>
		<path class="st1" d="M221.9414062,79.0674438h-5.6982422c-1.9326172,0-3.5,1.5668945-3.5,3.5s1.5673828,3.5,3.5,3.5h5.6982422
			c1.9326172,0,3.5-1.5668945,3.5-3.5S223.8740234,79.0674438,221.9414062,79.0674438z"/>
		<path class="st1" d="M274.1982422,318.7810669h-34.1875c-1.9326172,0-3.5,1.5668945-3.5,3.5s1.5673828,3.5,3.5,3.5h34.1875
			c1.9326172,0,3.5-1.5668945,3.5-3.5S276.1308594,318.7810669,274.1982422,318.7810669z"/>
		<path class="st1" d="M188.2490234,318.7810669h-0.6591797h-64.9560547h-20.5126953h-34.1875H46.28125h-5.6982422H16.7802734
			c-0.3244629,0-0.6447754-0.0178223-0.9611816-0.048584c-0.1564941-0.015625-0.309082-0.0444336-0.4633789-0.0673828
			c-0.1544189-0.0224609-0.3103027-0.0407715-0.4624023-0.0705566c-0.2236328-0.0446777-0.4423828-0.1020508-0.6602783-0.1618652
			c-0.0717773-0.0192871-0.1451416-0.034668-0.2161865-0.0556641c-3.4692383-1.0385742-6.138916-3.979248-6.8369141-7.5336914
			c-0.0109863-0.057373-0.0168457-0.1166992-0.0268555-0.1743164c-0.0422363-0.2387695-0.0808105-0.4782715-0.1051025-0.7216797
			C7.0178223,309.6353149,7,309.3198853,7,309.0003052V263.631897c0-1.9331055-1.5673828-3.5-3.5-3.5s-3.5,1.5668945-3.5,3.5
			v45.3684082c0,0.5471191,0.0289307,1.0888672,0.0822754,1.6247559c0.0407715,0.421875,0.1102295,0.8349609,0.1818848,1.2473145
			c0.0169678,0.0957031,0.0255127,0.1938477,0.0441895,0.2893066c1.1850586,6.1850586,5.7714844,11.1679688,11.734375,12.9272461
			c0.1140137,0.0341797,0.2318115,0.0578613,0.3466797,0.0893555c0.3815918,0.1037598,0.7631836,0.2060547,1.1550293,0.282959
			c0.2573242,0.0510254,0.5214844,0.0808105,0.7828369,0.119873c0.2681885,0.0395508,0.5325928,0.0898438,0.8048096,0.1164551
			c0.0170898,0.001709,0.0334473,0.0056152,0.0505371,0.0073242c0.1132812,0.0107422,0.2255859,0.0161133,0.3369141,0.0161133
			c0.0089111,0,0.017334-0.0024414,0.0262451-0.0024414c0.4091797,0.0300293,0.817749,0.0625,1.2344971,0.0625h23.8027344H46.28125
			h21.6523438h34.1875h20.5126953h64.9560547h0.6591797c1.9326172,0,3.5-1.5668945,3.5-3.5
			S190.1816406,318.7810669,188.2490234,318.7810669z"/>
	</g>
	<path class="st0" d="M393.4484253,19.7644043h-18.4228516c0,0-12.2329102-19.7644043-22.5942383-19.7644043h-73.6171875
		c-12.7236328,0-22.5947266,19.7644043-22.5947266,19.7644043H62.2443352c-7.3046875,0-13.28125,5.9765625-13.28125,13.2810059
		v15.2038574c0.6367188-0.0946045,1.2827148-0.15979,1.9448242-0.15979h86.3398438c0,0,9.8710938-19.7642822,22.5947266-19.7642822
		h73.6171875c10.3613281,0,22.594223,19.7642822,22.594223,19.7642822h126.0581055
		c7.3041992,0,13.2807617,5.9764404,13.2807617,13.2808838v197.9477539
		c6.3886719-0.9503174,11.3364258-6.4785156,11.3364258-13.1210938V33.0454102
		C406.729187,25.7409668,400.7526245,19.7644043,393.4484253,19.7644043z"/>
</g>
</svg>
