<?xml version="1.0" encoding="utf-8"?>
<!-- Generator: Adobe Illustrator 23.0.3, SVG Export Plug-In . SVG Version: 6.00 Build 0)  -->
<svg version="1.1" id="Layer_1" xmlns="http://www.w3.org/2000/svg" xmlns:xlink="http://www.w3.org/1999/xlink" x="0px" y="0px"
	 viewBox="0 0 358.0682068 373.6621094" style="enable-background:new 0 0 358.0682068 373.6621094;" xml:space="preserve">
<style type="text/css">
	.st0{opacity:0.25;fill:#1B4899;}
	.st1{fill:#1B459B;}
</style>
<g>
	<path class="st0" d="M227.5875092,347.4405823c0.2723541-0.9046021,0.4228516-1.8615417,0.4228516-2.8539124v-2.4240417
		c0-5.4708252-4.451416-9.921814-9.921814-9.921814h-90.1744843c-5.4703979,0-9.9218063,4.4509888-9.9218063,9.921814v2.4240417
		c0,0.9923706,0.1504974,1.9493103,0.4228439,2.8539124c-4.1713943,1.9023438-7.0837173,6.1021729-7.0837173,10.9780273v3.1747437
		c0,6.6547546,5.4144363,12.0687561,12.0689926,12.0687561h99.2018585c6.6545563,0,12.0690002-5.4140015,12.0690002-12.0687561
		v-3.1747437C234.6712341,353.5427551,231.7589111,349.342926,227.5875092,347.4405823z"/>
	<g>
		<path class="st1" d="M169.8799133,342.3974609c1.8408203,0,3.3330078-1.4921875,3.3330078-3.3330078
			s-1.4921875-3.3330078-3.3330078-3.3330078h-4.6621094c-1.8408203,0-3.3330078,1.4921875-3.3330078,3.3330078
			s1.4921875,3.3330078,3.3330078,3.3330078H169.8799133z"/>
		<path class="st1" d="M121.2304993,277.3701172c0.6757812,0,1.359375-0.1953125,1.9609375-0.6025391
			c1.5996094-1.0849609,2.0175781-3.2617188,0.9335938-4.8613281c-1.3300781-1.9609375-2.7041016-3.9599609-4.1064453-6
			c-6.3613281-9.2529297-13.5712891-19.7402344-19.6367188-31.3056641
			c-0.8984375-1.7109375-3.0117188-2.3720703-4.7255859-1.4736328c-1.7119141,0.8974609-2.3710938,3.0136719-1.4736328,4.7255859
			c6.2587891,11.9345703,13.5957031,22.6054688,20.0673828,32.0195312c1.3935547,2.0273438,2.7587891,4.0126953,4.0800781,5.9619141
			C119.007843,276.8320312,120.1094055,277.3701172,121.2304993,277.3701172z"/>
		<path class="st1" d="M88.0937805,202.1621094c-0.4326172-1.8847656-2.3056641-3.0644531-4.1933594-2.6289062
			c-1.8837891,0.4316406-3.0615234,2.3085938-2.6289062,4.1933594c0.5625,2.4570312,1.2128906,4.9443359,1.9316406,7.3935547
			c0.4482422,1.5253906,1.84375,2.5146484,3.3564453,2.5146484c0.3271484,0,0.6591797-0.0458984,0.9882812-0.1425781
			c1.8544922-0.5449219,2.9160156-2.4892578,2.3720703-4.34375
			C89.2402649,206.8339844,88.6260071,204.4833984,88.0937805,202.1621094z"/>
		<path class="st1" d="M77.1162415,276.0039062c-3.7666016,3.9316406-7.7382812,7.7998047-11.5800781,11.5410156
			c-4.3710938,4.2558594-8.890625,8.6572266-13.1738281,13.2138672c-1.3242188,1.4082031-1.2558594,3.6240234,0.1523438,4.9472656
			c0.6757812,0.6357422,1.5371094,0.9501953,2.3964844,0.9501953c0.9326172,0,1.8623047-0.3701172,2.5507812-1.1025391
			c4.1777344-4.4443359,8.640625-8.7910156,12.9580078-12.9941406c3.8837891-3.7832031,7.9003906-7.6943359,11.7509766-11.7138672
			c1.3369141-1.3955078,1.2900391-3.6113281-0.1064453-4.9482422
			C80.6689758,274.5585938,78.4531555,274.6064453,77.1162415,276.0039062z"/>
		<path class="st1" d="M278.2900696,83.2783203c0.8710938,0,1.7441406-0.3232422,2.421875-0.9736328
			c4.0947266-3.9248047,8.0400391-7.9765625,11.8554688-11.8935547c4.2060547-4.3183594,8.5546875-8.7832031,12.9853516-12.9482422
			c1.4082031-1.3232422,1.4765625-3.5380859,0.1523438-4.9472656c-1.3232422-1.4082031-3.5390625-1.4785156-4.9472656-0.1523438
			c-4.5429688,4.2695312-8.9462891,8.7910156-13.2050781,13.1630859
			c-3.7744141,3.8759766-7.6767578,7.8837891-11.6845703,11.7255859c-1.3955078,1.3378906-1.4423828,3.5527344-0.1044922,4.9482422
			C276.4512024,82.9169922,277.3701477,83.2783203,278.2900696,83.2783203z"/>
		<path class="st1" d="M38.1738586,175.5351562c-11.6425781-0.2636719-23.6611328-0.2617188-34.7568359,0
			c-1.9326171,0.0458984-3.4619141,1.6494141-3.4160156,3.5820312c0.0449219,1.9042969,1.6025391,3.4169922,3.4970703,3.4169922
			c0.0283203,0,0.0566406,0,0.0849609-0.0009766c10.9882812-0.2597656,22.8964844-0.2597656,34.4326172,0
			c0.0273438,0.0009766,0.0537109,0.0009766,0.0810547,0.0009766c1.8955078,0,3.4541016-1.515625,3.4970703-3.4208984
			C41.6377258,177.1806641,40.1064758,175.5791016,38.1738586,175.5351562z"/>
		<path class="st1" d="M354.6416321,175.5351562c-12.3886719-0.2617188-23.6728516-0.2617188-35.5068359,0
			c-1.9326172,0.0429688-3.4648438,1.6435547-3.421875,3.5761719c0.0419922,1.9326172,1.6640625,3.4472656,3.5761719,3.421875
			c11.7324219-0.2578125,22.9169922-0.2578125,35.2060547,0c0.0244141,0.0009766,0.0498047,0.0009766,0.0742188,0.0009766
			c1.8994141,0,3.4580078-1.5185547,3.4980469-3.4267578C358.108429,177.1757812,356.5742493,175.5751953,354.6416321,175.5351562z"
			/>
		<path class="st1" d="M76.4980774,81.4472656c0.6835938,0.6845703,1.5800781,1.0273438,2.4765625,1.0273438
			c0.8945312,0,1.7900391-0.3408203,2.4726562-1.0234375c1.3681641-1.3662109,1.3701172-3.5820312,0.0039062-4.9492188
			c-7.4267578-7.4384766-16.0761719-16.0878906-24.0664062-24.0654297
			c-1.3671875-1.3671875-3.5839844-1.3632812-4.9492188,0.0039062c-1.3662109,1.3671875-1.3642578,3.5839844,0.0039062,4.9492188
			C60.4258118,65.3652344,69.0732727,74.0126953,76.4980774,81.4472656z"/>
		<path class="st1" d="M280.7637024,275.8134766c-1.3662109-1.3662109-3.5820312-1.3632812-4.9501953,0.0029297
			c-1.3662109,1.3681641-1.3642578,3.5839844,0.0029297,4.9501953c8.5947266,8.5839844,16.3769531,16.3662109,24.8623047,24.8632812
			c0.6835938,0.6845703,1.5800781,1.0263672,2.4765625,1.0263672c0.8945312,0,1.7900391-0.3408203,2.4736328-1.0234375
			c1.3671875-1.3662109,1.3691406-3.5820312,0.0029297-4.9501953
			C297.1445618,292.1835938,289.3603821,284.3994141,280.7637024,275.8134766z"/>
		<path class="st1" d="M179.0332336,41.5947266c0.0253906,0,0.0507812,0,0.0761719-0.0009766
			c1.9326172-0.0419922,3.4658203-1.6416016,3.4238281-3.5742188c-0.2490234-11.5498047-0.2490234-23.4589844,0-34.4404297
			c0.0439453-1.9316406-1.4873047-3.5341797-3.4199219-3.578125C179.0869446,0,179.0596008,0,179.0322571,0
			c-1.8955078,0-3.4541016,1.515625-3.4970703,3.4208984c-0.2519531,11.0820312-0.2519531,23.0976562,0,34.7490234
			C175.5762024,40.0771484,177.1347961,41.5947266,179.0332336,41.5947266z"/>
		<path class="st1" d="M197.335968,112.9150391c0.2402344,0.0595703,0.4804688,0.109375,0.7304688,0.1699219
			c7.5595703,1.7998047,15.609375,6.3203125,22.0898438,12.4101562c0.3603516,0.3496094,0.7900391,0.5996094,1.2597656,0.7597656
			c0.1699219,0.4697266,0.4296875,0.8896484,0.7705078,1.2597656c0.6699219,0.6904297,1.5693359,1.0703125,2.5292969,1.0703125
			c0.9101562,0,1.7705078-0.3398438,2.4306641-0.9697266c0.6699219-0.6503906,1.0498047-1.5205078,1.0693359-2.4599609
			c0.0205078-0.9306641-0.3300781-1.8203125-0.9794922-2.4902344c-0.3798828-0.4101562-0.8701172-0.7099609-1.390625-0.890625
			c-0.1894531-0.5292969-0.4892578-0.9892578-0.8994141-1.3798828
			c-7.4101562-6.9394531-16.3203125-11.9394531-25.0898438-14.0800781
			c-0.0498047-0.0097656-0.1103516-0.0292969-0.1601562-0.0400391c-0.0097656,0-0.0097656,0-0.0205078,0
			c-0.2900391-0.0693359-0.5800781-0.1396484-0.8798828-0.1992188c-1.859375-0.4003906-3.7597656,0.8398438-4.1601562,2.6796875
			c-0.1992188,0.9199219-0.0292969,1.8496094,0.4804688,2.6396484
			C195.6260071,112.1748047,196.4062805,112.7246094,197.335968,112.9150391z"/>
		<path class="st1" d="M241.4961243,147.7744141c-0.4101562-1.5292969-1.7998047-2.609375-3.3798828-2.609375
			c-0.2998047,0-0.5996094,0.0400391-0.9003906,0.1201172c-1.859375,0.4892578-2.9794922,2.3994141-2.4892578,4.2695312
			c0.2392578,0.9101562,0.4492188,1.8398438,0.6396484,2.7705078c0.3203125,1.6298828,1.7597656,2.8095703,3.4199219,2.8095703
			c0.2304688,0,0.4599609-0.0195312,0.6904297-0.0703125c1.8994141-0.3798828,3.1298828-2.2197266,2.75-4.109375v-0.0107422
			C242.0166321,149.8945312,241.7666321,148.8349609,241.4961243,147.7744141z"/>
		<path class="st1" d="M222.8467102,320.4824219v-4.3916016v-5.9404297c0-8.2767334,3.9541016-16.3620605,9.8671875-25.3911133
			c0.0107422-0.0161133,0.0263672-0.0270996,0.0371094-0.043457c1.3125-2.0070801,2.7197266-4.0546875,4.1914062-6.1484375
			c0.1142578-0.1625977,0.2285156-0.3249512,0.34375-0.4881592c0.6494141-0.9207764,1.3100586-1.8499756,1.9829102-2.7906494
			c0.0869141-0.1210938,0.1713867-0.2404785,0.2583008-0.3620605c0.7573242-1.057373,1.5258789-2.1259766,2.3066406-3.2106934
			c0.7949219-1.1043701,1.6098633-2.2397461,2.4331055-3.3894043c0.3691406-0.5155029,0.7392578-1.0334473,1.1108398-1.5551758
			c0.2016602-0.2832031,0.4023438-0.5651855,0.6049805-0.8510742
			c10.8461914-15.2758789,22.4990234-33.2634277,28.4130859-56.9813232c0.0009766-0.003418,0.0014648-0.0067139,0.0024414-0.0101318
			c0.2348633-0.9414062,0.4628906-1.888916,0.6787109-2.8485107c0.0161133-0.0709229,0.0302734-0.1422119,0.0463867-0.2131348
			c0.2875977-1.2868652,0.5561523-2.592041,0.8085938-3.9124756c0.1220703-0.6359863,0.2456055-1.2717285,0.3583984-1.9104004
			c0.0717773-0.4091797,0.137207-0.8242188,0.2055664-1.2368164c0.1259766-0.7556152,0.2470703-1.5126953,0.3598633-2.2722168
			c0.0546875-0.3685303,0.1069336-0.7387695,0.1586914-1.1098633c0.1225586-0.8781738,0.2363281-1.7595215,0.3413086-2.6433105
			c0.0327148-0.2717285,0.0668945-0.5412598,0.0976562-0.814209c0.2705078-2.3966064,0.4770508-4.8150635,0.621582-7.2573242
			c0.0170898-0.2918701,0.03125-0.5866699,0.0463867-0.880127c0.050293-0.9558105,0.0913086-1.9157715,0.1225586-2.8792725
			c0.0112305-0.3370361,0.0234375-0.6733398,0.0322266-1.0123291c0.03125-1.2467041,0.0527344-2.4978027,0.0527344-3.7580566
			c0-2.0124512-0.0371094-3.9943848-0.1030273-5.9523926c-0.003418-0.1019287-0.0043945-0.2055664-0.0083008-0.307373
			c-0.0673828-1.90271-0.1699219-3.776123-0.2998047-5.6269531c-0.0097656-0.1408691-0.0175781-0.2834473-0.027832-0.4240723
			c-0.1333008-1.8305664-0.3007812-3.6328125-0.4951172-5.4121094c-0.015625-0.1445312-0.0297852-0.2901611-0.0463867-0.4342041
			c-0.2001953-1.7821045-0.4331055-3.5367432-0.6948242-5.2669678c-0.019043-0.1243896-0.0366211-0.2495117-0.0561523-0.3735352
			c-0.2695312-1.7492676-0.5712891-3.4709473-0.9042969-5.166748c-0.0175781-0.0899658-0.0351562-0.1800537-0.0527344-0.2698975
			c-0.3427734-1.7254639-0.7177734-3.4232178-1.1254883-5.0927734c-0.0117188-0.0474854-0.0234375-0.0949707-0.0351562-0.1424561
			c-3.3901367-13.8039551-9.015625-25.6888428-16.8486328-35.5736084c-0.0302734-0.0383301-0.0600586-0.0772705-0.090332-0.1153564
			c-0.9287109-1.1677246-1.8901367-2.3057861-2.8808594-3.4172363c-0.0854492-0.0959473-0.1699219-0.192627-0.2558594-0.2880859
			c-0.9501953-1.0561523-1.9296875-2.0856934-2.9360352-3.0905762c-0.0727539-0.0722656-0.1386719-0.1503906-0.2114258-0.2224121
			c-0.0708008-0.0700684-0.1469727-0.1342773-0.2182617-0.2041016c-0.7910156-0.7780762-1.5932617-1.5462646-2.418457-2.2929688
			c-0.0473633-0.0429688-0.1020508-0.0716553-0.1513672-0.1115723c-8.125-7.307373-17.828125-12.9851074-28.8818359-16.9243164
			c-0.0625-0.0263672-0.1176758-0.0632324-0.1826172-0.0861816c-2.3701172-0.8388672-4.8417969-1.609375-7.3447266-2.2900391
			c-0.1264648-0.0344238-0.2524414-0.043335-0.3789062-0.0632324c-8.7353516-2.3476562-18.1791992-3.7269287-28.2495117-4.0743408
			c-0.027832-0.0015869-0.0527344-0.0098877-0.0805664-0.0108643c-1.6640625-0.0556641-3.3798828-0.0849609-5.1025391-0.0859375
			c-1.7348633,0-3.4589844,0.0356445-5.1708984,0.1060791c-12.4116211,0.4970703-24.1328125,2.7904053-34.9072266,6.8421631
			c-0.2358398,0.0887451-0.4545898,0.2023926-0.6582031,0.3331299c-8.5268555,3.2800293-16.371582,7.6251221-23.3129883,12.9720459
			c-0.0834961,0.0543213-0.1723633,0.0961914-0.2524414,0.1586914c-0.8242188,0.6418457-1.6303711,1.3012695-2.4272461,1.9693604
			c-0.0825195,0.0692139-0.1630859,0.1402588-0.2456055,0.2098389c-1.081543,0.9134521-2.1420898,1.8464355-3.1728516,2.8079834
			c-0.0136719,0.0128174-0.0283203,0.0245361-0.0419922,0.0372314c-0.0058594,0.0056152-0.0117188,0.0114746-0.0175781,0.0169678
			c-0.3266602,0.3052979-0.644043,0.6190186-0.965332,0.9290771c-0.2871094,0.2768555-0.578125,0.5498047-0.8608398,0.8303223
			c-0.3818359,0.3786621-0.7539062,0.7659912-1.1279297,1.1513672c-0.2104492,0.2167969-0.4248047,0.4299316-0.6328125,0.6489258
			c-0.4316406,0.4541016-0.8535156,0.9169922-1.2749023,1.3803711c-0.1391602,0.152832-0.28125,0.3027344-0.4194336,0.4567871
			c-0.4736328,0.5286865-0.9379883,1.0661621-1.3984375,1.6066895c-0.0771484,0.09021-0.1557617,0.1784668-0.2324219,0.2689209
			c-0.5063477,0.5992432-1.0029297,1.2069092-1.4936523,1.8204346c-0.0249023,0.0314941-0.0507812,0.0625-0.0761719,0.0939941
			c-12.9760742,16.2822266-20.2548828,37.526123-21.265625,62.5074463c-0.0014648,0.0412598-0.0043945,0.0819092-0.0058594,0.123291
			c-0.0029297,0.0698242-0.0073242,0.1385498-0.0102539,0.208374c-0.0004883,0.0144043,0.0029297,0.0280762,0.0024414,0.0424805
			c-0.0737305,1.9123535-0.112793,3.8443604-0.112793,5.7983398c0,1.9326172,1.5673828,3.5,3.5,3.5s3.5-1.5673828,3.5-3.5
			c0-21.0820312,4.515625-39.5543213,13.2089844-54.5371094c0.0185547-0.0318604,0.0371094-0.0634766,0.0556641-0.0952148
			c0.7617188-1.3085938,1.5566406-2.5893555,2.3818359-3.84375c0.0566406-0.0859375,0.1142578-0.1706543,0.1713867-0.2563477
			c0.7978516-1.203125,1.6245117-2.3813477,2.480957-3.5334473c0.0922852-0.1236572,0.1870117-0.244873,0.2797852-0.3679199
			c0.8378906-1.1137695,1.7006836-2.2050781,2.59375-3.2695312c0.1162109-0.138916,0.2368164-0.2741699,0.3544922-0.4121094
			c0.890625-1.0476074,1.8041992-2.0743408,2.7485352-3.0725098c0.1147461-0.1212158,0.2338867-0.2385254,0.3491211-0.3591309
			c0.9716797-1.013916,1.9658203-2.0068359,2.9926758-2.9680176c0.0800781-0.0751953,0.1630859-0.1472168,0.2441406-0.2220459
			c0.8574219-0.7962646,1.734375-1.569458,2.625-2.3265381c0.1787109-0.1517334,0.3540039-0.3066406,0.5341797-0.4569092
			c7.112793-5.9425049,15.2446289-10.6295166,24.206543-14.0323486c0.0800781-0.0236816,0.1611328-0.0366211,0.2407227-0.0664062
			c9.9667969-3.7485352,20.8320312-5.8869629,32.3583984-6.3840332c0.0844727-0.00354,0.1669922-0.0114746,0.2519531-0.0148926
			c1.6401367-0.0672607,3.2939453-0.1005859,4.9599609-0.1011963c0.0141602,0,0.0283203-0.0008545,0.0424805-0.0008545
			c0.0004883,0,0.0014648,0,0.0024414,0c27.8481445,0.0004883,50.8579102,7.9104004,66.7324219,22.8571777
			c0.6005859,0.5661621,1.2016602,1.1323242,1.7822266,1.7180176c0.5087891,0.5136719,0.9995117,1.0444336,1.4926758,1.572998
			c0.5205078,0.5577393,1.0410156,1.1157227,1.5444336,1.6901855c0.4960938,0.5666504,0.9760742,1.1489258,1.4550781,1.7319336
			c0.4663086,0.5668945,0.9306641,1.1352539,1.3808594,1.7172852c0.4780273,0.6186523,0.9418945,1.2512207,1.4013672,1.887207
			c0.4179688,0.5769043,0.8320312,1.1567383,1.234375,1.7478027c0.4555664,0.6693115,0.8984375,1.3505859,1.3344727,2.0380859
			c0.3740234,0.588501,0.7426758,1.1818848,1.1020508,1.7834473c0.4282227,0.7171631,0.8457031,1.4443359,1.2539062,2.1801758
			c0.3354492,0.6035156,0.6630859,1.213501,0.9848633,1.8295898c0.3969727,0.7618408,0.7856445,1.5319824,1.1625977,2.3129883
			c0.2998047,0.6221924,0.5908203,1.2526855,0.8779297,1.887085c0.362793,0.802002,0.71875,1.6102295,1.0605469,2.4315186
			c0.269043,0.6459961,0.5268555,1.3022461,0.7822266,1.960083c0.3256836,0.8377686,0.6469727,1.6795654,0.9516602,2.536499
			c0.2397461,0.6757812,0.4663086,1.3637695,0.6933594,2.0515137c0.2861328,0.8671875,0.5703125,1.7363281,0.8354492,2.6223145
			c0.2133789,0.7127686,0.4106445,1.4396973,0.6103516,2.1647949c0.2451172,0.8896484,0.4902344,1.7788086,0.715332,2.6866455
			c0.1875,0.7590332,0.3564453,1.534668,0.5297852,2.3065186c0.203125,0.9033203,0.409668,1.8037109,0.5927734,2.7246094
			c0.1630859,0.817627,0.3041992,1.6542969,0.4511719,2.4857178c0.1601562,0.9044189,0.3271484,1.8031006,0.4692383,2.7237549
			c0.1376953,0.8967285,0.2514648,1.8151855,0.3720703,2.7272949c0.1171875,0.8859863,0.2446289,1.7631836,0.3452148,2.6635742
			c0.112793,1.0073242,0.1972656,2.0395508,0.2890625,3.0649414c0.0751953,0.8369141,0.1640625,1.6618652,0.2255859,2.510498
			c0.0869141,1.2028809,0.1416016,2.43396,0.2006836,3.6607666c0.0341797,0.7017822,0.0849609,1.3890381,0.1098633,2.0985107
			c0.0688477,1.9533691,0.1054688,3.9343262,0.1054688,5.9467773c0,1.2185059-0.0205078,2.4211426-0.0517578,3.614624
			c-0.0068359,0.2711182-0.0170898,0.5411377-0.0253906,0.8115234c-0.0341797,1.052002-0.0776367,2.0964355-0.1352539,3.1291504
			c-0.0068359,0.1234131-0.012207,0.2474365-0.0195312,0.3707275c-1.7836914,30.4025879-13.652832,52.5161133-25.8393555,70.5808105
			c-0.0380859,0.0562744-0.0761719,0.1125488-0.1142578,0.1687012c-1.3959961,2.0661621-2.7949219,4.0772705-4.184082,6.0439453
			c-0.1455078,0.2062988-0.2915039,0.4143066-0.4370117,0.619873c-0.3774414,0.5324707-0.753418,1.0603027-1.128418,1.5860596
			c-0.2192383,0.307251-0.4384766,0.6143799-0.6572266,0.9202881c-0.8706055,1.2169189-1.7353516,2.4196777-2.5874023,3.6035156
			c-0.7753906,1.0772705-1.5400391,2.1416016-2.2973633,3.1992188c-0.1464844,0.2049561-0.2905273,0.4080811-0.4365234,0.6120605
			c-0.5688477,0.7958984-1.1318359,1.5883789-1.6870117,2.3745117c-0.2763672,0.3917236-0.5498047,0.7827148-0.8222656,1.1716309
			c-0.4228516,0.6032715-0.8393555,1.2045898-1.2519531,1.8029785c-0.3154297,0.4575195-0.6303711,0.9161377-0.9389648,1.3707275
			c-0.355957,0.524292-0.7026367,1.0458984-1.0488281,1.5668945c-0.2563477,0.3851318-0.5239258,0.774292-0.7749023,1.1578369
			c-0.012207,0.0185547-0.0180664,0.0390625-0.0297852,0.0578613c-6.0395508,9.2536621-10.4067383,18.0593262-10.9384766,27.3220215
			c-0.0087891,0.0739746-0.0297852,0.1435547-0.0336914,0.21875c-0.0283203,0.5556641-0.0429688,1.1103516-0.0429688,1.6660156
			v5.9404297v3.75c0,0.8662109-0.7314453,1.5976562-1.5976562,1.5976562h-19.6816406h-52.3212891
			c-0.8652344,0-1.5966797-0.7314453-1.5966797-1.5976562c0-0.2443848-0.0258789-0.482666-0.0737305-0.7131348
			c-0.0004883-0.0020752,0-0.0043945-0.0004883-0.0065918c0-0.0615234,0-0.1269531,0-0.1943359
			c0-1.4287109,0.0185547-4.0585938,0.0742188-8.7431641l0.0019531-0.3476562
			c0.0009766-4.4140625-0.9462891-9.0048828-2.8955078-14.0351562c-0.6962891-1.8017578-2.7207031-2.6972656-4.5283203-1.9990234
			c-1.8027344,0.6982422-2.6972656,2.7255859-1.9990234,4.5283203c1.6308594,4.2089844,2.4238281,7.9716797,2.4228516,11.5048828
			l-0.0019531,0.2744141c-0.0556641,4.7197266-0.0742188,7.375-0.0742188,8.8173828c0,0.5478516,0,1.3613281,0.1669922,2.1777344
			c0.0126953,0.0871582,0.034668,0.1712646,0.050293,0.2575684c0.0209961,0.1169434,0.0419922,0.2332764,0.0678711,0.3483887
			c0.015625,0.069458,0.0283203,0.1396484,0.0454102,0.2084961h-1.1879883c-5.109375,0-9.265625,4.15625-9.265625,9.265625
			v2.1123047c0,5.109375,4.15625,9.265625,9.265625,9.265625c0.3530273,0,0.6865234-0.0678711,1.0078125-0.1650391h13.7763672
			c1.8408203,0,3.3330078-1.4921875,3.3330078-3.3330078s-1.4921875-3.3330078-3.3330078-3.3330078h-13.7636719
			c-0.3251953-0.0996094-0.6630859-0.1689453-1.0205078-0.1689453c-1.2490234,0-2.265625-1.0166016-2.265625-2.265625v-2.1123047
			c0-1.2490234,1.0166016-2.265625,2.265625-2.265625h91.0605469c1.2490234,0,2.265625,1.0166016,2.265625,2.265625v2.1123047
			c0,0.9475098,0.3803711,1.8043213,0.9921875,2.4345703h-36.6425781c-1.8408203,0-3.3330078,1.4921875-3.3330078,3.3330078
			s1.4921875,3.3330078,3.3330078,3.3330078h37.9746094c2.5097656,0,4.5507812,2.0410156,4.5507812,4.5507812v2.7539062
			c0,2.5097656-2.0410156,4.5517578-4.5507812,4.5517578h-4.4248047h-14.9189453h-17.7167969h-4.6621094H166.132843h-38.0048828
			c-2.5097656,0-4.5517578-2.0419922-4.5517578-4.5517578v-2.7285156c0-0.0332031,0.0009766-0.0644531,0.0009766-0.0859375
			c0-1.8398438-1.4902344-3.3251953-3.3300781-3.3271484c-0.0009766,0-0.0019531,0-0.0029297,0
			c-1.8261719,0-3.3105469,1.4755859-3.3320312,3.2978516c-0.0009766,0.0302734-0.0019531,0.0595703-0.0019531,0.0898438v2.7539062
			c0,6.1855469,5.0322266,11.2177734,11.2177734,11.2177734h38.0048828h20.5126953h4.6621094h17.7167969h14.9189453h4.4248047
			c6.1845703,0,11.2167969-5.0322266,11.2167969-11.2177734v-2.7539062c0-5.092041-3.4145508-9.3956299-8.0717773-10.7597656
			c0.9233398-0.630127,1.5307617-1.6896973,1.5307617-2.8916016v-2.1123047c0-5.109375-4.15625-9.265625-9.265625-9.265625
			h-1.1933594c0.0273438-0.1096191,0.0600586-0.217041,0.0830078-0.328125
			C222.7842102,321.2421875,222.8467102,320.8701172,222.8467102,320.4824219z"/>
	</g>
</g>
</svg>
