<?xml version="1.0" encoding="utf-8"?>
<!-- Generator: Adobe Illustrator 23.0.2, SVG Export Plug-In . SVG Version: 6.00 Build 0)  -->
<svg version="1.1" id="Layer_1" xmlns="http://www.w3.org/2000/svg" xmlns:xlink="http://www.w3.org/1999/xlink" x="0px" y="0px"
	 viewBox="0 0 192.5097656 234.8344727" style="enable-background:new 0 0 192.5097656 234.8344727;" xml:space="preserve">
<style type="text/css">
	.st0{fill:#1A459C;}
	.st1{opacity:0.25;}
	.st2{opacity:0.25;fill:#1B459B;}
</style>
<g>
	<g>
		<path class="st0" d="M4840.6962891,389.3935242h-82.8486328c-4.0361328,0-7.6992188-2.3291016-9.3334961-5.9335938
			c-0.027832-0.0625-0.0551758-0.125-0.081543-0.1879883c-1.5322266-3.6855469-1.0068359-7.6796875,1.4052734-10.6835938
			c0.0244141-0.0307617,0.0498047-0.0615234,0.074707-0.0917969l18.8286133-22.5942383
			c1.9594727-2.2973633,4.9077148-3.6347656,7.9350586-3.6347656h31.1542969v-62.3144531h-16.0942383
			c-5.4467773,0-10.3071289-3.0820312-12.6850586-8.043457c-0.019043-0.0405273-0.0380859-0.0810547-0.0566406-0.1220703
			c-2.2392578-4.9316406-1.4521484-10.7709961,2.0053711-14.8769531l37.6386719-45.1631012
			c2.5698242-3.1064453,6.4960938-4.8984375,10.7578125-4.8984375h0.0004883
			c4.2617188,0.0004883,8.1879883,1.7924805,10.7724609,4.9165039l37.6420898,45.1709137
			c3.5664062,4.2285156,4.3217773,10.1269531,1.9067383,15.0146484c-2.3789062,4.9375-7.2275391,8.0019531-12.6674805,8.0019531
			h-16.0947266v95.1748047C4850.9560547,384.8842468,4846.4492188,389.3935242,4840.6962891,389.3935242z M4763.5874023,376.3935242
			h74.3686523v-98.9404297c0-3.5898438,2.9101562-6.5,6.5-6.5h22.5947266c0.1601562,0,0.6484375,0,0.9589844-0.6513672
			c0.0170898-0.0356445,0.034668-0.0717773,0.0527344-0.1074219c0.0981445-0.1972656,0.0449219-0.5996094-0.2133789-0.9057617
			l-37.6821289-45.2187653c-0.0595703-0.0698242-0.3325195-0.2207031-0.7705078-0.2207031c-0.0004883,0-0.0014648,0-0.0024414,0
			c-0.4375,0.0004883-0.7094727,0.1513672-0.7539062,0.203125l-37.675293,45.2065582
			c-0.2368164,0.28125-0.2924805,0.7436523-0.1557617,1.1005859c0.3164062,0.59375,0.7734375,0.59375,0.9272461,0.59375h22.5942383
			c3.5898438,0,6.5,2.9101562,6.5,6.5v75.3144531c0,3.5898438-2.9101562,6.5-6.5,6.5h-36.4716797L4763.5874023,376.3935242z"/>
	</g>
</g>
<g class="st1">
	<path class="st0" d="M4852.809082,273.9001465h-22.5942383V375.574646c0,2.1171265-1.6430664,3.7657166-3.7602539,3.7657166
		h-82.8486328c-1.4116211,0-2.8256836-0.8214111-3.4130859-2.1171265c-0.5869141-1.411438-0.4711914-2.9443359,0.4716797-4.1185913
		l18.8286133-22.5943298c0.7055664-0.827179,1.8828125-1.2957153,2.9414062-1.2957153h37.6542969v-75.3144531h-22.5942383
		c-2.9384766,0-5.5273438-1.6485901-6.8227539-4.3528442c-1.1772461-2.5914612-0.824707-5.7671814,1.0585938-8.0028992
		l37.659668-45.1886597c2.8232422-3.4128571,8.7060547-3.4128571,11.5288086,0l37.6572266,45.1886597
		c1.8857422,2.2357178,2.3544922,5.411438,1.0585938,8.0028992
		C4858.3447266,272.2515564,4855.753418,273.9001465,4852.809082,273.9001465z"/>
</g>
<path class="st2" d="M178.5657501,73.0268784l-51.1660156-52.6645279c-1.3374405-1.3760986-3.3762741-1.804575-5.1518555-1.0829296
	c-1.7783432,0.7211857-2.9408951,2.4484425-2.9408951,4.3666973v40.7311325c0,9.178894,7.5570374,16.6461868,16.8454666,16.6461868
	h39.0333405c1.8934021,0,3.6036224-1.1330948,4.3409271-2.8778381
	C180.2640076,76.4013138,179.8856964,74.385025,178.5657501,73.0268784z"/>
<g>
	<path class="st0" d="M190.3974609,47.9848633L146.3125,2.3017578C144.8925781,0.8310547,142.9355469,0,140.8916016,0H18.0087891
		C8.0791016,0,0,8.0786133,0,18.0083008v198.8178711c0,9.9296875,8.0791016,18.0083008,18.0087891,18.0083008h156.4921875
		c9.9296875,0,18.0087891-8.0786133,18.0087891-18.0083008V53.215332
		C192.5097656,51.2641602,191.7519531,49.3891602,190.3974609,47.9848633z M138.0419922,15.4282227l39.1850586,40.6049805
		h-33.8461914c-2.8945312,0-5.3388672-2.3481445-5.3388672-5.1279297V15.4282227z M177.4433594,216.8261719
		c0,1.5952148-1.3476562,2.9428711-2.9423828,2.9428711H18.0087891c-1.5947266,0-2.9423828-1.3476562-2.9423828-2.9428711
		V18.0083008c0-1.5947266,1.3476562-2.9423828,2.9423828-2.9423828h104.9667969v35.8393555
		c0,11.1347656,9.1542969,20.1938477,20.4052734,20.1938477h34.0625V216.8261719z"/>
	<path class="st0" d="M146.2167969,144.8242188H48.5283203c-3.6982422,0-6.6962891,2.9980469-6.6962891,6.6967773
		c0,3.6982422,2.9980469,6.6962891,6.6962891,6.6962891h97.6884766c3.6982422,0,6.6962891-2.9980469,6.6962891-6.6962891
		C152.9130859,147.8222656,149.9150391,144.8242188,146.2167969,144.8242188z"/>
	<path class="st0" d="M126.1015625,177.3979492H48.5283203c-3.6982422,0-6.6962891,2.9985352-6.6962891,6.6967773
		c0,3.6987305,2.9980469,6.6967773,6.6962891,6.6967773h77.5732422c3.6982422,0,6.6962891-2.9980469,6.6962891-6.6967773
		C132.7978516,180.3964844,129.7998047,177.3979492,126.1015625,177.3979492z"/>
	<path class="st0" d="M136.2382812,99.519043c0,0.0952148,0.0118408,0.1875,0.0142822,0.2817383l-19.2242432,7.1635742
		c-1.9775391-2.5209961-5.0432129-4.1494141-8.4882812-4.1494141c-2.6103516,0-5.0065918,0.9321289-6.875,2.4799805
		L86.3570557,94.7299805c0.2608643-0.9282227,0.4105225-1.902832,0.4105225-2.9130859
		c0-5.9516602-4.8417969-10.793457-10.7929688-10.793457c-5.9521484,0-10.7939453,4.8417969-10.7939453,10.793457
		c0,1.300293,0.2429199,2.5419922,0.6662598,3.6972656L53.434082,105.5649414
		c-1.6610107-1.043457-3.6186523-1.6572266-5.7211914-1.6572266c-5.9511719,0-10.7929688,4.8417969-10.7929688,10.7929688
		c0,5.9516602,4.8417969,10.793457,10.7929688,10.793457c5.9521484,0,10.7939453-4.8417969,10.7939453-10.793457
		c0-1.300293-0.2429199-2.5419922-0.6662598-3.6972656l12.4130859-10.0507812
		c1.6608887,1.043457,3.6184082,1.6572266,5.7209473,1.6572266c2.3973389,0,4.6069336-0.7954102,6.4003906-2.1230469
		l15.6328125,10.7895508c-0.1665039,0.7519531-0.2607422,1.5302734-0.2607422,2.331543
		c0,5.9511719,4.8417969,10.7929688,10.7929688,10.7929688s10.7929688-4.8417969,10.7929688-10.7929688
		c0-0.0107422-0.0015869-0.0209961-0.001709-0.0322266l19.3608398-7.2138672
		c1.9812012,2.409668,4.9836426,3.9501953,8.3400879,3.9501953c5.9511719,0,10.7929688-4.8417969,10.7929688-10.7929688
		s-4.8417969-10.7929688-10.7929688-10.7929688C141.0800781,88.7260742,136.2382812,93.5678711,136.2382812,99.519043z"/>
</g>
</svg>
