<?xml version="1.0" encoding="utf-8"?>
<!-- Generator: Adobe Illustrator 24.0.1, SVG Export Plug-In . SVG Version: 6.00 Build 0)  -->
<svg version="1.1" id="Layer_1" xmlns="http://www.w3.org/2000/svg" xmlns:xlink="http://www.w3.org/1999/xlink" x="0px" y="0px"
	 viewBox="0 0 356.9 286.1" style="enable-background:new 0 0 356.9 286.1;" xml:space="preserve">
<style type="text/css">
	.st0{fill:#FFFFFF;}
	.st1{fill:#1B459B;}
	.st2{fill:#1A459C;}
	.st3{opacity:0.25;fill:#1B459B;}
</style>
<g>
	<g>
		<circle class="st0" cx="230.5" cy="31.1" r="6.1"/>
		<path class="st1" d="M232.2,0c-35.7,0-64.7,29-64.7,64.7c0,35.7,29,64.7,64.7,64.7c35.7,0,64.7-29,64.7-64.7
			C296.9,29,267.9,0,232.2,0z M230.5,22.4c4.8,0,8.8,3.9,8.8,8.8s-3.9,8.8-8.8,8.8s-8.8-3.9-8.8-8.8S225.7,22.4,230.5,22.4z
			 M249.2,102.5h-29.8c-3.5,0-6.3-2.8-6.3-6.3s2.8-6.3,6.3-6.3h8.2V60.5h-4.9c-3.5,0-6.3-2.8-6.3-6.3s2.8-6.3,6.3-6.3h11.2
			c3.5,0,6.3,2.8,6.3,6.3v35.8h9.1c3.5,0,6.3,2.8,6.3,6.3S252.7,102.5,249.2,102.5z"/>
	</g>
	<g>
		<g>
			<path class="st2" d="M181.1,278.7c-0.9,0-1.9-0.2-2.8-0.6l-89.3-42.1l-32.5,15.5c-3.2,1.5-7.1,0.2-8.6-3L9.7,171.4
				c-0.8-1.6-0.9-3.4-0.3-5.1c0.6-1.7,1.8-3,3.4-3.7l94.6-42.7c1.5-0.7,3.3-0.8,4.9-0.2c1,0.3,97.5,35,120.2,43.4
				c3.6,1.3,6.7,3.4,9.4,6.1c13.4-6,55.1-24.7,76-32.8c13.5-5.3,27.9,0.9,35.1,15c6.7,13.1,5.9,32.4-11.8,44
				c-26.8,17.4-151.9,80-157.2,82.7C183.1,278.5,182.1,278.7,181.1,278.7z M89,222.4c0.9,0,1.9,0.2,2.8,0.6l89.2,42
				c19.1-9.6,129.1-64.9,153.1-80.6c11-7.2,11.6-18.8,7.3-27.1c-5.1-9.9-13.3-10.9-18.9-8.8c-19.6,7.7-59.5,25.4-74,32
				c2.4,7.3,2.4,15.6-0.1,22.9c-4.2,12.4-16.9,24.5-38.8,17.7c-35.1-10.4-77.9-27.9-78.3-28.1c-3.3-1.4-4.9-5.2-3.6-8.5
				c1.4-3.3,5.2-4.9,8.5-3.6c0.4,0.2,42.7,17.4,77.2,27.7c5.3,1.7,18.1,4,22.7-9.5c3.7-10.9-1.3-21.4-8.1-23.9
				c-20.6-7.6-102.3-37-117.6-42.5l-86,38.8l32.4,65.4L86.2,223C87.1,222.6,88.1,222.4,89,222.4z"/>
		</g>
		<path class="st3" d="M304.7,156.4c-24.6,9.6-79.8,34.5-79.8,34.5l-0.6,0.1c-2.2-3.5-5.4-6.3-9.5-7.8
			c-23-8.5-120.2-43.4-120.2-43.4L0,182.4l38.3,77.2l35.3-16.9l92.1,43.4c0,0,129.8-64.9,156.6-82.3
			C348.9,186.4,328.9,147,304.7,156.4z"/>
	</g>
</g>
</svg>
