<?xml version="1.0" encoding="utf-8"?>
<!-- Generator: Adobe Illustrator 23.0.3, SVG Export Plug-In . SVG Version: 6.00 Build 0)  -->
<svg version="1.1" id="Layer_1" xmlns="http://www.w3.org/2000/svg" xmlns:xlink="http://www.w3.org/1999/xlink" x="0px" y="0px"
	 viewBox="0 0 335.2286682 320.8642883" style="enable-background:new 0 0 335.2286682 320.8642883;" xml:space="preserve">
<style type="text/css">
	.st0{opacity:0.25;fill:#1B459B;}
	.st1{fill:#1B459B;}
</style>
<g>
	<path class="st0" d="M95.1469193,170.497406H85.0046539c-4.0776901,0-7.3833084,3.3056183-7.3833084,7.383316v76.1378174
		c0,4.0776825,3.3056183,7.383316,7.3833084,7.383316h10.1422653c4.0776901,0,7.383316-3.3056335,7.383316-7.383316V177.880722
		C102.5302353,173.8030243,99.2246094,170.497406,95.1469193,170.497406z"/>
	<path class="st0" d="M153.0314941,169.4406891h-9.9715881c-4.1248169,0-7.4686432,3.3438263-7.4686432,7.4686432v78.0805969
		c0,4.1248169,3.3438263,7.4686279,7.4686432,7.4686279h9.9715881c4.1248322,0,7.4686584-3.343811,7.4686584-7.4686279v-78.0805969
		C160.5001526,172.7845154,157.1563263,169.4406891,153.0314941,169.4406891z"/>
	<path class="st0" d="M215.3780518,168.21698h-10.0432129c-4.1050415,0-7.4328308,3.3277893-7.4328308,7.4328461v77.2624512
		c0,4.1050568,3.3277893,7.4328461,7.4328308,7.4328461h10.0432129c4.1050415,0,7.4328461-3.3277893,7.4328461-7.4328461V175.649826
		C222.8108978,171.5447693,219.4830933,168.21698,215.3780518,168.21698z"/>
	<path class="st0" d="M275.0531921,169.1347656h-9.9225464c-4.1383667,0-7.4931641,3.3547974-7.4931641,7.4931641v78.6434021
		c0,4.1383667,3.3547974,7.4931641,7.4931641,7.4931641h9.9225464c4.1383667,0,7.4931641-3.3547974,7.4931641-7.4931641v-78.6434021
		C282.5463562,172.489563,279.1915588,169.1347656,275.0531921,169.1347656z"/>
	<path class="st0" d="M0,301.727478l0,10.3261108c0,4.8660278,3.9446745,8.8106995,8.8106766,8.8106995h302.5072327
		c4.8659973,0,8.8106689-3.9446716,8.8106689-8.8106995V301.727478c0-4.8659973-3.9446716-8.8106689-8.8106689-8.8106689H8.8106775
		C3.9446745,292.9168091,0,296.8614807,0,301.727478z"/>
	<path class="st0" d="M32.5256729,273.3209534v10.5690308c0,4.2250671,3.4250984,7.6501465,7.6501694,7.6501465h245.4379883
		c4.2250671,0,7.650177-3.4250793,7.650177-7.6501465v-10.5690308c0-4.2250671-3.4251099-7.6501465-7.650177-7.6501465H40.1758423
		C35.9507713,265.6708069,32.5256729,269.0958862,32.5256729,273.3209534z"/>
	<path class="st0" d="M171.8422089,87.2777328c62.1392975,0,112.5130768,33.977829,112.5130768,75.8914719H59.3291359
		C59.3291359,121.2555618,109.702919,87.2777328,171.8422089,87.2777328z"/>
	<path class="st0" d="M160.0642853,57.4753761c0,0,15.2146454-6.641983,22.9290619-6.641983
		c7.7144012,0,14.8280792,10.466156,23.0802307,10.466156c8.2521667,0,12.914978-2.2139969,12.914978-2.2139969V20.3449707
		c0,0-4.2602692,2.213995-13.7200623,2.213995s-13.0826874-10.466156-22.2751465-10.466156
		s-22.9290619,6.641983-22.9290619,6.641983V57.4753761z"/>
	<g>
		<path class="st1" d="M215.2638245,282.5322266c-1.9326172,0-3.5,1.5673828-3.5,3.5s1.5673828,3.5,3.5,3.5h6.1181641
			c1.9326172,0,3.5-1.5673828,3.5-3.5s-1.5673828-3.5-3.5-3.5H215.2638245z"/>
		<path class="st1" d="M65.9903946,310.4794922h-0.1289062H20.4112892c-2.9287109,0-5.3115234-2.3818359-5.3115234-5.3105469
			v-10.3261719c0-2.9287109,2.3828125-5.3105469,5.3115234-5.3105469h10.0722656h6.1191406h26.9208984h69.7519531h22.0263672
			h26.8720703h9.8388672c1.9326172,0,3.5-1.5673828,3.5-3.5s-1.5673828-3.5-3.5-3.5h-9.8388672h-26.8720703h-22.0263672H63.5235939
			H47.8058205c-0.6088867-0.5140381-1.3857422-0.8359375-2.2451172-0.8359375c-2.0908203,0-3.8564453-2.4316406-3.8564453-5.3105469
			v-10.3261719c0-0.3139648,0.0249023-0.6213379,0.0649414-0.9226074c0.0039062-0.03125,0.0063477-0.0631104,0.0107422-0.0939941
			c0.0400391-0.2746582,0.1000977-0.5400391,0.1708984-0.7990723c0.0151367-0.0562744,0.0288086-0.1135254,0.0458984-0.1688232
			c0.0698242-0.2329102,0.1547852-0.4555664,0.2470703-0.6715088c0.0322266-0.0739746,0.0639648-0.1479492,0.0981445-0.2197266
			c0.0922852-0.1936035,0.1948242-0.3774414,0.3041992-0.5531006c0.0483398-0.0775146,0.0981445-0.1529541,0.1499023-0.2264404
			c0.1123047-0.161377,0.230957-0.3143311,0.3574219-0.4556885c0.0571289-0.0640869,0.1166992-0.1234131,0.1762695-0.1831055
			c0.137207-0.1365967,0.2783203-0.2651367,0.4277344-0.3765869c0.0517578-0.0389404,0.105957-0.0718994,0.159668-0.107666
			c0.1689453-0.1124268,0.3417969-0.2150879,0.5229492-0.2929688c0.0327148-0.0141602,0.0664062-0.0233154,0.0991211-0.0362549
			c0.2060547-0.0799561,0.4169922-0.1439209,0.6347656-0.1751709c0.1274414-0.0183105,0.2563477-0.027832,0.3867188-0.027832
			c1.9326172,0,3.5-1.5673828,3.5-3.5s-1.5673828-3.5-3.5-3.5c-0.4287109,0-0.8500977,0.0358887-1.2661133,0.0910645
			c-0.0307617,0.003418-0.0605469-0.0007324-0.0913086,0.0036621c-0.1923828,0.0270996-0.3789062,0.0723877-0.5678711,0.1105957
			c-0.1054688,0.0216064-0.2124023,0.0369873-0.3168945,0.0620117c-0.3173828,0.0751953-0.628418,0.1671143-0.934082,0.2729492
			c-0.0180664,0.0061035-0.0366211,0.0102539-0.0546875,0.0166016c-1.355957,0.4779053-2.5898438,1.2495117-3.6542969,2.2437744
			c-0.0229492,0.0214844-0.0444336,0.0447998-0.0673828,0.0664062c-0.2333984,0.2216797-0.4584961,0.4527588-0.6743164,0.6954346
			c-0.0488281,0.0541992-0.0942383,0.1112061-0.1416016,0.1665039c-0.184082,0.2145996-0.3623047,0.4345703-0.5322266,0.6635742
			c-0.0615234,0.083252-0.1206055,0.1687012-0.1801758,0.2537842c-0.1464844,0.208374-0.2875977,0.4205322-0.421875,0.6392822
			c-0.0673828,0.1092529-0.1323242,0.2199707-0.1962891,0.3317871c-0.1162109,0.2028809-0.2270508,0.4094238-0.3325195,0.6201172
			c-0.0664062,0.1317139-0.1308594,0.263916-0.1928711,0.3986816c-0.0922852,0.2005615-0.1777344,0.4047852-0.2602539,0.6115723
			c-0.0595703,0.1489258-0.1191406,0.2974854-0.1733398,0.4494629c-0.0727539,0.2036133-0.137207,0.4111328-0.2006836,0.6196289
			c-0.0483398,0.1600342-0.0986328,0.3186035-0.1416016,0.4815674c-0.0566406,0.2150879-0.1025391,0.4344482-0.1484375,0.6540527
			c-0.0341797,0.1607666-0.0722656,0.3192139-0.1005859,0.4822998c-0.0429688,0.2480469-0.0717773,0.5007324-0.1015625,0.753418
			c-0.0161133,0.1396484-0.0395508,0.2768555-0.0517578,0.4179688c-0.0341797,0.3969727-0.0537109,0.7983398-0.0537109,1.2043457
			v10.3261719c0,2.2397461,0.5385742,4.3352051,1.4643555,6.1464844h-5.6850586H20.4112892
			c-6.4428711,0-11.7358398,4.9763184-12.2597656,11.2854004c-0.0029297,0.0327148-0.0141602,0.0625-0.0166016,0.095459
			c-0.0234375,0.3076172-0.0351562,0.6181641-0.0351562,0.9296875v10.3261719
			c0,6.7880859,5.5224609,12.3105469,12.3115234,12.3105469h45.4501991h0.1289062c1.9326172,0,3.5-1.5673828,3.5-3.5
			S67.9230118,310.4794922,65.9903946,310.4794922z"/>
		<path class="st1" d="M99.0304337,310.4794922h-6.1181641c-1.9326172,0-3.5,1.5673828-3.5,3.5s1.5673828,3.5,3.5,3.5h6.1181641
			c1.9326172,0,3.5-1.5673828,3.5-3.5S100.9630508,310.4794922,99.0304337,310.4794922z"/>
		<path class="st1" d="M158.9923401,310.4794922h-36.7119064c-1.9326172,0-3.5,1.5673828-3.5,3.5s1.5673828,3.5,3.5,3.5h36.7119064
			c1.9326172,0,3.5-1.5673828,3.5-3.5S160.9249573,310.4794922,158.9923401,310.4794922z"/>
		<path class="st1" d="M154.842926,187.8671875c-1.9326172,0-3.5,1.5673828-3.5,3.5v42.71875c0,1.9326172,1.5673828,3.5,3.5,3.5
			s3.5-1.5673828,3.5-3.5v-42.71875C158.342926,189.4345703,156.7755432,187.8671875,154.842926,187.8671875z"/>
		<path class="st1" d="M322.9181213,282.5322266c-0.9462891,0-1.8017578,0.3793945-2.4316406,0.9897461
			c-0.6298828-0.6103516-1.4853516-0.9897461-2.4316406-0.9897461h-69.7509766c-1.9326172,0-3.5,1.5673828-3.5,3.5
			s1.5673828,3.5,3.5,3.5h69.7509766c0.9462891,0,1.8017578-0.3793945,2.4316406-0.9897461
			c0.6298828,0.6103516,1.4853516,0.9897461,2.4316406,0.9897461c2.9287109,0,5.3105469,2.3818359,5.3105469,5.3105469v3.3183594
			v7.0078125c0,2.9287109-2.3818359,5.3105469-5.3105469,5.3105469h-15.8574219h-23.2509766h-6.1181641h-26.921875H187.546051
			h-6.5273438c-1.9326172,0-3.5,1.5673828-3.5,3.5s1.5673828,3.5,3.5,3.5h6.5273438h63.2236328h26.921875h6.1181641h23.2509766
			h15.8574219c6.7880859,0,12.3105469-5.5224609,12.3105469-12.3105469v-7.0078125v-3.3183594
			C335.2286682,288.0546875,329.7062073,282.5322266,322.9181213,282.5322266z"/>
		<path class="st1" d="M79.1075821,110.3056641c0.7519531,0,1.5087891-0.2412109,2.1484375-0.7382812
			c1.2412109-0.9667969,2.5224609-1.9169922,3.8076172-2.8251953c1.5791016-1.1152344,1.9541016-3.2988281,0.8388672-4.8779297
			c-1.1142578-1.578125-3.3007812-1.9550781-4.8779297-0.8388672c-1.3730469,0.9697266-2.7421875,1.9853516-4.0693359,3.0185547
			c-1.5244141,1.1875-1.7988281,3.3867188-0.6113281,4.9121094
			C77.0343399,109.8417969,78.0655899,110.3056641,79.1075821,110.3056641z"/>
		<path class="st1" d="M99.0460587,97.8710938c0.5234375,0,1.0556641-0.1181641,1.5566406-0.3681641
			c8.2744141-4.1181641,17.3085938-7.5009766,26.8515625-10.0546875c1.8671799-0.4990234,2.9765549-2.4179688,2.4765549-4.2851562
			c-0.4990234-1.8671875-2.4179611-2.9785156-4.2851486-2.4765625c-9.9941406,2.6738281-19.4697266,6.2236328-28.1621094,10.5507812
			c-1.7304688,0.8613281-2.4355469,2.9619141-1.5732422,4.6923828
			C96.5216446,97.1591797,97.7599258,97.8710938,99.0460587,97.8710938z"/>
		<path class="st1" d="M49.2394142,164.3554688h0.0009766h17.0317421c-0.6772461,1.4511719-1.0668945,3.0625-1.0668945,4.7666016
			v26.4394531c0,1.9326172,1.5673828,3.5,3.5,3.5s3.5-1.5673828,3.5-3.5v-26.4394531
			c0-2.3828125,1.9384766-4.3212891,4.3212891-4.3212891h10.8056641c2.3828125,0,4.3212891,1.9384766,4.3212891,4.3212891v5.5644531
			v19.1191406v49.5351562v6.2148438c0,2.0118408-1.3867188,3.6918945-3.25,4.1716309
			c-0.0791016,0.0202637-0.1557617,0.0505371-0.2358398,0.0661621c-0.2705078,0.0532227-0.5493164,0.0844727-0.8354492,0.0844727
			H76.5265274c-2.3828125,0-4.3212891-1.9384766-4.3212891-4.3222656v-0.1123047v-16.5126953v-18.25V214.28125
			c0-1.9326172-1.5673828-3.5-3.5-3.5s-3.5,1.5673828-3.5,3.5v0.3994141v18.25v16.5126953v0.1123047
			c0,1.4821777,0.2939453,2.8947754,0.8144531,4.1933594h-3.1171913c-1.9326172,0-3.5,1.5673828-3.5,3.5s1.5673828,3.5,3.5,3.5
			h4.7939491c1.2148438,0,2.2836914-0.6201172,2.9111328-1.5600586c1.7250977,1.0639648,3.7480469,1.6889648,5.9189453,1.6889648
			h10.8056641c0.3706055,0,0.7382812-0.0205078,1.1035156-0.0559082c0.1166992-0.0114746,0.2299805-0.0327148,0.3452148-0.0476074
			c0.0620117-0.0078125,0.1235352-0.0164795,0.1850586-0.0253906h17.4716797h28.1630783
			c0.5288086,0.0761719,1.0654297,0.1289062,1.6152344,0.1289062h0.2382812h3.8544922h6.4746094
			c0.5673828,0,1.1210938-0.0527344,1.6669922-0.1289062h13.2011719h4.7939453h21.0917969h7.5097656
			c0.5288086,0.0761719,1.0654297,0.1289062,1.6152344,0.1289062h10.8046875c0.5498047,0,1.0864258-0.0527344,1.6152344-0.1289062
			h33.1025391h12.5014648c0.1186523,0.0172119,0.2373047,0.0332031,0.3574219,0.046875
			c0.1855469,0.0214844,0.3740234,0.0317383,0.5620117,0.0441895c0.1362305,0.0087891,0.2695312,0.027832,0.4072266,0.0319824
			c0.0351562,0.0009766,0.0703125,0.0019531,0.1054688,0.0019531c0.0180664,0,0.0351562-0.0048828,0.0532227-0.005249
			c0.0610352,0.0009766,0.1201172,0.0091553,0.1811523,0.0091553h10.8046875c0.5498047,0,1.0864258-0.0527344,1.6152344-0.1289062
			h17.5136719h11.8378906c2.0908203,0,3.8564453,2.4316406,3.8564453,5.3105469v10.3261719c0,1.9326172,1.5673828,3.5,3.5,3.5
			s3.5-1.5673828,3.5-3.5v-10.3261719c0-6.7880859-4.8701172-12.3105469-10.8564453-12.3105469h-11.8378906h-8.6166992
			c0.0527344-0.1323242,0.0947266-0.2683105,0.1425781-0.4025879c0.090332-0.253418,0.1728516-0.5097656,0.2451172-0.7711182
			c0.0415039-0.151001,0.0820312-0.3018799,0.1171875-0.4549561c0.0668945-0.2857666,0.1186523-0.5761719,0.1630859-0.869873
			c0.0200195-0.1325684,0.0454102-0.2631836,0.0610352-0.3969727c0.0488281-0.4265137,0.0800781-0.8583984,0.0800781-1.2978516
			v-41.8466797v-19.1191406v-4.3447266v-15.1230469c0-0.6308594-0.0649414-1.2454834-0.1645508-1.8485107
			c-0.0068359-0.0491943-0.0024414-0.09729-0.0112305-0.1466064c-0.0097656-0.0534668-0.0249023-0.104248-0.0351562-0.1574707
			c-0.0258789-0.1335449-0.0585938-0.2641602-0.0888672-0.3961182c-0.0527344-0.2283936-0.109375-0.4549561-0.1748047-0.6773682
			c-0.0322266-0.107666-0.0673828-0.213623-0.1025391-0.3199463c-0.0830078-0.2525635-0.1733398-0.5006104-0.2729492-0.7445068
			c-0.0288086-0.0705566-0.0581055-0.140625-0.0883789-0.2104492c-0.0380859-0.0881348-0.0717773-0.1787109-0.1118164-0.265625
			h16.6606445c1.9326172,0,3.5-1.5673828,3.5-3.5c0-0.845459-0.0229492-1.6883545-0.0576172-2.5297852
			c-0.0078125-0.1726074-0.019043-0.3452148-0.027832-0.5178223c-0.0371094-0.7365723-0.0874023-1.4711914-0.1508789-2.2041016
			c-0.0078125-0.0859375-0.0151367-0.171875-0.0234375-0.2578125c-1.8144531-19.9287109-13.4560547-38.496582-33.3378906-53.0993652
			c-0.1875-0.1381836-0.3779297-0.2746582-0.5668945-0.4118652c-0.7412109-0.5373535-1.4936523-1.0693359-2.2573242-1.5957031
			c-0.2128906-0.1468506-0.4233398-0.295166-0.6381836-0.4411621c-0.1142578-0.0778809-0.2250977-0.1577148-0.340332-0.2353516
			c-0.206543-0.1391602-0.4238281-0.2678223-0.6318359-0.4058838c-1.0458984-0.696167-2.1098633-1.3795166-3.190918-2.050293
			c-0.4311523-0.2680664-0.862793-0.5357666-1.2988281-0.7993164c-1.1020508-0.6651611-2.2207031-1.3172607-3.3569336-1.9559326
			c-0.6630859-0.3737793-1.3349609-0.7373047-2.0078125-1.1009521c-0.8745117-0.4714355-1.7524414-0.9395752-2.6455078-1.3952637
			c-0.7792969-0.3988037-1.5673828-0.7874756-2.3583984-1.1732178c-0.2260742-0.1096191-0.4453125-0.2252197-0.671875-0.3339844
			c-0.0400391-0.019165-0.0820312-0.0266113-0.1225586-0.0441895c-6.965332-3.3394775-14.3671875-6.1679688-22.1118164-8.458252
			c-0.0859375-0.0253906-0.1728516-0.0552979-0.2587891-0.0805664c-0.0087891-0.0026855-0.0180664-0.0024414-0.0268555-0.0050049
			c-6.8730469-2.0184326-14.0073242-3.6121826-21.3388672-4.7629395c-0.0415039-0.0081787-0.0791016-0.0252686-0.121582-0.0318604
			c-0.8945312-0.1403809-1.7939453-0.2679443-2.6943359-0.3947754c-0.8017578-0.1125488-1.6054688-0.2180176-2.4116211-0.3200684
			c-1.144043-0.1450195-2.2910156-0.2791748-3.4418945-0.4025879c-0.6386719-0.0683594-1.2749023-0.1411133-1.9155273-0.2028809
			c-1.4580078-0.140625-2.9223633-0.2585449-4.3886719-0.364502c-0.7182617-0.052002-1.4375-0.1005859-2.1586914-0.1442871
			c-1.4492188-0.0876465-2.9008789-0.1619873-4.3554688-0.2160645c-0.7138672-0.0266113-1.4296875-0.0427246-2.1459961-0.0611572
			c-1.0600586-0.0272217-2.1201172-0.0450439-3.1811523-0.0544434c0.5253906-0.6121826,0.8544922-1.3980713,0.8544922-2.2679443
			V47.7197266c4.7246094-1.9111328,13.2060547-4.9599609,17.6640625-4.9599609c2.40625,0,5.2666016,1.984375,8.2958984,4.0849609
			c3.7695312,2.6132812,8.0410156,5.5761719,13.0087891,5.5761719c8.1699219,0,12.9091797-2.1386719,13.4228516-2.3828125
			c1.2197266-0.5791016,1.9980469-1.8095703,1.9980469-3.1611328V11.1171875c0-1.2050781-0.6425781-2.3144531-1.6640625-2.9550781
			c-1.0224609-0.640625-2.3212891-0.6972656-3.4072266-0.1728516c-0.0341797,0.0175781-3.5351562,1.671875-11.0927734,1.671875
			c-3.1591797,0-5.5126953-1.9023438-8.2373047-4.1044922C200.9737854,2.9521484,197.3214417,0,191.8712463,0
			c-9.1806641,0-22.140625,6.2148438-22.6875,6.4794922c-1.2089844,0.5849609-1.9765625,1.8085938-1.9765625,3.1513672v35.6826172
			c-0.0009766,0.0527344-0.0009766,0.1054688,0,0.1572266v27.0654297c0,0.878418,0.3349609,1.6716309,0.8696289,2.2861328
			c-8.362793,0.1589355-16.6977539,0.8728027-24.7954102,2.1425781c-1.9101562,0.2998047-3.2148438,2.0908203-2.9160156,4
			s2.0849609,3.2070312,4,2.9160156c16.6157227-2.6062012,34.2939453-2.776123,51.03125-0.5178223
			c0.2744141,0.0371094,0.546875,0.0775146,0.8208008,0.1159668c0.7709961,0.1079102,1.5410156,0.2198486,2.3076172,0.3381348
			c7.2792969,1.1218262,14.3056641,2.6865234,21.0083008,4.6540527c0.0087891,0.0026855,0.0166016,0.0075684,0.0253906,0.0102539
			c1.5175781,0.4453125,3.0566406,0.9248047,4.5771484,1.4238281c0.012207,0.0039062,0.0244141,0.0050049,0.0366211,0.0087891
			c5.8632812,1.9267578,11.4545898,4.1655273,16.7250977,6.6837158c0.0361328,0.0187988,0.065918,0.0447998,0.1025391,0.0623779
			c9.0263672,4.3271484,17.1044922,9.4697266,24.0097656,15.2841797c0.0673828,0.0568848,0.1420898,0.0977783,0.2124023,0.1486816
			c4.3608398,3.6914062,8.234375,7.6481934,11.5664062,11.8239746c0.0292969,0.0402832,0.0483398,0.0847168,0.0795898,0.1240234
			c8.1582031,10.2529297,12.8203125,21.7011719,13.6025391,33.3144531h-38.7763672H214.233551h-8.5136719h-32.3525391h-51.0830002
			H91.6349258h-38.776371c0.7822266-11.6132812,5.4443359-23.0615234,13.6025429-33.3144531
			c1.203125-1.5117188,0.9521484-3.7138672-0.5605469-4.9179688c-1.5117188-1.2011719-3.713871-0.953125-4.9179726,0.5605469
			c-9.96875,12.5285645-15.2387695,26.7612305-15.2416992,41.1594238c0,0.0041504-0.0014648,0.0081787-0.0014648,0.0124512
			C45.7394142,162.7880859,47.306797,164.3554688,49.2394142,164.3554688z M174.2071838,11.8876953
			C177.9386292,10.2646484,186.1524963,7,191.8712463,7c2.8310547,0,4.8554688,1.5205078,7.9238281,4.0009766
			c3.2832031,2.6533203,7.0029297,5.6601562,12.6376953,5.6601562c3.8681641,0,6.9033203-0.3769531,9.1640625-0.8369141v28.5566406
			c-1.7617188,0.4804688-4.6289062,1.0400391-8.4208984,1.0400391c-2.7783203,0-5.8095703-2.1025391-9.0195312-4.3291016
			c-3.7802734-2.6210938-7.6894531-5.3320312-12.2851562-5.3320312c-5.0615234,0-12.6728516,2.5361328-17.6640625,4.4365234
			V11.8876953z M195.6607971,253.7490234c-1.8994141-0.4545898-3.3198242-2.1560059-3.3198242-4.1933594v-1.5410156v-23.0048828
			v-14.5693359v-3.8339844v-16.8710938v-20.6132812c0-2.3828125,1.9384766-4.3212891,4.3212891-4.3212891h10.8046875
			c2.3828125,0,4.3212891,1.9384766,4.3212891,4.3212891v1.5722656v23.0048828v14.5693359v3.8339844v16.8701172v20.5830078
			c0,1.7878418-1.090332,3.3251953-2.640625,3.9821777c-0.2167969,0.0916748-0.4462891,0.1555176-0.6791992,0.2111816H195.6607971z
			 M217.9742737,253.7490234c0.5200195-1.2983398,0.8139648-2.7106934,0.8139648-4.1923828v-0.0009766v-20.5830078v-16.8701172
			v-3.8339844v-14.5693359v-23.0048828v-1.5722656c0-1.7041016-0.3896484-3.3154297-1.0668945-4.7666016h28.3769531
			c-0.6772461,1.4511719-1.0668945,3.0625-1.0668945,4.7666016V195.5625v19.1191406v4.3457031v16.5117188v14.0166016
			c0,1.4847412,0.2856445,2.8973389,0.796875,4.1933594h-3.6435547H217.9742737z M267.1647034,164.8015137
			c0.2792969,0.0004883,0.5512695,0.03125,0.8164062,0.0825195c0.0834961,0.0161133,0.1621094,0.0454102,0.2436523,0.0661621
			c0.1835938,0.0471191,0.3652344,0.0977783,0.5380859,0.1674805c0.0805664,0.0321045,0.15625,0.072998,0.234375,0.1097412
			c0.168457,0.0799561,0.3334961,0.1656494,0.4892578,0.2659912c0.0654297,0.0419922,0.1279297,0.0881348,0.190918,0.1335449
			c0.1582031,0.1142578,0.309082,0.2374268,0.4501953,0.371582c0.050293,0.0478516,0.0996094,0.0961914,0.1474609,0.1463623
			c0.1396484,0.1463623,0.2680664,0.3031006,0.3862305,0.4677734c0.0380859,0.0533447,0.078125,0.1054688,0.1142578,0.1607666
			c0.1108398,0.1702881,0.2050781,0.3513184,0.2919922,0.5371094c0.0288086,0.0625,0.0625,0.1223145,0.0883789,0.1867676
			c0.0771484,0.1889648,0.1333008,0.3879395,0.1831055,0.5891113c0.0170898,0.0688477,0.0419922,0.1337891,0.0556641,0.2039795
			c0.0527344,0.2695312,0.0839844,0.546875,0.0839844,0.831665v15.1230469v4.3447266v19.1191406v41.8466797
			c0,0.267334-0.0322266,0.5267334-0.0791016,0.7807617c-0.0092773,0.0507812-0.0170898,0.1018066-0.0283203,0.1519775
			c-0.0541992,0.2449951-0.1269531,0.4830322-0.2207031,0.7105713c-0.0146484,0.0352783-0.0327148,0.0690918-0.0478516,0.104126
			c-0.0981445,0.2203369-0.2114258,0.432251-0.3432617,0.6312256c-0.0107422,0.0161133-0.0195312,0.0332031-0.0302734,0.0491943
			c-0.144043,0.2110596-0.3081055,0.4068604-0.4858398,0.5889893c-0.0263672,0.0266113-0.0537109,0.0523682-0.0805664,0.0784912
			c-0.5478516,0.5323486-1.2368164,0.9144287-2.0039062,1.0980225h-2.9643555h-4.7939453h-5.0493164
			c-0.1879883-0.0450439-0.371582-0.1020508-0.5493164-0.1708984c-0.046875-0.0179443-0.0976562-0.0285645-0.144043-0.0482178
			c-1.5424805-0.6605225-2.6264648-2.1922607-2.6264648-3.9742432v-14.0166016v-16.5117188v-4.3457031V195.5625v-26.4404297
			c0-2.3828125,1.9384766-4.3212891,4.3212891-4.3212891h10.8037109
			C267.1593323,164.8007812,267.1617737,164.8015137,267.1647034,164.8015137z M186.4078674,164.3554688
			c-0.6772461,1.4511719-1.0668945,3.0625-1.0668945,4.7666016v20.6132812v16.8710938v3.8339844v14.5693359v23.0048828v1.5410156
			c0,1.4821777,0.2939453,2.8947754,0.8144531,4.1933594h-19.7099609h-4.7939453h-4.0844727
			c0.4936523-1.2324219,0.7758789-2.5646973,0.7758789-3.9619141c0-0.0227051-0.0063477-0.0435791-0.0068359-0.0661621
			c0.0009766-0.0549316,0.0068359-0.1091309,0.0068359-0.1643066v-1.2314453c0-1.9326172-1.5673828-3.5-3.5-3.5
			s-3.5,1.5673828-3.5,3.5v1.2275391c-0.0009766,0.4716797-0.0742188,0.9326172-0.2207031,1.3701172
			c-0.0175781,0.0529785-0.0209961,0.1068115-0.0361328,0.1601562c-0.4946289,1.3165283-1.703125,2.331543-3.2216797,2.6660156
			h-4.4287109h-8.0625c-0.7714844-0.1699219-1.4638672-0.5126953-2.0263672-0.9852295
			c-0.0488281-0.0440674-0.1054688-0.079834-0.1523438-0.1260986c-0.0371094-0.0339355-0.0654297-0.074585-0.1010742-0.1097412
			c-0.7382812-0.7756348-1.1987305-1.8184814-1.1987305-2.9713135v-26.3359375v-14.2392578v-3.7480469v-16.4873047v-19.6240234
			c0-1.1535645,0.4609375-2.1970215,1.199707-2.9727783c0.0351562-0.0345459,0.0629883-0.074585,0.0996094-0.1079102
			c0.0473633-0.0467529,0.1044922-0.0830078,0.1542969-0.1275635c0.815918-0.6850586,1.9033203-1.1130371,3.105957-1.1130371
			h10.3291016c2.5136719,0,4.5595703,1.8349609,4.5595703,4.0898438c0,0.3942871,0.0795898,0.7668457,0.2001953,1.1206055
			c-0.1206055,0.3537598-0.2001953,0.7263184-0.2001953,1.1206055v3.7470703c0,1.9326172,1.5673828,3.5,3.5,3.5
			s3.5-1.5673828,3.5-3.5v-3.7470703c0-0.3942871-0.0795898-0.7668457-0.2001953-1.1206055
			c0.1206055-0.3537598,0.2001953-0.7263184,0.2001953-1.1206055c0-1.6164551-0.3710938-3.1489258-1.0214844-4.5351562h16.0458984
			H186.4078674z M125.9161758,164.3554688c-0.6503906,1.3862305-1.0214844,2.9187012-1.0214844,4.5351562v0.2314453v19.6240234
			v16.4873047v3.7480469v14.2392578v26.3359375v0.2304688c0,1.3972168,0.2822266,2.7294922,0.7758789,3.9619141h-19.2329102
			h-8.5986328c0.5205078-1.298584,0.8144531-2.7111816,0.8144531-4.1933594v-6.2148438v-49.5351562v-19.1191406v-5.5644531
			c0-1.7041016-0.3896484-3.3154297-1.0668945-4.7666016h24.6977539H125.9161758z"/>
	</g>
</g>
</svg>
