<?xml version="1.0" encoding="utf-8"?>
<!-- Generator: Adobe Illustrator 23.0.3, SVG Export Plug-In . SVG Version: 6.00 Build 0)  -->
<svg version="1.1" id="Layer_1" xmlns="http://www.w3.org/2000/svg" xmlns:xlink="http://www.w3.org/1999/xlink" x="0px" y="0px"
	 viewBox="0 0 254.0644531 353.0449219" style="enable-background:new 0 0 254.0644531 353.0449219;" xml:space="preserve">
<style type="text/css">
	.st0{opacity:0.25;fill:#1B4899;}
	.st1{fill:#1B459B;}
</style>
<path class="st0" d="M182.0552673,88.4295502l-25.5666656,29.0048065V23.008112
	c0-4.2857857,3.5065613-7.7923365,7.7923431-7.7923365h35.548645c4.2857819,0,7.7923279,3.5065508,7.7923279,7.7923365v94.4262466
	L182.0552673,88.4295502z"/>
<g>
	<path class="st1" d="M146.1357422,235.6591797c0,1.8408203,1.4921875,3.3330078,3.3330078,3.3330078h6.4003906
		c1.8408203,0,3.3330078-1.4921875,3.3330078-3.3330078s-1.4921875-3.3330078-3.3330078-3.3330078H149.46875
		C147.6279297,232.3261719,146.1357422,233.8183594,146.1357422,235.6591797z"/>
	<path class="st1" d="M176.8574219,235.6591797c0,1.8408203,1.4921875,3.3330078,3.3330078,3.3330078h5.3759766
		c1.8408203,0,3.3330078-1.4921875,3.3330078-3.3330078s-1.4921875-3.3330078-3.3330078-3.3330078h-5.3759766
		C178.3496094,232.3261719,176.8574219,233.8183594,176.8574219,235.6591797z"/>
	<path class="st1" d="M124.6396484,235.6591797c0-1.8408203-1.4921875-3.3330078-3.3330078-3.3330078H48.3427734
		c-1.8408203,0-3.3330078,1.4921875-3.3330078,3.3330078s1.4921875,3.3330078,3.3330078,3.3330078h72.9638672
		C123.1474609,238.9921875,124.6396484,237.5,124.6396484,235.6591797z"/>
	<path class="st1" d="M50.3427734,254.4287109h-2c-1.8408203,0-3.3330078,1.4921875-3.3330078,3.3330078
		s1.4921875,3.3330078,3.3330078,3.3330078h2c1.8408203,0,3.3330078-1.4921875,3.3330078-3.3330078
		S52.1835938,254.4287109,50.3427734,254.4287109z"/>
	<path class="st1" d="M68.1171875,260.5253906c0.5595703,0.3701172,1.2001953,0.5703125,1.859375,0.5703125h15.9199219h0.0107422
		h3.7099609c1.8300781,0,3.3300781-1.5,3.3300781-3.3300781c0-1.8398438-1.5-3.3398438-3.3300781-3.3398438h-3.7099609h-0.0107422
		H69.9765625c-0.6591797,0-1.2998047,0.2001953-1.859375,0.5703125c-0.5498047-0.3701172-1.1904297-0.5703125-1.8505859-0.5703125
		c-1.8398438,0-3.3398438,1.5-3.3398438,3.3398438c0,1.8300781,1.5,3.3300781,3.3398438,3.3300781
		C66.9267578,261.0957031,67.5673828,260.8955078,68.1171875,260.5253906z"/>
	<path class="st1" d="M141.4765625,257.765625c0,1.8300781,1.5,3.3300781,3.3300781,3.3300781
		c0.6699219,0,1.3105469-0.2001953,1.8603516-0.5703125c0.5498047,0.3701172,1.1904297,0.5703125,1.8603516,0.5703125h19.6396484
		c1.8300781,0,3.3300781-1.5,3.3300781-3.3300781c0-1.8398438-1.5-3.3398438-3.3300781-3.3398438h-19.6396484
		c-0.6699219,0-1.3105469,0.2001953-1.8603516,0.5703125c-0.5498047-0.3701172-1.1904297-0.5703125-1.8603516-0.5703125
		C142.9765625,254.4257812,141.4765625,255.9257812,141.4765625,257.765625z"/>
	<path class="st1" d="M132.2167969,257.765625c0-1.8398438-1.4902344-3.3398438-3.3300781-3.3398438h-19.6396484
		c-0.6601562,0-1.2998047,0.2001953-1.8505859,0.5703125c-0.5498047-0.3701172-1.1894531-0.5703125-1.859375-0.5703125
		c-1.8398438,0-3.3300781,1.5-3.3300781,3.3398438c0,1.8300781,1.4902344,3.3300781,3.3300781,3.3300781
		c0.6699219,0,1.3095703-0.2001953,1.859375-0.5703125c0.5507812,0.3701172,1.1904297,0.5703125,1.8505859,0.5703125h19.6396484
		C130.7265625,261.0957031,132.2167969,259.5957031,132.2167969,257.765625z"/>
	<path class="st1" d="M185.9365234,254.9960938c-0.5498047-0.3701172-1.1894531-0.5703125-1.8496094-0.5703125
		c-1.8398438,0-3.3300781,1.5-3.3300781,3.3398438c0,1.8300781,1.4902344,3.3300781,3.3300781,3.3300781
		c0.6601562,0,1.2998047-0.2001953,1.8496094-0.5703125c0.5507812,0.3701172,1.2001953,0.5703125,1.8603516,0.5703125h15.9296875
		c0.003418,0,0.0063477-0.0009766,0.0097656-0.0009766h1.9853516c1.8408203,0,3.3330078-1.4921875,3.3330078-3.3330078
		s-1.4921875-3.3330078-3.3330078-3.3330078h-1.9663086c-0.0097656,0-0.019043-0.0029297-0.0288086-0.0029297H187.796875
		C187.1367188,254.4257812,186.4873047,254.6259766,185.9365234,254.9960938z"/>
	<path class="st1" d="M50.2470703,276.5322266h-1.9042969c-1.8408203,0-3.3330078,1.4921875-3.3330078,3.3330078
		s1.4921875,3.3330078,3.3330078,3.3330078h1.9042969c1.8408203,0,3.3330078-1.4921875,3.3330078-3.3330078
		S52.0878906,276.5322266,50.2470703,276.5322266z"/>
	<path class="st1" d="M158.7978516,276.5322266h-17.1396484c-0.3310547,0-0.6503906,0.0488281-0.9521484,0.1386719
		c-0.3017578-0.0898438-0.6210938-0.1386719-0.9521484-0.1386719h-11.4267578c-1.8408203,0-3.3330078,1.4921875-3.3330078,3.3330078
		s1.4921875,3.3330078,3.3330078,3.3330078h11.4267578c0.3310547,0,0.6503906-0.0488281,0.9521484-0.1386719
		c0.3017578,0.0898438,0.6210938,0.1386719,0.9521484,0.1386719h17.1396484c1.8408203,0,3.3330078-1.4921875,3.3330078-3.3330078
		S160.6386719,276.5322266,158.7978516,276.5322266z"/>
	<path class="st1" d="M172.1289062,283.1982422c1.8408203,0,3.3330078-1.4921875,3.3330078-3.3330078
		s-1.4921875-3.3330078-3.3330078-3.3330078h-1.9042969c-1.8408203,0-3.3330078,1.4921875-3.3330078,3.3330078
		s1.4921875,3.3330078,3.3330078,3.3330078H172.1289062z"/>
	<path class="st1" d="M109.2832031,276.5322266c-1.8408203,0-3.3330078,1.4921875-3.3330078,3.3330078
		s1.4921875,3.3330078,3.3330078,3.3330078h1.9052734c1.8408203,0,3.3330078-1.4921875,3.3330078-3.3330078
		s-1.4921875-3.3330078-3.3330078-3.3330078H109.2832031z"/>
	<path class="st1" d="M67.3867188,283.1982422h11.4267578c0.3310547,0,0.6503906-0.0488281,0.9521484-0.1386719
		c0.3017578,0.0898438,0.6210938,0.1386719,0.9521484,0.1386719h17.1396484c1.8408203,0,3.3330078-1.4921875,3.3330078-3.3330078
		s-1.4921875-3.3330078-3.3330078-3.3330078H80.7177734c-0.3310547,0-0.6503906,0.0488281-0.9521484,0.1386719
		c-0.3017578-0.0898438-0.6210938-0.1386719-0.9521484-0.1386719H67.3867188c-1.8408203,0-3.3330078,1.4921875-3.3330078,3.3330078
		S65.5458984,283.1982422,67.3867188,283.1982422z"/>
	<path class="st1" d="M173.2958984,168.2685547c1.9326172,0,3.5-1.5673828,3.5-3.5s-1.5673828-3.5-3.5-3.5h-7.4375
		c-1.9326172,0-3.5,1.5673828-3.5,3.5s1.5673828,3.5,3.5,3.5H173.2958984z"/>
	<path class="st1" d="M133.1318359,161.2685547H48.3427734c-1.9326172,0-3.5,1.5673828-3.5,3.5s1.5673828,3.5,3.5,3.5h84.7890625
		c1.9326172,0,3.5-1.5673828,3.5-3.5S135.0644531,161.2685547,133.1318359,161.2685547z"/>
	<path class="st1" d="M205.7216797,168.2685547c1.9326172,0,3.5-1.5673828,3.5-3.5s-1.5673828-3.5-3.5-3.5h-4.1630859
		c-1.9326172,0-3.5,1.5673828-3.5,3.5s1.5673828,3.5,3.5,3.5H205.7216797z"/>
	<path class="st1" d="M135.8427734,186.8720703c0-1.9326172-1.5673828-3.5-3.5-3.5h-5c-1.9326172,0-3.5,1.5673828-3.5,3.5
		s1.5673828,3.5,3.5,3.5h5C134.2753906,190.3720703,135.8427734,188.8046875,135.8427734,186.8720703z"/>
	<path class="st1" d="M48.3427734,190.3720703h57c1.9326172,0,3.5-1.5673828,3.5-3.5s-1.5673828-3.5-3.5-3.5h-57
		c-1.9326172,0-3.5,1.5673828-3.5,3.5S46.4101562,190.3720703,48.3427734,190.3720703z"/>
	<path class="st1" d="M185.5664062,190.3720703c1.9326172,0,3.5-1.5673828,3.5-3.5s-1.5673828-3.5-3.5-3.5h-0.2236328
		c-1.9326172,0-3.5,1.5673828-3.5,3.5s1.5673828,3.5,3.5,3.5H185.5664062z"/>
	<path class="st1" d="M147.8427734,186.8720703c0,1.9326172,1.5673828,3.5,3.5,3.5h16c1.9326172,0,3.5-1.5673828,3.5-3.5
		s-1.5673828-3.5-3.5-3.5h-16C149.4101562,183.3720703,147.8427734,184.9394531,147.8427734,186.8720703z"/>
	<path class="st1" d="M184.5126953,346.0449219h-11.9052734c-1.9326172,0-3.5,1.5673828-3.5,3.5s1.5673828,3.5,3.5,3.5h11.9052734
		c1.9326172,0,3.5-1.5673828,3.5-3.5S186.4453125,346.0449219,184.5126953,346.0449219z"/>
	<path class="st1" d="M134.7275391,346.0449219H57.8867188c-1.9326172,0-3.5,1.5673828-3.5,3.5s1.5673828,3.5,3.5,3.5h76.8408203
		c1.9326172,0,3.5-1.5673828,3.5-3.5S136.6601562,346.0449219,134.7275391,346.0449219z"/>
	<path class="st1" d="M3.5,263.7177734c1.9326172,0,3.5-1.5673828,3.5-3.5V248.3125c0-1.9326172-1.5673828-3.5-3.5-3.5
		s-3.5,1.5673828-3.5,3.5v11.9052734C0,262.1503906,1.5673828,263.7177734,3.5,263.7177734z"/>
	<path class="st1" d="M24.3359375,346.0449219h-6.2509766C11.9726562,346.0449219,7,341.0722656,7,334.9599609v-59.5898438
		c0-1.9326172-1.5673828-3.5-3.5-3.5s-3.5,1.5673828-3.5,3.5v59.5898438c0,9.9716797,8.1132812,18.0849609,18.0849609,18.0849609
		h6.2509766c1.9326172,0,3.5-1.5673828,3.5-3.5S26.2685547,346.0449219,24.3359375,346.0449219z"/>
	<path class="st1" d="M249.7509766,6.3917236c-0.0039062-0.0042725-0.0058594-0.0093994-0.0097656-0.0137939
		c-0.0214844-0.0255127-0.046875-0.0471191-0.0688477-0.0725098c-0.3837891-0.4455566-0.7890625-0.8710938-1.2138672-1.2773438
		c-0.090332-0.086792-0.1850586-0.1676025-0.2773438-0.2521973c-0.3691406-0.338623-0.7495117-0.6630859-1.1455078-0.970459
		c-0.125-0.0969238-0.2514648-0.1899414-0.3789062-0.2834473c-0.3779297-0.277832-0.765625-0.5405273-1.1650391-0.7890625
		c-0.1430664-0.0888672-0.2856445-0.177002-0.4306641-0.2617188c-0.3999023-0.2336426-0.8100586-0.4487305-1.2285156-0.6517334
		c-0.1499023-0.0726318-0.2973633-0.1479492-0.4487305-0.2163086c-0.4277344-0.1932373-0.8666992-0.3641357-1.3115234-0.5240479
		c-0.1494141-0.0539551-0.2958984-0.1141357-0.4467773-0.1640625c-0.4560547-0.1503906-0.9223633-0.2747803-1.3935547-0.388916
		c-0.1474609-0.0358887-0.2915039-0.0811768-0.4394531-0.1132812c-0.4858398-0.1047363-0.980957-0.1799316-1.4799805-0.2446289
		c-0.1376953-0.0180664-0.2724609-0.0480957-0.4106445-0.0629883C237.2695312,0.0380859,236.628418,0,235.9785156,0h-27.0576172
		h-35.5488281h-1.6044922h-37.8798828h-11.9052734h-15.1513672H18.0849609c-0.3984375,0-0.7939453,0.0136719-1.1865234,0.0380859
		c-0.0654297,0.0042725-0.1259766,0.0239258-0.1904297,0.0317383C10.2788086,0.5577393,4.7871094,4.4134521,1.9887695,9.8813477
		c-0.015625,0.0288086-0.0375977,0.052124-0.0522461,0.081543c-0.1567383,0.3103027-0.3041992,0.6252441-0.4428711,0.9442139
		C1.421875,11.072998,1.359375,11.2431641,1.2919922,11.4116211c-0.1230469,0.3092041-0.237793,0.6213379-0.34375,0.9370117
		c-0.0595703,0.177002-0.1225586,0.3518066-0.1767578,0.5311279c-0.1279297,0.4245605-0.2353516,0.8549805-0.3320312,1.2879639
		c-0.0385742,0.1756592-0.0761719,0.3515625-0.1098633,0.5290527c-0.090332,0.4689941-0.1635742,0.9407959-0.2163086,1.4154053
		c-0.0126953,0.1131592-0.0205078,0.227417-0.0307617,0.3413086C0.0327148,16.9963379,0,17.5407715,0,18.0859375v81.9560547
		v33.5507812v76.8408203v12.1572266c0,1.9326172,1.5673828,3.5,3.5,3.5s3.5-1.5673828,3.5-3.5v-12.1572266v-76.8408203v-33.5507812
		V18.0859375c0-0.4094238,0.0263672-0.814209,0.0703125-1.2150879c0.0141602-0.1318359,0.0405273-0.2597656,0.0595703-0.3902588
		c0.0395508-0.2709961,0.0830078-0.5412598,0.1425781-0.8077393c0.0302734-0.1348877,0.0678711-0.2666016,0.1030273-0.3997803
		c0.0717773-0.2703857,0.1499023-0.5391846,0.2426758-0.8043213c0.0366211-0.1062012,0.0761719-0.2114258,0.1162109-0.3162842
		c0.1191406-0.3101807,0.2509766-0.6165771,0.3989258-0.918335C9.9370117,9.5498047,13.7138672,7,18.0849609,7h88.7460938
		h15.1513672h11.9052734h29.0439453c-0.5463867,1.3244629-0.8525391,2.772583-0.8525391,4.2919922V105.71875
		c0,1.4560547,0.9013672,2.7597656,2.2626953,3.2744141c1.3632812,0.5136719,2.9003906,0.1308594,3.8632812-0.9599609
		l22.9414062-26.0263672l22.9404297,26.0263672c0.6777344,0.7685547,1.640625,1.1855469,2.6269531,1.1855469
		c0.4140625,0,0.8330078-0.0732422,1.2363281-0.2255859c1.3613281-0.5146484,2.2626953-1.8183594,2.2626953-3.2744141V11.2919922
		c0-1.5194092-0.3056641-2.9675293-0.8525391-4.2919922h16.6181641c0.3964844,0,0.7910156,0.0227051,1.1811523,0.0649414
		c0.0698242,0.0073242,0.1367188,0.0227051,0.2055664,0.0314941c0.3242188,0.0412598,0.6464844,0.090332,0.9638672,0.1599121
		c0.0605469,0.0131836,0.1191406,0.0321045,0.1796875,0.0462646c0.3237305,0.0767822,0.6450195,0.1634521,0.9599609,0.2689209
		c0.050293,0.0168457,0.0991211,0.0372314,0.1494141,0.0546875c0.3222656,0.1132812,0.6401367,0.2385254,0.9506836,0.3811035
		c0.0410156,0.0187988,0.0810547,0.0395508,0.1220703,0.0588379c0.3178711,0.1506348,0.6293945,0.3148193,0.9321289,0.4954834
		c0.0302734,0.0180664,0.0600586,0.0367432,0.090332,0.0550537c0.3149414,0.1918945,0.621582,0.3989258,0.9179688,0.6225586
		c0.0141602,0.010498,0.0283203,0.0209961,0.0424805,0.0314941c0.6303711,0.480957,1.215332,1.0314941,1.7412109,1.6481934
		c0.0131836,0.0152588,0.0292969,0.0251465,0.0429688,0.0401611c1.6235352,1.928833,2.6064453,4.4141846,2.6064453,7.1268311
		v23.2744141v88.7460938v15.1513672v11.9052734v37.8789062v76.8417969v33.5498047v29.5263672
		c0,6.1123047-4.9726562,11.0849609-11.0859375,11.0849609h-32.9423828h-3.3720703c-1.9326172,0-3.5,1.5673828-3.5,3.5
		s1.5673828,3.5,3.5,3.5h3.3720703h32.9423828c9.9726562,0,18.0859375-8.1132812,18.0859375-18.0849609v-29.5263672v-33.5498047
		v-76.8417969v-37.8789062v-11.9052734v-15.1513672V41.3603516V18.0859375
		C254.0644531,13.6275635,252.4350586,9.5480957,249.7509766,6.3917236z M213.2128906,11.2919922v85.1630859l-19.4404297-22.0556641
		c-0.6650391-0.7539062-1.6210938-1.1855469-2.6259766-1.1855469s-1.9609375,0.4316406-2.6259766,1.1855469l-19.4414062,22.0556641
		V11.2919922C169.0791016,8.9257812,171.0048828,7,173.3720703,7h35.5488281
		C211.2871094,7,213.2128906,8.9257812,213.2128906,11.2919922z"/>
	<path class="st1" d="M184.0498047,46.5244141l-2.5,7.6982422c-0.265625,0.8164062,0.0253906,1.7109375,0.7197266,2.2148438
		c0.6933594,0.5039062,1.6347656,0.5039062,2.328125,0l6.5488281-4.7578125l6.5488281,4.7578125
		c0.3466797,0.2519531,0.7558594,0.3779297,1.1640625,0.3779297s0.8173828-0.1259766,1.1640625-0.3779297
		c0.6943359-0.5039062,0.9853516-1.3984375,0.7197266-2.2148438l-2.5009766-7.6982422l6.5478516-4.7578125
		c0.6943359-0.5039062,0.9853516-1.3984375,0.7197266-2.2148438c-0.2646484-0.8164062-1.0253906-1.3681641-1.8837891-1.3681641
		h-8.09375l-2.5019531-7.6992188c-0.2646484-0.8164062-1.0253906-1.3681641-1.8837891-1.3681641
		s-1.6191406,0.5517578-1.8837891,1.3681641l-2.5019531,7.6992188h-8.0947266c-0.8583984,0-1.6191406,0.5517578-1.8837891,1.3681641
		c-0.265625,0.8164062,0.0253906,1.7109375,0.7197266,2.2148438L184.0498047,46.5244141z"/>
</g>
</svg>
